<svg width="21" height="20" viewBox="0 0 21 20" fill="none" xmlns="http://www.w3.org/2000/svg">
<path d="M10.5 0C16.0228 0 20.5 4.47715 20.5 10C20.5 15.5228 16.0228 20 10.5 20C4.97715 20 0.5 15.5228 0.5 10C0.5 4.47715 4.97715 0 10.5 0ZM15.8535 5.89648C15.6583 5.70122 15.3417 5.70122 15.1465 5.89648L8.625 12.418L5.85352 9.64648L5.77539 9.58203C5.58131 9.45387 5.31735 9.47562 5.14648 9.64648C4.97562 9.81735 4.95387 10.0813 5.08203 10.2754L5.14648 10.3535L8.27148 13.4785C8.46675 13.6738 8.78325 13.6738 8.97852 13.4785L15.8535 6.60352C16.0488 6.40825 16.0488 6.09175 15.8535 5.89648Z" fill="#4E31A5"/>
</svg>
