<svg width="31" height="30" viewBox="0 0 31 30" fill="none" xmlns="http://www.w3.org/2000/svg">
<path fill-rule="evenodd" clip-rule="evenodd" d="M12.4447 15.9128L9.03853 14.778C5.47331 13.5901 3.68994 12.9961 3.68994 11.9037C3.68994 10.8127 5.47331 10.2173 9.03853 9.02935L21.9373 4.72926C24.4464 3.89287 25.701 3.47468 26.3631 4.13682C27.0253 4.79896 26.6071 6.05353 25.7722 8.56116L21.4706 21.4615C20.2827 25.0267 19.6887 26.8101 18.5963 26.8101C17.5054 26.8101 16.9099 25.0267 15.722 21.4615L14.5856 18.0568L21.1827 11.4597C21.4587 11.1739 21.6114 10.7912 21.608 10.3939C21.6045 9.99665 21.4452 9.61662 21.1643 9.3357C20.8833 9.05477 20.5033 8.89542 20.106 8.89197C19.7088 8.88851 19.326 9.04124 19.0402 9.31724L12.4447 15.9128Z" fill="#4E31A5"/>
</svg>
