<svg width="24" height="24" viewBox="0 0 24 24" fill="none" xmlns="http://www.w3.org/2000/svg">
<path fill-rule="evenodd" clip-rule="evenodd" d="M9.44466 12.9128L6.03853 11.778C2.47331 10.5901 0.689941 9.99611 0.689941 8.90366C0.689941 7.81273 2.47331 7.21726 6.03853 6.02935L18.9373 1.72926C21.4464 0.892874 22.701 0.474683 23.3631 1.13682C24.0253 1.79896 23.6071 3.05353 22.7722 5.56116L18.4706 18.4615C17.2827 22.0267 16.6887 23.8101 15.5963 23.8101C14.5054 23.8101 13.9099 22.0267 12.722 18.4615L11.5856 15.0568L18.1827 8.45971C18.4587 8.17394 18.6114 7.79121 18.608 7.39393C18.6045 6.99665 18.4452 6.61662 18.1643 6.3357C17.8833 6.05477 17.5033 5.89542 17.106 5.89197C16.7088 5.88851 16.326 6.04124 16.0402 6.31724L9.44466 12.9128Z" fill="currentColor"/>
</svg>
