<svg width="23" height="22" viewBox="0 0 23 22" fill="none" xmlns="http://www.w3.org/2000/svg">
<path d="M11.5 15.9156C11.3167 15.9156 11.1448 15.8872 10.9844 15.8304C10.8239 15.7735 10.675 15.6759 10.5375 15.5375L5.5875 10.5875C5.3125 10.3125 5.1805 9.99167 5.1915 9.625C5.2025 9.25833 5.3345 8.9375 5.5875 8.6625C5.86249 8.3875 6.18929 8.2445 6.56787 8.2335C6.94645 8.2225 7.27279 8.35404 7.54687 8.62813L10.125 11.2063V1.375C10.125 0.985421 10.257 0.659088 10.521 0.396005C10.785 0.132922 11.1113 0.000921408 11.5 4.74137e-06C11.8887 -0.000911925 12.2154 0.131088 12.4804 0.396005C12.7453 0.660921 12.8768 0.987254 12.875 1.375V11.2063L15.4531 8.62813C15.7281 8.35313 16.0549 8.22113 16.4335 8.23213C16.8121 8.24313 17.1384 8.38659 17.4125 8.6625C17.6646 8.9375 17.7966 9.25833 17.8085 9.625C17.8204 9.99167 17.6884 10.3125 17.4125 10.5875L12.4625 15.5375C12.325 15.675 12.176 15.7726 12.0156 15.8304C11.8552 15.8881 11.6833 15.9165 11.5 15.9156ZM3.25 22C2.49375 22 1.84658 21.731 1.3085 21.1929C0.770416 20.6548 0.500917 20.0072 0.5 19.25V16.5C0.5 16.1104 0.632 15.7841 0.896 15.521C1.16 15.2579 1.48633 15.1259 1.875 15.125C2.26367 15.1241 2.59046 15.2561 2.85537 15.521C3.12029 15.7859 3.25183 16.1122 3.25 16.5V19.25H19.75V16.5C19.75 16.1104 19.882 15.7841 20.146 15.521C20.41 15.2579 20.7363 15.1259 21.125 15.125C21.5136 15.1241 21.8404 15.2561 22.1054 15.521C22.3703 15.7859 22.5018 16.1122 22.5 16.5V19.25C22.5 20.0062 22.2309 20.6539 21.6929 21.1929C21.1548 21.7319 20.5071 22.0009 19.75 22H3.25Z" fill="currentColor"/>
</svg>
