<svg width="33" height="34" viewBox="0 0 33 34" fill="none" xmlns="http://www.w3.org/2000/svg">
<path d="M16.4995 0.501953C25.4791 0.501953 32.759 7.78122 32.7593 16.7607C32.7593 25.7405 25.4792 33.0205 16.4995 33.0205C7.51999 33.0203 0.240723 25.7403 0.240723 16.7607C0.240957 7.78136 7.52013 0.502187 16.4995 0.501953ZM16.5005 21.8418C15.378 21.8418 14.4673 22.7516 14.4673 23.874C14.4673 24.9965 15.378 25.9062 16.5005 25.9062C17.6227 25.906 18.5327 24.9963 18.5327 23.874C18.5327 22.7517 17.6227 21.8421 16.5005 21.8418ZM16.5005 6.36621C15.8101 6.36621 15.2505 6.92586 15.2505 7.61621V17.7783C15.2508 18.4684 15.8103 19.0283 16.5005 19.0283C17.1904 19.0281 17.7502 18.4683 17.7505 17.7783V7.61621C17.7505 6.92602 17.1906 6.36647 16.5005 6.36621Z" fill="white"/>
</svg>
