<svg width="30" height="30" viewBox="0 0 30 30" fill="none" xmlns="http://www.w3.org/2000/svg">
<g clip-path="url(#clip0_71_841)">
<path d="M25.7374 11.6079C25.531 5.87797 20.831 1.24474 15.0988 1.11703C8.96871 0.98041 3.95605 5.90916 3.95605 12.0088C3.95605 13.8555 4.41715 15.5944 5.22797 17.118L5.22351 17.115C5.23539 17.1366 5.24653 17.1559 5.25841 17.1767C5.28885 17.2331 5.32152 17.2881 5.35345 17.3445C5.38612 17.4024 5.41953 17.4603 5.4522 17.516C5.50492 17.6066 5.55912 17.6957 5.61481 17.784C5.64674 17.8345 5.67792 17.8828 5.70985 17.9318C5.75069 17.9949 5.79078 18.0588 5.83237 18.1211C7.37529 20.4185 8.6873 20.5833 9.15211 22.3363H13.867V17.0928L11.3507 14.5764C10.9438 14.1695 10.9438 13.5102 11.3507 13.1033C11.7576 12.6964 12.4169 12.6964 12.8238 13.1033L14.8664 15.1459L16.8764 13.136C17.2833 12.7291 17.9426 12.7291 18.3495 13.136C18.7564 13.5429 18.7564 14.2022 18.3495 14.6091L15.8332 17.1254V22.3356H20.5481C21.0144 20.5759 22.3338 20.4162 23.8834 18.0989C23.8849 18.0974 23.8856 18.0952 23.8871 18.0937C23.9614 17.983 24.0356 17.8665 24.1106 17.7454C24.1492 17.6831 24.1871 17.6207 24.2242 17.5576C24.3089 17.4158 24.3935 17.2702 24.4782 17.1143L24.4715 17.118C25.3409 15.4838 25.8087 13.603 25.7367 11.6071L25.7374 11.6079Z" fill="#FFEEA9"/>
<path d="M15.8332 22.3373V17.1271L18.3496 14.6108C18.7564 14.2039 18.7564 13.5445 18.3496 13.1376C17.9427 12.7308 17.2833 12.7308 16.8764 13.1376L14.8665 15.1476L12.8238 13.105C12.4169 12.6981 11.7576 12.6981 11.3507 13.105C10.9438 13.5119 10.9438 14.1712 11.3507 14.5781L13.8671 17.0945V22.338H15.8339L15.8332 22.3373Z" fill="#FFB452"/>
<path d="M9.17285 22.3367C9.17805 22.454 9.18176 22.5758 9.18325 22.7035V24.8412C9.18325 26.909 11.0083 28.5856 13.0769 28.5856H16.6231C18.691 28.5856 20.5391 26.909 20.5391 24.8412V22.7859C20.5391 22.627 20.5436 22.4792 20.5503 22.3359H9.17359L9.17285 22.3367Z" fill="#7D8996"/>
<path d="M20.6772 22.5039H9.04663V24.7314H20.6772V22.5039Z" fill="#4B596A"/>
</g>
<defs>
<clipPath id="clip0_71_841">
<rect width="29.7002" height="29.7002" fill="white"/>
</clipPath>
</defs>
</svg>
