<svg width="33" height="34" viewBox="0 0 33 34" fill="none" xmlns="http://www.w3.org/2000/svg">
<path d="M16.4995 0.510742C25.4789 0.510825 32.7583 7.79009 32.7583 16.7695C32.7583 25.7489 25.4789 33.0282 16.4995 33.0283C7.52005 33.0283 0.240765 25.749 0.240723 16.7695C0.240723 7.79004 7.52002 0.510742 16.4995 0.510742ZM25.5122 9.78906C25.0545 9.33157 24.3303 9.30268 23.8394 9.70312L23.7446 9.78906L13.4507 20.083L9.25342 15.8857L9.15869 15.7998C8.6678 15.3997 7.94339 15.4284 7.48584 15.8857C7.02842 16.3433 6.99979 17.0677 7.3999 17.5586L7.48584 17.6533L12.5669 22.7344C13.055 23.2225 13.8463 23.2224 14.3345 22.7344L25.5122 11.5566L25.5981 11.4619C25.9986 10.9709 25.9699 10.2467 25.5122 9.78906Z" fill="white"/>
</svg>
