<svg width="20" height="20" viewBox="0 0 20 20" fill="none" xmlns="http://www.w3.org/2000/svg">
<path d="M10 0C15.5228 0 20 4.47715 20 10C20 15.5228 15.5228 20 10 20C4.47715 20 0 15.5228 0 10C0 4.47715 4.47715 0 10 0ZM10 13.25C9.44771 13.25 9 13.6977 9 14.25C9 14.8023 9.44771 15.25 10 15.25C10.5523 15.25 11 14.8023 11 14.25C11 13.6977 10.5523 13.25 10 13.25ZM10 4.25C9.58579 4.25 9.25 4.58579 9.25 5V11.25C9.25 11.6642 9.58579 12 10 12C10.4142 12 10.75 11.6642 10.75 11.25V5C10.75 4.58579 10.4142 4.25 10 4.25Z" fill="#4E31A5"/>
</svg>
