<svg width="33" height="34" viewBox="0 0 33 34" fill="none" xmlns="http://www.w3.org/2000/svg">
<path d="M16.4995 0.501953C25.4789 0.502036 32.7583 7.7813 32.7583 16.7607C32.7583 25.7401 25.4789 33.0194 16.4995 33.0195C7.52005 33.0195 0.240765 25.7402 0.240723 16.7607C0.240723 7.78125 7.52002 0.501953 16.4995 0.501953ZM25.5122 9.78027C25.0545 9.32278 24.3303 9.29389 23.8394 9.69434L23.7446 9.78027L13.4507 20.0742L9.25342 15.877L9.15869 15.791C8.6678 15.3909 7.94339 15.4196 7.48584 15.877C7.02842 16.3345 6.99979 17.0589 7.3999 17.5498L7.48584 17.6445L12.5669 22.7256C13.055 23.2137 13.8463 23.2136 14.3345 22.7256L25.5122 11.5479L25.5981 11.4531C25.9986 10.9622 25.9699 10.2379 25.5122 9.78027Z" fill="white"/>
</svg>
