<svg width="24" height="24" viewBox="0 0 24 24" fill="none" xmlns="http://www.w3.org/2000/svg">
<path d="M15.1799 16.24L19.0081 19.9303C19.0778 20 19.1606 20.0553 19.2517 20.0931C19.3428 20.1308 19.4405 20.1502 19.5391 20.1502C19.6377 20.1502 19.7354 20.1308 19.8265 20.0931C19.9176 20.0553 20.0004 20 20.0701 19.9303C20.1398 19.8605 20.1951 19.7778 20.2329 19.6866C20.2706 19.5955 20.29 19.4979 20.29 19.3993C20.29 19.3006 20.2706 19.203 20.2329 19.1119C20.1951 19.0208 20.1398 18.938 20.0701 18.8683L4.46889 3.27756C4.39916 3.20783 4.31638 3.15252 4.22527 3.11478C4.13416 3.07704 4.03651 3.05762 3.93789 3.05762C3.83928 3.05762 3.74163 3.07704 3.65052 3.11478C3.55941 3.15252 3.47663 3.20783 3.40689 3.27756C3.33716 3.3473 3.28185 3.43008 3.24411 3.52119C3.20637 3.6123 3.18695 3.70995 3.18695 3.80856C3.18695 3.90718 3.20637 4.00483 3.24411 4.09594C3.28185 4.18705 3.33716 4.26983 3.40689 4.33956L6.56391 7.62554C5.90464 8.09286 5.31131 8.64683 4.79991 9.27254C4.07601 10.1608 3.50935 11.1663 3.12441 12.2455C3.09291 12.337 3.05391 12.463 3.05391 12.463L3.02691 12.556C3.02691 12.556 2.91291 13.3015 3.55941 13.4725C3.75156 13.5233 3.956 13.4958 4.12785 13.3959C4.29969 13.2961 4.42488 13.1321 4.47591 12.94L4.47741 12.9355L4.48941 12.898L4.54191 12.7345C4.86885 11.8233 5.34817 10.9743 5.95941 10.2235C6.44096 9.63391 7.00948 9.12103 7.64541 8.70254L10.0124 11.0695C9.53476 11.3689 9.13074 11.7721 8.83042 12.2492C8.5301 12.7263 8.3412 13.2649 8.27776 13.825C8.21433 14.3852 8.278 14.9524 8.46403 15.4846C8.65007 16.0167 8.95368 16.5 9.3523 16.8987C9.75091 17.2973 10.2343 17.6009 10.7664 17.7869C11.2985 17.973 11.8658 18.0366 12.4259 17.9732C12.9861 17.9098 13.5247 17.7209 14.0018 17.4205C14.4788 17.1202 14.882 16.7162 15.1814 16.2385M14.0714 15.1285C13.9276 15.4676 13.7028 15.7662 13.4166 15.9981C13.1305 16.23 12.7918 16.3881 12.4302 16.4586C12.0687 16.529 11.6954 16.5096 11.3432 16.4021C10.9909 16.2945 10.6704 16.1022 10.4098 15.8419C10.1492 15.5816 9.95655 15.2613 9.84867 14.9091C9.74079 14.5569 9.72101 14.1837 9.79107 13.8221C9.86114 13.4605 10.0189 13.1216 10.2505 12.8352C10.4821 12.5488 10.7805 12.3237 11.1194 12.1795L14.0714 15.1285ZM9.47991 6.29955L10.7609 7.58054C11.1509 7.52654 11.5639 7.49954 11.9999 7.49954C15.0659 7.49954 16.9289 8.86754 18.0419 10.225C18.6532 10.9758 19.1325 11.8248 19.4594 12.736C19.4844 12.809 19.5019 12.8635 19.5119 12.8995L19.5239 12.937V12.9415L19.5254 12.943C19.5809 13.1302 19.7072 13.2884 19.8775 13.3839C20.0478 13.4795 20.2486 13.5048 20.4373 13.4546C20.626 13.4044 20.7877 13.2826 20.888 13.1151C20.9883 12.9476 21.0193 12.7476 20.9744 12.5575V12.553L20.9729 12.547L20.9669 12.5275C20.9415 12.4326 20.9115 12.339 20.8769 12.247C20.492 11.1678 19.9253 10.1623 19.2014 9.27404C17.8574 7.63304 15.5939 5.99955 12.0029 5.99955C11.0759 5.99955 10.2374 6.10755 9.48141 6.29805" fill="black"/>
</svg>
