<svg width="66" height="66" viewBox="0 0 66 66" fill="none" xmlns="http://www.w3.org/2000/svg">
<path d="M44 8.9375H22C19.36 8.9375 17.1875 11.11 17.1875 13.75V52.25C17.1875 54.89 19.36 57.0625 22 57.0625H44C46.64 57.0625 48.8125 54.89 48.8125 52.25V13.75C48.8125 11.11 46.64 8.9375 44 8.9375ZM44.6875 52.25C44.6875 52.635 44.385 52.9375 44 52.9375H22C21.615 52.9375 21.3125 52.635 21.3125 52.25V13.75C21.3125 13.365 21.615 13.0625 22 13.0625H44C44.385 13.0625 44.6875 13.365 44.6875 13.75V52.25ZM35.75 44C35.75 45.5125 34.5125 46.75 33 46.75C31.4875 46.75 30.25 45.5125 30.25 44C30.25 42.4875 31.4875 41.25 33 41.25C34.5125 41.25 35.75 42.4875 35.75 44Z" fill="white"/>
</svg>
