<svg width="17" height="17" viewBox="0 0 17 17" fill="none" xmlns="http://www.w3.org/2000/svg">
<path d="M1.83337 3.86986C1.83337 2.92939 2.59578 2.16699 3.53625 2.16699H13.4636C14.4042 2.16699 15.1667 2.9295 15.1667 3.87009V4.29001C15.1667 4.62732 14.9898 4.93993 14.7007 5.11366C14.3381 5.33124 13.9231 5.44618 13.5002 5.44618C13.0773 5.44618 12.6623 5.33124 12.2997 5.11366C12.0129 4.94143 11.6542 4.94134 11.3674 5.11366C11.0047 5.33124 10.5898 5.44618 10.1669 5.44618C9.74397 5.44618 9.32901 5.33124 8.96637 5.11366C8.67953 4.94143 8.32083 4.94134 8.03404 5.11366C7.6714 5.33124 7.25645 5.44618 6.83354 5.44618C6.41063 5.44618 5.99568 5.33124 5.63304 5.11366C5.34603 4.94133 4.98738 4.94133 4.70037 5.11366C4.33777 5.33118 3.92288 5.44608 3.50004 5.44608C3.0772 5.44608 2.66231 5.33118 2.29971 5.11366C2.01038 4.93994 1.83337 4.6272 1.83337 4.28972V3.86986Z" fill="#4E31A5" stroke="#4E31A5" stroke-linecap="round" stroke-linejoin="round"/>
<path d="M3.5 5.83398V8.83398M13.5 5.83398V8.83398M4.5 14.834H12.5C13.6046 14.834 14.5 13.9386 14.5 12.834V10.834C14.5 9.72942 13.6046 8.83398 12.5 8.83398H4.5C3.39543 8.83398 2.5 9.72941 2.5 10.834V12.834C2.5 13.9386 3.39543 14.834 4.5 14.834Z" stroke="#4E31A5" stroke-linecap="round" stroke-linejoin="round"/>
</svg>
