<svg width="33" height="33" viewBox="0 0 33 33" fill="none" xmlns="http://www.w3.org/2000/svg">
<path d="M16.2588 0C25.2381 0.00021472 32.5176 7.27943 32.5176 16.2588C32.5175 25.2381 25.2381 32.5174 16.2588 32.5176C7.27932 32.5176 4.24924e-05 25.2382 0 16.2588C0 7.2793 7.2793 0 16.2588 0ZM12.1875 13.1016C12.013 13.1016 11.849 13.1516 11.6963 13.2529C11.5436 13.3542 11.4311 13.4994 11.3584 13.6875L8.06348 22.8066C7.99074 22.9803 7.98034 23.1474 8.03125 23.3066C8.08217 23.4658 8.16592 23.603 8.28223 23.7188C8.39855 23.8345 8.53636 23.9181 8.69629 23.9688C8.85624 24.0194 9.02376 24.0088 9.19824 23.9365L18.3623 20.6572C18.5513 20.5849 18.697 20.4731 18.7988 20.3213C18.9007 20.1693 18.9521 20.0057 18.9521 19.832C18.9521 19.7165 18.9302 19.608 18.8867 19.5068C18.8431 19.4055 18.7767 19.3115 18.6895 19.2246L12.7988 13.3623C12.7115 13.2755 12.6165 13.2094 12.5146 13.166C12.4129 13.1227 12.3037 13.1016 12.1875 13.1016ZM22.3115 15.0771C21.6571 15.0773 21.0972 15.3094 20.6318 15.7725L19.6934 16.7061C19.5626 16.8363 19.4971 16.9885 19.4971 17.1621C19.4972 17.3355 19.5628 17.4871 19.6934 17.6172C19.8242 17.7474 19.977 17.8134 20.1514 17.8135C20.3259 17.8135 20.4794 17.7475 20.6104 17.6172L21.5479 16.6836C21.7514 16.481 22.0062 16.38 22.3115 16.3799C22.6168 16.3799 22.8716 16.4812 23.0752 16.6836L24.0137 17.6172C24.1445 17.7474 24.2973 17.8134 24.4717 17.8135C24.6462 17.8135 24.7997 17.7475 24.9307 17.6172C25.0612 17.4871 25.1268 17.3355 25.127 17.1621C25.127 16.9886 25.0614 16.8363 24.9307 16.7061L23.9922 15.7725C23.5267 15.3093 22.9661 15.0771 22.3115 15.0771ZM24.0576 9.86621C23.403 9.86621 22.8424 10.0973 22.377 10.5605L17.9482 14.9688C17.8173 15.099 17.752 15.2511 17.752 15.4248C17.752 15.5984 17.8174 15.7506 17.9482 15.8809C18.0791 16.011 18.2318 16.0762 18.4062 16.0762C18.5807 16.0762 18.7334 16.011 18.8643 15.8809L23.2939 11.4727C23.4976 11.2701 23.7522 11.1689 24.0576 11.1689C24.363 11.169 24.6177 11.2701 24.8213 11.4727L24.8867 11.5381C25.0176 11.6683 25.1703 11.7334 25.3447 11.7334C25.5192 11.7334 25.6719 11.6682 25.8027 11.5381C25.9337 11.4078 26 11.2557 26 11.082C26 10.9083 25.9336 10.7563 25.8027 10.626L25.7373 10.5605C25.2719 10.0976 24.712 9.86623 24.0576 9.86621ZM18.4062 7C18.2318 7 18.0791 7.06514 17.9482 7.19531C17.8173 7.32558 17.752 7.47767 17.752 7.65137C17.752 7.82507 17.8173 7.97714 17.9482 8.10742L18.8867 9.04102C19.0902 9.24359 19.1914 9.49699 19.1914 9.80078C19.1914 10.1046 19.0901 10.358 18.8867 10.5605L16.2021 13.2314C16.0713 13.3617 16.0059 13.5139 16.0059 13.6875C16.0059 13.8611 16.0713 14.0133 16.2021 14.1436C16.3331 14.2738 16.4866 14.3389 16.6611 14.3389C16.8355 14.3388 16.9883 14.2737 17.1191 14.1436L19.8027 11.4727C20.2681 11.0095 20.501 10.4521 20.501 9.80078C20.5009 9.14948 20.2682 8.59207 19.8027 8.12891L18.8643 7.19531C18.7334 7.06514 18.5807 7 18.4062 7ZM14.8711 8.7373C14.6967 8.73739 14.5439 8.80243 14.4131 8.93262C14.2823 9.06286 14.2168 9.21504 14.2168 9.38867C14.2169 9.56227 14.2822 9.71451 14.4131 9.84473L14.5225 9.95312C14.726 10.1558 14.8281 10.402 14.8281 10.6914C14.8281 10.9808 14.7261 11.2271 14.5225 11.4297L14.457 11.4941C14.3262 11.6243 14.2608 11.7766 14.2607 11.9502C14.2607 12.1239 14.3262 12.276 14.457 12.4062C14.5879 12.5365 14.7405 12.6016 14.915 12.6016C15.0896 12.6016 15.2421 12.5365 15.373 12.4062L15.4385 12.3418C15.9039 11.8786 16.1367 11.3282 16.1367 10.6914C16.1367 10.0545 15.904 9.50423 15.4385 9.04102L15.3301 8.93262C15.1992 8.80234 15.0457 8.7373 14.8711 8.7373Z" fill="white"/>
</svg>
