<svg width="16" height="16" viewBox="0 0 16 16" fill="none" xmlns="http://www.w3.org/2000/svg">
<path d="M8 0C12.4183 0 16 3.58172 16 8C16 12.4183 12.4183 16 8 16C3.58172 16 0 12.4183 0 8C0 3.58172 3.58172 0 8 0ZM12.3535 4.64648C12.1583 4.45122 11.8417 4.45122 11.6465 4.64648L6.5 9.79297L4.35352 7.64648L4.27539 7.58203C4.08131 7.45387 3.81735 7.47562 3.64648 7.64648C3.47562 7.81735 3.45387 8.08131 3.58203 8.27539L3.64648 8.35352L6.14648 10.8535C6.34175 11.0488 6.65825 11.0488 6.85352 10.8535L12.3535 5.35352C12.5488 5.15825 12.5488 4.84175 12.3535 4.64648Z" fill="#4E31A5"/>
</svg>
