<svg width="11" height="11" viewBox="0 0 11 11" fill="none" xmlns="http://www.w3.org/2000/svg">
<g clip-path="url(#clip0_56_3210)">
<path d="M5.5 10.3125C2.84625 10.3125 0.6875 8.15375 0.6875 5.5C0.6875 2.84625 2.84625 0.6875 5.5 0.6875C8.15375 0.6875 10.3125 2.84625 10.3125 5.5C10.3125 8.15375 8.15375 10.3125 5.5 10.3125ZM5.5 1.375C3.22438 1.375 1.375 3.22438 1.375 5.5C1.375 7.77562 3.22438 9.625 5.5 9.625C7.77562 9.625 9.625 7.77562 9.625 5.5C9.625 3.22438 7.77562 1.375 5.5 1.375Z" fill="#888888"/>
<path d="M6.87501 7.21875C6.81313 7.21875 6.75126 7.205 6.69626 7.17063L4.97751 6.13938C4.92683 6.10853 4.885 6.06509 4.85609 6.01328C4.82717 5.96148 4.81216 5.90308 4.81251 5.84375V3.09375C4.81251 2.90125 4.96376 2.75 5.15626 2.75C5.34876 2.75 5.50001 2.90125 5.50001 3.09375V5.65125L7.05376 6.57937C7.11775 6.6186 7.16722 6.67762 7.19465 6.74749C7.22209 6.81736 7.226 6.89426 7.20579 6.96655C7.18558 7.03884 7.14235 7.10257 7.08266 7.14808C7.02297 7.19359 6.95007 7.2184 6.87501 7.21875Z" fill="#888888"/>
</g>
<defs>
<clipPath id="clip0_56_3210">
<rect width="11" height="11" fill="white"/>
</clipPath>
</defs>
</svg>
