<svg width="351" height="151" viewBox="0 0 351 151" fill="none" xmlns="http://www.w3.org/2000/svg">
<path d="M21.5 0.5V134" stroke="#EFEFEF" stroke-linecap="round" stroke-linejoin="round" stroke-dasharray="7 7"/>
<path d="M21.4512 141.832C22.6719 141.842 24.0195 142.574 24.0195 145.182C24.0195 147.691 22.9941 149.098 21.334 149.098C20.0938 149.098 19.2148 148.336 19.0391 147.213H19.9082C20.0645 147.848 20.543 148.316 21.334 148.316C22.4863 148.316 23.1895 147.32 23.1992 145.602H23.1016C22.6914 146.188 22.0469 146.539 21.2949 146.539C20.0254 146.539 18.9805 145.572 18.9805 144.205C18.9805 142.887 19.9473 141.822 21.4512 141.832ZM21.4512 142.604C20.5234 142.604 19.8301 143.326 19.8398 144.195C19.8398 145.074 20.4941 145.768 21.4219 145.768C22.3398 145.768 23.0625 145.006 23.0625 144.176C23.0625 143.365 22.3887 142.604 21.4512 142.604Z" fill="#888888"/>
<path d="M43.5 0.5V134" stroke="#EFEFEF" stroke-linecap="round" stroke-linejoin="round" stroke-dasharray="7 7"/>
<path d="M41.6182 141.93V149H40.7295V142.848H40.6904L38.9717 143.99V143.102L40.7295 141.93H41.6182ZM45.5674 149.098C43.9951 149.098 43.0967 147.779 43.0967 145.465C43.0967 143.17 44.0146 141.832 45.5674 141.832C47.1201 141.832 48.0381 143.17 48.0381 145.465C48.0381 147.779 47.1299 149.098 45.5674 149.098ZM45.5674 148.316C46.583 148.316 47.1787 147.291 47.1787 145.465C47.1787 143.639 46.583 142.594 45.5674 142.594C44.5518 142.594 43.9463 143.639 43.9463 145.465C43.9463 147.291 44.542 148.316 45.5674 148.316Z" fill="#888888"/>
<path d="M65.5 0.5V134" stroke="#EFEFEF" stroke-linecap="round" stroke-linejoin="round" stroke-dasharray="7 7"/>
<path d="M64.4043 141.93V149H63.5156V142.848H63.4766L61.7578 143.99V143.102L63.5156 141.93H64.4043ZM68.5391 141.93V149H67.6504V142.848H67.6113L65.8926 143.99V143.102L67.6504 141.93H68.5391Z" fill="#888888"/>
<path d="M87.5 0.5V134" stroke="#EFEFEF" stroke-linecap="round" stroke-linejoin="round" stroke-dasharray="7 7"/>
<path d="M85.6621 141.93V149H84.7734V142.848H84.7344L83.0156 143.99V143.102L84.7734 141.93H85.6621ZM87.2969 149L87.2871 148.355L89.6992 145.816C90.5391 144.928 90.9395 144.449 90.9395 143.795C90.9395 143.072 90.3242 142.594 89.5332 142.594C88.6934 142.594 88.1562 143.131 88.1562 143.922H87.3262C87.3164 142.672 88.2832 141.832 89.5625 141.832C90.8418 141.832 91.7598 142.691 91.7598 143.795C91.7598 144.586 91.3887 145.201 90.1387 146.49L88.5176 148.16V148.219H91.8867V149H87.2969Z" fill="#888888"/>
<path d="M109.5 0.5V134" stroke="#EFEFEF" stroke-linecap="round" stroke-linejoin="round" stroke-dasharray="7 7"/>
<path d="M107.511 141.93V149H106.622V142.848H106.583L104.864 143.99V143.102L106.622 141.93H107.511ZM111.587 149.098C110.181 149.098 109.175 148.346 109.126 147.223H110.015C110.063 147.896 110.737 148.316 111.577 148.316C112.505 148.316 113.188 147.809 113.188 147.076C113.188 146.305 112.573 145.758 111.47 145.758H110.894V144.986H111.47C112.329 144.986 112.925 144.508 112.925 143.775C112.925 143.072 112.407 142.594 111.606 142.594C110.854 142.594 110.161 143.014 110.122 143.707H109.272C109.321 142.584 110.356 141.832 111.616 141.832C112.964 141.832 113.784 142.711 113.774 143.727C113.784 144.527 113.315 145.123 112.573 145.328V145.377C113.491 145.523 114.058 146.178 114.048 147.076C114.058 148.238 112.993 149.098 111.587 149.098Z" fill="#888888"/>
<path d="M131.5 0.5V134" stroke="#EFEFEF" stroke-linecap="round" stroke-linejoin="round" stroke-dasharray="7 7"/>
<path d="M129.477 141.93V149H128.588V142.848H128.549L126.83 143.99V143.102L128.588 141.93H129.477ZM130.936 147.555V146.832L134.119 141.93H135.203V146.783H136.189V147.555H135.203V149H134.363V147.555H130.936ZM131.883 146.783H134.363V143.043H134.275L131.883 146.725V146.783Z" fill="#888888"/>
<path d="M153.5 0.5V134" stroke="#EFEFEF" stroke-linecap="round" stroke-linejoin="round" stroke-dasharray="7 7"/>
<path d="M151.613 141.93V149H150.725V142.848H150.686L148.967 143.99V143.102L150.725 141.93H151.613ZM155.553 149.098C154.273 149.098 153.307 148.307 153.258 147.223H154.107C154.176 147.857 154.791 148.326 155.553 148.326C156.471 148.326 157.135 147.652 157.135 146.764C157.135 145.846 156.441 145.172 155.494 145.162C154.898 145.152 154.439 145.338 154.176 145.797H153.326L153.824 141.93H157.652V142.711H154.557L154.293 144.781H154.361C154.674 144.537 155.152 144.371 155.65 144.371C156.998 144.371 157.994 145.367 157.994 146.744C157.994 148.111 156.959 149.098 155.553 149.098Z" fill="#888888"/>
<path d="M175.5 0.5V134" stroke="#EFEFEF" stroke-linecap="round" stroke-linejoin="round" stroke-dasharray="7 7"/>
<path d="M173.53 141.93V149H172.642V142.848H172.603L170.884 143.99V143.102L172.642 141.93H173.53ZM177.626 149.098C176.396 149.078 175.048 148.355 175.048 145.738C175.048 143.238 176.073 141.832 177.733 141.832C178.974 141.832 179.843 142.594 180.028 143.707H179.159C178.993 143.082 178.524 142.613 177.733 142.613C176.571 142.613 175.878 143.609 175.878 145.309H175.966C176.376 144.723 177.021 144.371 177.782 144.371C179.042 144.371 180.087 145.348 180.087 146.715C180.087 148.043 179.11 149.107 177.626 149.098ZM177.626 148.326C178.544 148.326 179.228 147.604 179.237 146.725C179.228 145.855 178.573 145.143 177.646 145.143C176.718 145.143 176.005 145.895 175.995 146.734C175.995 147.564 176.679 148.326 177.626 148.326Z" fill="#888888"/>
<path d="M197.5 0.5V134" stroke="#EFEFEF" stroke-linecap="round" stroke-linejoin="round" stroke-dasharray="7 7"/>
<path d="M195.838 141.93V149H194.949V142.848H194.91L193.191 143.99V143.102L194.949 141.93H195.838ZM197.697 149L200.939 142.76V142.711H197.199V141.93H201.848V142.75L198.615 149H197.697Z" fill="#888888"/>
<path d="M219.5 0.5V134" stroke="#EFEFEF" stroke-linecap="round" stroke-linejoin="round" stroke-dasharray="7 7"/>
<path d="M217.564 141.93V149H216.676V142.848H216.637L214.918 143.99V143.102L216.676 141.93H217.564ZM221.562 149.098C220.078 149.098 219.043 148.277 219.053 147.125C219.043 146.207 219.678 145.455 220.488 145.328V145.289C219.785 145.123 219.326 144.479 219.326 143.707C219.326 142.623 220.273 141.832 221.562 141.832C222.852 141.832 223.799 142.623 223.809 143.707C223.799 144.479 223.33 145.123 222.637 145.289V145.328C223.438 145.455 224.072 146.207 224.082 147.125C224.072 148.277 223.037 149.098 221.562 149.098ZM221.562 148.326C222.578 148.326 223.203 147.818 223.203 147.076C223.203 146.295 222.51 145.719 221.562 145.719C220.615 145.719 219.912 146.295 219.932 147.076C219.912 147.818 220.547 148.326 221.562 148.326ZM221.562 144.977C222.363 144.977 222.949 144.488 222.949 143.775C222.949 143.072 222.393 142.594 221.562 142.594C220.723 142.594 220.176 143.072 220.176 143.775C220.176 144.488 220.752 144.977 221.562 144.977Z" fill="#888888"/>
<path d="M241.5 0.5V134" stroke="#EFEFEF" stroke-linecap="round" stroke-linejoin="round" stroke-dasharray="7 7"/>
<path d="M239.53 141.93V149H238.642V142.848H238.603L236.884 143.99V143.102L238.642 141.93H239.53ZM243.519 141.832C244.739 141.842 246.087 142.574 246.087 145.182C246.087 147.691 245.062 149.098 243.401 149.098C242.161 149.098 241.282 148.336 241.106 147.213H241.976C242.132 147.848 242.61 148.316 243.401 148.316C244.554 148.316 245.257 147.32 245.267 145.602H245.169C244.759 146.188 244.114 146.539 243.362 146.539C242.093 146.539 241.048 145.572 241.048 144.205C241.048 142.887 242.015 141.822 243.519 141.832ZM243.519 142.604C242.591 142.604 241.897 143.326 241.907 144.195C241.907 145.074 242.562 145.768 243.489 145.768C244.407 145.768 245.13 145.006 245.13 144.176C245.13 143.365 244.456 142.604 243.519 142.604Z" fill="#888888"/>
<path d="M263.5 0.5V134" stroke="#EFEFEF" stroke-linecap="round" stroke-linejoin="round" stroke-dasharray="7 7"/>
<path d="M258.376 149L258.366 148.355L260.778 145.816C261.618 144.928 262.019 144.449 262.019 143.795C262.019 143.072 261.403 142.594 260.612 142.594C259.772 142.594 259.235 143.131 259.235 143.922H258.405C258.396 142.672 259.362 141.832 260.642 141.832C261.921 141.832 262.839 142.691 262.839 143.795C262.839 144.586 262.468 145.201 261.218 146.49L259.597 148.16V148.219H262.966V149H258.376ZM266.31 149.098C264.737 149.098 263.839 147.779 263.839 145.465C263.839 143.17 264.757 141.832 266.31 141.832C267.862 141.832 268.78 143.17 268.78 145.465C268.78 147.779 267.872 149.098 266.31 149.098ZM266.31 148.316C267.325 148.316 267.921 147.291 267.921 145.465C267.921 143.639 267.325 142.594 266.31 142.594C265.294 142.594 264.688 143.639 264.688 145.465C264.688 147.291 265.284 148.316 266.31 148.316Z" fill="#888888"/>
<path d="M285.5 0.5V134" stroke="#EFEFEF" stroke-linecap="round" stroke-linejoin="round" stroke-dasharray="7 7"/>
<path d="M281.162 149L281.152 148.355L283.564 145.816C284.404 144.928 284.805 144.449 284.805 143.795C284.805 143.072 284.189 142.594 283.398 142.594C282.559 142.594 282.021 143.131 282.021 143.922H281.191C281.182 142.672 282.148 141.832 283.428 141.832C284.707 141.832 285.625 142.691 285.625 143.795C285.625 144.586 285.254 145.201 284.004 146.49L282.383 148.16V148.219H285.752V149H281.162ZM289.281 141.93V149H288.393V142.848H288.354L286.635 143.99V143.102L288.393 141.93H289.281Z" fill="#888888"/>
<path d="M307.5 0.5V134" stroke="#EFEFEF" stroke-linecap="round" stroke-linejoin="round" stroke-dasharray="7 7"/>
<path d="M302.42 149L302.41 148.355L304.822 145.816C305.662 144.928 306.062 144.449 306.062 143.795C306.062 143.072 305.447 142.594 304.656 142.594C303.816 142.594 303.279 143.131 303.279 143.922H302.449C302.439 142.672 303.406 141.832 304.686 141.832C305.965 141.832 306.883 142.691 306.883 143.795C306.883 144.586 306.512 145.201 305.262 146.49L303.641 148.16V148.219H307.01V149H302.42ZM308.039 149L308.029 148.355L310.441 145.816C311.281 144.928 311.682 144.449 311.682 143.795C311.682 143.072 311.066 142.594 310.275 142.594C309.436 142.594 308.898 143.131 308.898 143.922H308.068C308.059 142.672 309.025 141.832 310.305 141.832C311.584 141.832 312.502 142.691 312.502 143.795C312.502 144.586 312.131 145.201 310.881 146.49L309.26 148.16V148.219H312.629V149H308.039Z" fill="#888888"/>
<path d="M329.5 0.5V134" stroke="#EFEFEF" stroke-linecap="round" stroke-linejoin="round" stroke-dasharray="7 7"/>
<path d="M324.269 149L324.259 148.355L326.671 145.816C327.511 144.928 327.911 144.449 327.911 143.795C327.911 143.072 327.296 142.594 326.505 142.594C325.665 142.594 325.128 143.131 325.128 143.922H324.298C324.288 142.672 325.255 141.832 326.534 141.832C327.813 141.832 328.731 142.691 328.731 143.795C328.731 144.586 328.36 145.201 327.11 146.49L325.489 148.16V148.219H328.858V149H324.269ZM332.329 149.098C330.923 149.098 329.917 148.346 329.868 147.223H330.757C330.806 147.896 331.479 148.316 332.319 148.316C333.247 148.316 333.931 147.809 333.931 147.076C333.931 146.305 333.315 145.758 332.212 145.758H331.636V144.986H332.212C333.071 144.986 333.667 144.508 333.667 143.775C333.667 143.072 333.149 142.594 332.349 142.594C331.597 142.594 330.903 143.014 330.864 143.707H330.015C330.063 142.584 331.099 141.832 332.358 141.832C333.706 141.832 334.526 142.711 334.517 143.727C334.526 144.527 334.058 145.123 333.315 145.328V145.377C334.233 145.523 334.8 146.178 334.79 147.076C334.8 148.238 333.735 149.098 332.329 149.098Z" fill="#888888"/>
</svg>
