<svg width="24" height="24" viewBox="0 0 24 24" fill="none" xmlns="http://www.w3.org/2000/svg">
<path d="M12.001 19C13.5542 18.9998 15.0632 18.483 16.2904 17.531C17.5176 16.5791 18.3934 15.246 18.7798 13.7417C19.1663 12.2374 19.0415 10.6473 18.425 9.22173C17.8086 7.79615 16.7356 6.61607 15.3748 5.86726C14.0141 5.11846 12.443 4.84347 10.9088 5.08558C9.37464 5.3277 7.96456 6.07316 6.90057 7.20462C5.83657 8.33608 5.17909 9.78927 5.03163 11.3354C4.88417 12.8815 5.25511 14.4328 6.08604 15.745L5.00104 19L8.25604 17.915C9.37571 18.6256 10.6749 19.002 12.001 19Z" fill="#333333" stroke="#333333" stroke-width="2" stroke-linecap="round" stroke-linejoin="round"/>
</svg>
