<svg width="24" height="24" viewBox="0 0 24 24" fill="none" xmlns="http://www.w3.org/2000/svg">
<path d="M12.6861 5.99135C12.0837 6.35411 9.16695 5.406 7.1798 5.406C5.7422 5.406 6.83631 7.73868 6.93576 10.0724C7.03988 12.5157 5.01541 10.3533 3.68847 10.3292C2.53338 10.3082 2.28051 10.977 2.0455 11.7543C1.73215 12.7908 3.07236 14.1511 4.98916 13.3738C6.52259 12.7519 6.82167 13.7864 6.93576 14.283C7.00422 16.5503 6.38811 19.0119 6.59348 19.4006C6.75778 19.7115 9.71968 19.5301 11.1801 19.4006C13.3159 19.1414 13.3479 19.9404 13.0969 20.3722C12.5721 21.4735 12.2369 24.0919 14.4362 23.9975C16.9691 23.8888 15.6839 21.056 15.6983 20.2427C15.7088 19.6457 16.0834 19.4902 16.6269 19.4006C17.87 19.1955 21.6997 20.6517 21.5558 18.9448C21.4426 17.6021 21.7909 16.3536 21.7909 14.4126C21.7909 13.7625 21.7139 13.7066 19.7074 14.0864C16.9691 14.6046 17.1061 12.0782 17.1061 11.9487C17.1061 11.8191 17.1383 10.6428 18.2698 10.1996C19.4336 9.74384 21.0967 11.0221 21.7909 10.7179C22.4943 10.4096 21.2178 5.60624 20.9694 5.34356C20.5612 4.91179 19.4634 5.34356 17.2043 5.99135C15.397 6.50957 15.4472 5.12763 15.6983 4.37188C16.2915 3.20586 16.8483 0.899734 14.3291 1.00338C11.8099 1.10703 12.321 3.20586 12.8915 4.24232C13.0741 4.67418 13.2886 5.62858 12.6861 5.99135Z" fill="#333333"/>
</svg>
