<svg width="24" height="24" viewBox="0 0 24 24" fill="none" xmlns="http://www.w3.org/2000/svg">
<path fill-rule="evenodd" clip-rule="evenodd" d="M13.7939 3.29497C13.0027 3.02665 12.1614 2.93921 11.332 3.03909C10.5025 3.13898 9.70605 3.42364 9.00119 3.87212C8.29633 4.3206 7.70104 4.92147 7.25915 5.63049C6.81727 6.33951 6.54006 7.13862 6.44792 7.96897L6.19592 10.236L6.18992 10.293C6.06082 11.417 5.69476 12.5008 5.11592 13.473L5.08592 13.523L4.50892 14.486C3.98392 15.36 3.72192 15.797 3.77892 16.156C3.81657 16.3943 3.9391 16.6109 4.12392 16.766C4.40292 17 4.91292 17 5.93192 17H18.0679C19.0879 17 19.5979 17 19.8759 16.767C20.0613 16.6118 20.1842 16.3948 20.2219 16.156C20.2779 15.797 20.0159 15.36 19.4919 14.486L18.9129 13.522L18.8829 13.472C18.4275 12.7068 18.1031 11.871 17.9229 10.999C17.0315 10.9853 16.1599 10.7336 15.3985 10.2699C14.6371 9.80616 14.0135 9.14727 13.5923 8.36148C13.1712 7.5757 12.9678 6.6916 13.0033 5.80078C13.0387 4.90996 13.3117 4.04481 13.7939 3.29497ZM16.2739 4.98897C16.9817 5.82831 17.4256 6.85811 17.5499 7.94897C17.2442 7.87844 16.9593 7.73695 16.7183 7.53594C16.4774 7.33493 16.2871 7.08004 16.1629 6.79188C16.0386 6.50372 15.984 6.19037 16.0033 5.87717C16.0225 5.56397 16.1153 5.2597 16.2739 4.98897Z" fill="#333333"/>
<path d="M9 17C9 17.7956 9.31607 18.5587 9.87868 19.1213C10.4413 19.6839 11.2044 20 12 20C12.7956 20 13.5587 19.6839 14.1213 19.1213C14.6839 18.5587 15 17.7956 15 17H9Z" fill="#333333"/>
<path d="M18 8.5C19.3807 8.5 20.5 7.38071 20.5 6C20.5 4.61929 19.3807 3.5 18 3.5C16.6193 3.5 15.5 4.61929 15.5 6C15.5 7.38071 16.6193 8.5 18 8.5Z" fill="#333333" stroke="#333333"/>
</svg>
