<svg width="280" height="64" viewBox="0 0 280 64" fill="none" xmlns="http://www.w3.org/2000/svg">
<path d="M173.551 5.896H182.575V7.96H174.607V13.264C175.375 12.832 176.103 12.552 176.791 12.424C177.495 12.296 178.159 12.232 178.783 12.232C179.567 12.232 180.271 12.36 180.895 12.616C181.519 12.856 182.047 13.192 182.479 13.624C182.911 14.04 183.239 14.536 183.463 15.112C183.687 15.688 183.799 16.296 183.799 16.936C183.799 17.688 183.663 18.4 183.391 19.072C183.135 19.728 182.743 20.312 182.215 20.824C181.703 21.32 181.055 21.712 180.271 22C179.487 22.288 178.575 22.432 177.535 22.432C176.879 22.432 176.135 22.32 175.303 22.096C174.487 21.888 173.695 21.488 172.927 20.896L173.455 20.2C173.855 20.44 174.223 20.64 174.559 20.8C174.911 20.96 175.247 21.08 175.567 21.16C175.887 21.24 176.207 21.296 176.527 21.328C176.863 21.36 177.215 21.376 177.583 21.376C177.983 21.376 178.383 21.304 178.783 21.16C179.199 21.016 179.575 20.784 179.911 20.464C180.247 20.144 180.519 19.72 180.727 19.192C180.935 18.664 181.039 18.016 181.039 17.248C181.039 16.016 180.743 15.056 180.151 14.368C179.575 13.664 178.807 13.312 177.847 13.312C177.127 13.312 176.471 13.408 175.879 13.6C175.303 13.792 174.863 14.056 174.559 14.392L173.551 14.104V5.896ZM188.032 22.744C187.616 22.744 187.256 22.592 186.952 22.288C186.664 22 186.52 21.648 186.52 21.232C186.52 20.816 186.664 20.464 186.952 20.176C187.256 19.888 187.616 19.744 188.032 19.744C188.448 19.744 188.8 19.888 189.088 20.176C189.376 20.464 189.52 20.816 189.52 21.232C189.52 21.648 189.376 22 189.088 22.288C188.8 22.592 188.448 22.744 188.032 22.744ZM197.603 22H195.083V7.888L192.755 9.424L192.203 8.584L197.051 5.536H197.603V22ZM207.843 18.352H200.355V16.6L209.331 5.32H210.243V16.288H212.811V18.352H210.243V22.024H207.843V18.352ZM207.843 16.288V8.728H207.795L201.819 16.288H207.843ZM220.977 12.76H230.817V14.008H220.977V12.76ZM240.203 5.896H249.227V7.96H241.259V13.264C242.027 12.832 242.755 12.552 243.443 12.424C244.147 12.296 244.811 12.232 245.435 12.232C246.219 12.232 246.923 12.36 247.547 12.616C248.171 12.856 248.699 13.192 249.131 13.624C249.563 14.04 249.891 14.536 250.115 15.112C250.339 15.688 250.451 16.296 250.451 16.936C250.451 17.688 250.315 18.4 250.043 19.072C249.787 19.728 249.395 20.312 248.867 20.824C248.355 21.32 247.707 21.712 246.923 22C246.139 22.288 245.227 22.432 244.187 22.432C243.531 22.432 242.787 22.32 241.955 22.096C241.139 21.888 240.347 21.488 239.579 20.896L240.107 20.2C240.507 20.44 240.875 20.64 241.211 20.8C241.563 20.96 241.899 21.08 242.219 21.16C242.539 21.24 242.859 21.296 243.179 21.328C243.515 21.36 243.867 21.376 244.235 21.376C244.635 21.376 245.035 21.304 245.435 21.16C245.851 21.016 246.227 20.784 246.563 20.464C246.899 20.144 247.171 19.72 247.379 19.192C247.587 18.664 247.691 18.016 247.691 17.248C247.691 16.016 247.395 15.056 246.803 14.368C246.227 13.664 245.459 13.312 244.499 13.312C243.779 13.312 243.123 13.408 242.531 13.6C241.955 13.792 241.515 14.056 241.211 14.392L240.203 14.104V5.896ZM254.683 22.744C254.267 22.744 253.907 22.592 253.603 22.288C253.315 22 253.171 21.648 253.171 21.232C253.171 20.816 253.315 20.464 253.603 20.176C253.907 19.888 254.267 19.744 254.683 19.744C255.099 19.744 255.451 19.888 255.739 20.176C256.027 20.464 256.171 20.816 256.171 21.232C256.171 21.648 256.027 22 255.739 22.288C255.451 22.592 255.099 22.744 254.683 22.744ZM264.255 22H261.735V7.888L259.407 9.424L258.855 8.584L263.703 5.536H264.255V22ZM277.518 6.856C276.942 6.664 276.47 6.568 276.102 6.568C275.734 6.552 275.406 6.544 275.118 6.544C274.462 6.544 273.838 6.712 273.246 7.048C272.654 7.368 272.134 7.84 271.686 8.464C271.254 9.072 270.91 9.824 270.654 10.72C270.398 11.616 270.286 12.632 270.318 13.768L270.366 13.792C270.558 13.568 270.798 13.352 271.086 13.144C271.374 12.92 271.702 12.728 272.07 12.568C272.438 12.408 272.83 12.288 273.246 12.208C273.678 12.112 274.126 12.072 274.59 12.088C275.166 12.12 275.718 12.24 276.246 12.448C276.79 12.64 277.262 12.928 277.662 13.312C278.078 13.68 278.406 14.144 278.646 14.704C278.902 15.248 279.03 15.888 279.03 16.624C279.03 17.536 278.886 18.352 278.598 19.072C278.326 19.776 277.95 20.384 277.47 20.896C276.99 21.392 276.414 21.768 275.742 22.024C275.086 22.296 274.374 22.432 273.606 22.432C272.758 22.432 271.966 22.296 271.23 22.024C270.51 21.752 269.878 21.336 269.334 20.776C268.79 20.2 268.358 19.48 268.038 18.616C267.718 17.736 267.534 16.696 267.486 15.496C267.438 14.008 267.566 12.656 267.87 11.44C268.174 10.224 268.638 9.184 269.262 8.32C269.886 7.44 270.67 6.768 271.614 6.304C272.558 5.824 273.638 5.584 274.854 5.584C275.126 5.584 275.502 5.608 275.982 5.656C276.462 5.704 277.07 5.848 277.806 6.088L277.518 6.856ZM270.39 16.792C270.39 17.624 270.478 18.344 270.654 18.952C270.83 19.544 271.07 20.032 271.374 20.416C271.678 20.8 272.022 21.088 272.406 21.28C272.79 21.456 273.19 21.544 273.606 21.544C274.63 21.544 275.374 21.16 275.838 20.392C276.318 19.624 276.558 18.536 276.558 17.128C276.558 15.768 276.286 14.776 275.742 14.152C275.214 13.512 274.494 13.192 273.582 13.192C273.294 13.192 272.966 13.256 272.598 13.384C272.23 13.512 271.878 13.72 271.542 14.008C271.222 14.28 270.95 14.648 270.726 15.112C270.502 15.56 270.39 16.12 270.39 16.792Z" fill="white" fill-opacity="0.8"/>
<path d="M24.3468 57V56.064C31.3068 49.704 32.1468 47.88 32.0748 45.168C32.0028 42.408 30.4908 41.544 28.7868 41.616C27.0828 41.688 25.9548 42.792 25.2588 44.064L24.3228 43.536C25.3308 41.856 27.1308 40.632 29.1708 40.56C33.4428 40.392 34.8108 42.72 34.8108 45.24C34.8108 48.048 32.0268 50.208 27.2028 54.816L27.2268 54.864H34.9308V57H24.3468ZM49.9032 49.008C49.9032 54 47.5992 57.288 43.4952 57.288C39.3912 57.288 37.0872 54 37.0872 49.008C37.0872 44.016 39.3912 40.752 43.4952 40.752C47.5992 40.752 49.9032 44.016 49.9032 49.008ZM39.8232 49.008C39.8232 53.856 41.1672 56.448 43.4952 56.448C45.8232 56.448 47.1672 53.856 47.1672 49.008C47.1672 44.16 45.8232 41.544 43.4952 41.544C41.1672 41.544 39.8232 44.16 39.8232 49.008ZM51.8811 57V56.064C58.8411 49.704 59.6811 47.88 59.6091 45.168C59.5371 42.408 58.0251 41.544 56.3211 41.616C54.6171 41.688 53.4891 42.792 52.7931 44.064L51.8571 43.536C52.8651 41.856 54.6651 40.632 56.7051 40.56C60.9771 40.392 62.3451 42.72 62.3451 45.24C62.3451 48.048 59.5611 50.208 54.7371 54.816L54.7611 54.864H62.4651V57H51.8811ZM65.4856 49.104V40.896H74.5096V42.96H66.5416V48.264C68.0536 47.4 69.4696 47.232 70.7176 47.232C73.8616 47.232 75.7336 49.344 75.7336 51.936C75.7336 54.936 73.6456 57.432 69.4696 57.432C68.1736 57.432 66.3976 57.072 64.8616 55.896L65.3896 55.2C66.9736 56.184 68.0536 56.376 69.5176 56.376C71.1256 56.376 72.9736 55.32 72.9736 52.248C72.9736 49.8 71.7016 48.312 69.7816 48.312C68.3656 48.312 67.0936 48.72 66.4936 49.392L65.4856 49.104ZM91.7568 44.616V43.632H97.1328V38.784H99.4848V50.568H97.1328V44.616H91.7568ZM86.3328 49.752H84.3168V39.6H93.1488V40.488H86.6448V48.624H87.1968C90.3168 48.624 93.6288 47.736 94.7328 47.184L94.9248 47.544C92.6928 48.912 88.9728 49.776 86.3328 49.752ZM86.6688 53.376V52.488H99.4848V59.376H97.1328V53.376H86.6688ZM112.044 43.992V43.008H116.22V38.784H118.572V50.76H116.22V43.992H112.044ZM102.108 50.088L101.892 49.536C104.028 48.504 106.644 46.128 106.764 42.216V39.312H109.164V41.952C109.164 42.216 109.14 42.48 109.092 42.744C109.38 44.04 110.076 45.336 110.724 46.176C111.78 47.64 113.508 48.744 114.06 48.96L113.916 49.488C113.028 49.224 111.204 48.216 109.98 47.232C109.428 46.752 108.564 46.056 108.06 45.408C106.428 47.928 103.452 49.632 102.108 50.088ZM106.572 55.488C106.572 53.184 108.708 51.432 112.596 51.432C116.484 51.432 118.62 53.208 118.62 55.488C118.62 57.768 116.484 59.592 112.596 59.592C108.78 59.592 106.572 57.768 106.572 55.488ZM116.292 55.488C116.292 53.208 114.732 52.176 112.596 52.176C110.46 52.176 108.924 53.208 108.924 55.488C108.924 57.744 110.46 58.848 112.596 58.848C114.732 58.848 116.292 57.768 116.292 55.488ZM132.626 44.184V43.2H135.53V39.288H137.882V57.504H135.53V50.352H132.626V49.368H135.53V44.184H132.626ZM126.818 40.176C130.13 40.176 132.122 42.552 132.122 46.824V47.088C132.122 51.36 130.13 53.784 126.818 53.784C123.506 53.784 121.514 51.36 121.514 47.088V46.824C121.514 42.552 123.506 40.176 126.818 40.176ZM126.818 53.088C128.786 53.088 129.722 50.808 129.722 47.112V46.8C129.722 43.104 128.786 40.872 126.818 40.872C124.85 40.872 123.914 43.032 123.914 46.8V47.112C123.914 50.88 124.85 53.088 126.818 53.088ZM153.273 57.504V39.288H155.625V47.064C156.657 46.896 157.785 46.512 158.625 45.768C159.057 46.08 159.273 47.304 159.177 47.808H155.625V57.504H153.273ZM140.673 41.688V40.8H151.185V41.688H147.201V45.168C147.201 45.384 147.177 45.6 147.153 45.816C147.441 47.088 148.089 48.552 148.785 49.608C149.673 51.072 150.897 52.464 151.761 52.92L151.521 53.472C150.369 52.92 149.169 51.912 147.825 50.568C147.345 50.088 146.577 49.224 146.169 48.672C144.657 51.36 141.873 53.448 140.697 53.976L140.433 53.424C142.641 52.008 144.777 48.984 144.897 45.456V41.688H140.673ZM174.275 57.504V47.424H171.731V57.504H169.379V39.288H171.731V46.464H174.275V39.288H176.627V57.504H174.275ZM167.051 41.688H162.539V51.984H162.995C164.483 51.984 166.907 51.36 168.107 50.496L168.323 50.808C167.123 52.176 164.411 53.112 162.467 53.112H160.211V40.8H167.051V41.688ZM178.309 41.688V40.8H183.565V38.088H185.917V40.8H190.789V41.688H178.309ZM192.085 50.976V38.784H194.437V44.352C195.469 44.184 196.597 43.8 197.437 43.056C197.869 43.368 198.085 44.592 197.989 45.096H194.437V50.976H192.085ZM184.717 42.768C187.741 42.768 189.853 44.256 189.853 46.536C189.853 48.816 187.741 50.4 184.717 50.4C181.693 50.4 179.581 48.816 179.581 46.536C179.581 44.256 181.765 42.768 184.717 42.768ZM184.717 49.704C186.421 49.704 187.573 48.504 187.573 46.536C187.573 44.568 186.421 43.464 184.717 43.464C183.013 43.464 181.861 44.568 181.861 46.536C181.861 48.504 183.013 49.704 184.717 49.704ZM181.621 53.544V52.656H194.437V59.376H192.085V53.544H181.621ZM200.655 41.28V40.392H213.567V46.008C213.447 50.136 211.503 51.384 210.279 52.056L210.039 51.672C210.543 51.336 211.215 50.256 211.215 46.392V41.28H200.655ZM198.015 55.488V54.624H202.071V47.112H204.303V54.624H206.271V47.112H208.503V54.624H215.007L215.655 54.528L216.039 55.488H198.015ZM225.161 40.344V39.456H237.401V43.536C237.401 46.176 236.249 47.88 234.689 48.6H239.729L240.377 48.504L240.761 49.464H222.737V48.6H232.361V48.576H233.225C234.401 48.576 235.049 46.8 235.049 44.184V40.344H225.161ZM225.353 58.824V52.152H227.705V57.936H238.433L238.721 58.824H225.353ZM241.02 41.928V41.04H246.396V38.448H248.748V41.04H253.836V41.928H241.02ZM254.7 57.504V39.288H257.052V47.064C258.084 46.896 259.212 46.512 260.052 45.768C260.484 46.08 260.7 47.304 260.604 47.808H257.052V57.504H254.7ZM247.596 42.984C250.764 42.984 252.876 44.328 252.876 46.656C252.876 48.696 251.268 50.016 248.748 50.328V53.496C250.86 53.064 252.78 52.44 254.148 51.624L254.388 52.032C251.1 54.432 246.396 55.296 242.652 55.392H241.5V54.048H242.892C244.068 54.048 245.268 53.976 246.444 53.832V50.328C243.924 50.016 242.316 48.696 242.316 46.656C242.316 44.328 244.428 42.984 247.596 42.984ZM247.596 49.68C249.204 49.68 250.524 48.504 250.524 46.68V46.632C250.524 44.808 249.204 43.68 247.596 43.68C245.988 43.68 244.668 44.736 244.668 46.632V46.68C244.668 48.504 245.988 49.68 247.596 49.68ZM268.886 46.776V45.792H271.718V39.288H274.07V57.504H271.718V46.776H268.886ZM276.014 57.504V39.288H278.366V57.504H276.014ZM260.966 41.688V40.8H270.014V41.688H266.678V44.784C266.678 45 266.678 45.192 266.654 45.408C266.846 48.072 268.526 51.12 270.422 52.68L270.086 53.184C268.646 52.272 266.39 49.8 265.646 48.432C264.326 50.904 262.118 52.968 261.038 53.64L260.678 53.112C262.526 51.672 264.254 48.984 264.374 45.072V41.688H260.966Z" fill="white"/>
</svg>
