<svg width="40" height="40" viewBox="0 0 40 40" fill="none" xmlns="http://www.w3.org/2000/svg">
<g filter="url(#filter0_d_23_1687)">
<rect x="8" y="8" width="24" height="24" rx="6" fill="#B573E8"/>
<path d="M13.3333 15.3695C13.3333 14.429 14.0957 13.6666 15.0362 13.6666H24.9635C25.9041 13.6666 26.6666 14.4291 26.6666 15.3697V15.7896C26.6666 16.127 26.4898 16.4396 26.2006 16.6133C25.838 16.8309 25.4231 16.9458 25.0001 16.9458C24.5772 16.9458 24.1623 16.8309 23.7996 16.6133C23.5128 16.4411 23.1541 16.441 22.8673 16.6133C22.5047 16.8309 22.0897 16.9458 21.6668 16.9458C21.2439 16.9458 20.829 16.8309 20.4663 16.6133C20.1795 16.4411 19.8208 16.441 19.534 16.6133C19.1713 16.8309 18.7564 16.9458 18.3335 16.9458C17.9106 16.9458 17.4956 16.8309 17.133 16.6133C16.846 16.441 16.4873 16.441 16.2003 16.6133C15.8377 16.8308 15.4228 16.9457 15 16.9457C14.5771 16.9457 14.1622 16.8308 13.7996 16.6133C13.5103 16.4396 13.3333 16.1268 13.3333 15.7894V15.3695Z" fill="white" stroke="white" stroke-linecap="round" stroke-linejoin="round"/>
<path d="M15 17.3333V20.3333M25 17.3333V20.3333M16 26.3333H24C25.1046 26.3333 26 25.4378 26 24.3333V22.3333C26 21.2287 25.1046 20.3333 24 20.3333H16C14.8954 20.3333 14 21.2287 14 22.3333V24.3333C14 25.4378 14.8954 26.3333 16 26.3333Z" stroke="white" stroke-linecap="round" stroke-linejoin="round"/>
</g>
<defs>
<filter id="filter0_d_23_1687" x="0" y="0" width="40" height="40" filterUnits="userSpaceOnUse" color-interpolation-filters="sRGB">
<feFlood flood-opacity="0" result="BackgroundImageFix"/>
<feColorMatrix in="SourceAlpha" type="matrix" values="0 0 0 0 0 0 0 0 0 0 0 0 0 0 0 0 0 0 127 0" result="hardAlpha"/>
<feOffset/>
<feGaussianBlur stdDeviation="4"/>
<feComposite in2="hardAlpha" operator="out"/>
<feColorMatrix type="matrix" values="0 0 0 0 1 0 0 0 0 1 0 0 0 0 1 0 0 0 0.5 0"/>
<feBlend mode="normal" in2="BackgroundImageFix" result="effect1_dropShadow_23_1687"/>
<feBlend mode="normal" in="SourceGraphic" in2="effect1_dropShadow_23_1687" result="shape"/>
</filter>
</defs>
</svg>
