<svg width="24" height="33" viewBox="0 0 24 33" fill="none" xmlns="http://www.w3.org/2000/svg">
<path d="M16.207 0.5L12 4.32324L7.79297 0.5H16.207Z" fill="#B573E8" fill-opacity="0.2" stroke="#B573E8"/>
<rect y="9" width="24" height="24" rx="6" fill="#B573E8"/>
<path d="M5.33334 16.3695C5.33334 15.429 6.09575 14.6666 7.03621 14.6666H16.9636C17.9042 14.6666 18.6667 15.4291 18.6667 16.3697V16.7896C18.6667 17.127 18.4898 17.4396 18.2007 17.6133V17.6133C17.838 17.8309 17.4231 17.9458 17.0002 17.9458C16.5773 17.9458 16.1623 17.8309 15.7997 17.6133V17.6133C15.5128 17.4411 15.1541 17.441 14.8673 17.6133V17.6133C14.5047 17.8309 14.0898 17.9458 13.6668 17.9458C13.2439 17.9458 12.829 17.8309 12.4663 17.6133V17.6133C12.1795 17.4411 11.8208 17.441 11.534 17.6133V17.6133C11.1714 17.8309 10.7564 17.9458 10.3335 17.9458C9.9106 17.9458 9.49565 17.8309 9.13301 17.6133V17.6133C8.846 17.441 8.48735 17.441 8.20034 17.6133V17.6133C7.83774 17.8308 7.42285 17.9457 7.00001 17.9457C6.57717 17.9457 6.16228 17.8308 5.79968 17.6133V17.6133C5.51035 17.4396 5.33334 17.1268 5.33334 16.7894V16.3695Z" fill="white" stroke="white" stroke-linecap="round" stroke-linejoin="round"/>
<path d="M7 18.3333V21.3333M17 18.3333V21.3333M8 27.3333H16C17.1046 27.3333 18 26.4378 18 25.3333V23.3333C18 22.2287 17.1046 21.3333 16 21.3333H8C6.89543 21.3333 6 22.2287 6 23.3333V25.3333C6 26.4378 6.89543 27.3333 8 27.3333Z" stroke="white" stroke-linecap="round" stroke-linejoin="round"/>
</svg>
