<svg width="40" height="41" viewBox="0 0 40 41" fill="none" xmlns="http://www.w3.org/2000/svg">
<path d="M24.207 0.5L20 4.32324L15.793 0.5H24.207Z" fill="#B573E8" fill-opacity="0.2" stroke="#B573E8"/>
<g filter="url(#filter0_d_1241_2119)">
<rect x="8" y="9" width="24" height="24" rx="6" fill="#B573E8"/>
<path d="M13.3333 16.3695C13.3333 15.429 14.0957 14.6666 15.0362 14.6666H24.9636C25.9042 14.6666 26.6667 15.4291 26.6667 16.3697V16.7896C26.6667 17.127 26.4898 17.4396 26.2007 17.6133V17.6133C25.838 17.8309 25.4231 17.9458 25.0002 17.9458C24.5773 17.9458 24.1623 17.8309 23.7997 17.6133V17.6133C23.5128 17.4411 23.1541 17.441 22.8673 17.6133V17.6133C22.5047 17.8309 22.0898 17.9458 21.6668 17.9458C21.2439 17.9458 20.829 17.8309 20.4663 17.6133V17.6133C20.1795 17.4411 19.8208 17.441 19.534 17.6133V17.6133C19.1714 17.8309 18.7564 17.9458 18.3335 17.9458C17.9106 17.9458 17.4956 17.8309 17.133 17.6133V17.6133C16.846 17.441 16.4874 17.441 16.2003 17.6133V17.6133C15.8377 17.8308 15.4229 17.9457 15 17.9457C14.5772 17.9457 14.1623 17.8308 13.7997 17.6133V17.6133C13.5104 17.4396 13.3333 17.1268 13.3333 16.7894V16.3695Z" fill="white" stroke="white" stroke-linecap="round" stroke-linejoin="round"/>
<path d="M15 18.3333V21.3333M25 18.3333V21.3333M16 27.3333H24C25.1046 27.3333 26 26.4378 26 25.3333V23.3333C26 22.2287 25.1046 21.3333 24 21.3333H16C14.8954 21.3333 14 22.2287 14 23.3333V25.3333C14 26.4378 14.8954 27.3333 16 27.3333Z" stroke="white" stroke-linecap="round" stroke-linejoin="round"/>
</g>
<defs>
<filter id="filter0_d_1241_2119" x="0" y="1" width="40" height="40" filterUnits="userSpaceOnUse" color-interpolation-filters="sRGB">
<feFlood flood-opacity="0" result="BackgroundImageFix"/>
<feColorMatrix in="SourceAlpha" type="matrix" values="0 0 0 0 0 0 0 0 0 0 0 0 0 0 0 0 0 0 127 0" result="hardAlpha"/>
<feOffset/>
<feGaussianBlur stdDeviation="4"/>
<feComposite in2="hardAlpha" operator="out"/>
<feColorMatrix type="matrix" values="0 0 0 0 1 0 0 0 0 1 0 0 0 0 1 0 0 0 0.5 0"/>
<feBlend mode="normal" in2="BackgroundImageFix" result="effect1_dropShadow_1241_2119"/>
<feBlend mode="normal" in="SourceGraphic" in2="effect1_dropShadow_1241_2119" result="shape"/>
</filter>
</defs>
</svg>
