<svg width="55" height="272" viewBox="0 0 55 272" fill="none" xmlns="http://www.w3.org/2000/svg">
<rect x="0.5" y="0.5" width="54" height="23" rx="4.5" fill="white"/>
<rect x="0.5" y="0.5" width="54" height="23" rx="4.5" stroke="#7385E8"/>
<path d="M15.9148 6.44922V9.49609H17.3914V10.5859H15.9148V14.0898H14.5906V6.44922H15.9148ZM13.032 7.25781C13.032 10.0703 11.2039 12.0742 8.06328 12.9883L7.52422 11.957C9.94414 11.2598 11.3855 9.94141 11.6141 8.32422H7.96953V7.25781H13.032ZM16.3133 15.7773V16.832H9.10625V13.3047H10.4305V15.7773H16.3133ZM21.5797 7.96094C21.5797 9.35547 22.4469 10.668 24.1344 11.1953L23.4898 12.2266C22.2652 11.8164 21.3922 11.0137 20.9234 9.97656C20.4371 11.0898 19.5523 11.9746 18.2984 12.4023L17.6422 11.3828C19.3531 10.7969 20.232 9.40234 20.232 7.96094V6.95312H21.5797V7.96094ZM26.4547 13.2695V17.043H25.1422V14.3125H19.2242V13.2695H26.4547ZM26.4547 6.44922V12.7891H25.1422V6.44922H26.4547ZM33.0922 7.48047V14.418H28.0766V7.48047H33.0922ZM29.3539 8.5V13.375H31.7914V8.5H29.3539ZM35.9984 6.44922V10.5156H37.6273V11.6172H35.9984V17.043H34.6977V6.44922H35.9984ZM42.5891 6.61328C45.0031 6.61328 46.3977 7.25781 46.4094 8.42969C46.3977 9.61328 45.0031 10.2461 42.5891 10.2578C40.175 10.2461 38.7688 9.61328 38.7688 8.42969C38.7688 7.25781 40.175 6.61328 42.5891 6.61328ZM42.5891 7.57422C40.9719 7.57422 40.1281 7.87891 40.1398 8.42969C40.1281 9.01562 40.9719 9.28516 42.5891 9.28516C44.2297 9.28516 45.0617 9.01562 45.0617 8.42969C45.0617 7.87891 44.2297 7.57422 42.5891 7.57422ZM47.4289 10.8203V11.8633H37.7727V10.8203H47.4289ZM46.2219 12.5781V15.168H40.1984V15.9531H46.5148V16.9492H38.9211V14.2422H44.9445V13.5391H38.9094V12.5781H46.2219Z" fill="#333333"/>
<path d="M31.707 23.5L27.5 27.3232L23.293 23.5H31.707Z" fill="#7385E8" fill-opacity="0.2" stroke="#7385E8"/>
<g filter="url(#filter0_d_733_2226)">
<rect x="15.5" y="32" width="24" height="232" rx="4" fill="#7385E8" shape-rendering="crispEdges"/>
<path d="M21.5 141.333V146C21.5 146.733 22.1 147.333 22.8333 147.333H25.5C25.8536 147.333 26.1928 147.193 26.4428 146.943C26.6929 146.693 26.8333 146.354 26.8333 146V141.333M24.1667 141.333V154.667M33.5 150V141.333C32.6159 141.333 31.7681 141.684 31.143 142.31C30.5179 142.935 30.1667 143.783 30.1667 144.667V148.667C30.1667 149.4 30.7667 150 31.5 150H33.5ZM33.5 150V154.667" stroke="white" stroke-linecap="round" stroke-linejoin="round"/>
</g>
<defs>
<filter id="filter0_d_733_2226" x="7.5" y="24" width="40" height="248" filterUnits="userSpaceOnUse" color-interpolation-filters="sRGB">
<feFlood flood-opacity="0" result="BackgroundImageFix"/>
<feColorMatrix in="SourceAlpha" type="matrix" values="0 0 0 0 0 0 0 0 0 0 0 0 0 0 0 0 0 0 127 0" result="hardAlpha"/>
<feOffset/>
<feGaussianBlur stdDeviation="4"/>
<feComposite in2="hardAlpha" operator="out"/>
<feColorMatrix type="matrix" values="0 0 0 0 1 0 0 0 0 1 0 0 0 0 1 0 0 0 0.5 0"/>
<feBlend mode="normal" in2="BackgroundImageFix" result="effect1_dropShadow_733_2226"/>
<feBlend mode="normal" in="SourceGraphic" in2="effect1_dropShadow_733_2226" result="shape"/>
</filter>
</defs>
</svg>
