<svg width="55" height="264" viewBox="0 0 55 264" fill="none" xmlns="http://www.w3.org/2000/svg">
<rect x="0.5" y="0.5" width="54" height="23" rx="4.5" fill="white"/>
<rect x="0.5" y="0.5" width="54" height="23" rx="4.5" stroke="#7385E8"/>
<path d="M17.2391 14.6875V15.7539H7.55938V14.6875H9.79766V12.0039C8.95391 11.5234 8.44414 10.7676 8.45 9.82422C8.43828 8.13672 10.1023 7.02344 12.3758 7.02344C14.6609 7.02344 16.325 8.13672 16.325 9.82422C16.325 10.75 15.8328 11.4941 15.0125 11.9805V14.6875H17.2391ZM12.3758 8.05469C10.7938 8.05469 9.71563 8.72266 9.72734 9.82422C9.71563 10.9141 10.7938 11.5938 12.3758 11.5938C13.9578 11.5938 15.0477 10.9141 15.0477 9.82422C15.0477 8.72266 13.9578 8.05469 12.3758 8.05469ZM11.0867 14.6875H13.6883V12.4727C13.284 12.5664 12.8445 12.6133 12.3758 12.6133C11.9188 12.6133 11.4852 12.5664 11.0867 12.4844V14.6875ZM26.4547 6.44922V17.0547H25.1656V6.44922H26.4547ZM23.1969 7.375V11.3477H19.5523V13.4805C21.2223 13.4688 22.6637 13.3867 24.3102 13.1055L24.4273 14.1719C22.6227 14.4883 21.0406 14.5469 19.1422 14.5469H18.2164V10.3164H21.8727V8.42969H18.2047V7.375H23.1969ZM33.0922 7.48047V14.418H28.0766V7.48047H33.0922ZM29.3539 8.5V13.375H31.7914V8.5H29.3539ZM35.9984 6.44922V10.5156H37.6273V11.6172H35.9984V17.043H34.6977V6.44922H35.9984ZM42.5891 6.61328C45.0031 6.61328 46.3977 7.25781 46.4094 8.42969C46.3977 9.61328 45.0031 10.2461 42.5891 10.2578C40.175 10.2461 38.7688 9.61328 38.7688 8.42969C38.7688 7.25781 40.175 6.61328 42.5891 6.61328ZM42.5891 7.57422C40.9719 7.57422 40.1281 7.87891 40.1398 8.42969C40.1281 9.01562 40.9719 9.28516 42.5891 9.28516C44.2297 9.28516 45.0617 9.01562 45.0617 8.42969C45.0617 7.87891 44.2297 7.57422 42.5891 7.57422ZM47.4289 10.8203V11.8633H37.7727V10.8203H47.4289ZM46.2219 12.5781V15.168H40.1984V15.9531H46.5148V16.9492H38.9211V14.2422H44.9445V13.5391H38.9094V12.5781H46.2219Z" fill="#333333"/>
<path d="M31.707 23.5L27.5 27.3232L23.293 23.5H31.707Z" fill="#7385E8" fill-opacity="0.2" stroke="#7385E8"/>
<rect x="15.5" y="32" width="24" height="232" rx="4" fill="#7385E8"/>
<path d="M21.5 141.333V146C21.5 146.733 22.1 147.333 22.8333 147.333H25.5C25.8536 147.333 26.1928 147.193 26.4428 146.943C26.6929 146.693 26.8333 146.354 26.8333 146V141.333M24.1667 141.333V154.667M33.5 150V141.333C32.6159 141.333 31.7681 141.684 31.143 142.31C30.5179 142.935 30.1667 143.783 30.1667 144.667V148.667C30.1667 149.4 30.7667 150 31.5 150H33.5ZM33.5 150V154.667" stroke="white" stroke-linecap="round" stroke-linejoin="round"/>
</svg>
