<svg width="40" height="41" viewBox="0 0 40 41" fill="none" xmlns="http://www.w3.org/2000/svg">
<path d="M24.207 0.5L20 4.32324L15.793 0.5H24.207Z" fill="#E87375" fill-opacity="0.2" stroke="#E87375"/>
<g filter="url(#filter0_d_1241_2109)">
<rect x="8" y="9" width="24" height="24" rx="6" fill="#E87375"/>
<path d="M19.7228 15.172C19.7484 15.1204 19.7879 15.0769 19.8368 15.0465C19.8858 15.0161 19.9423 15 19.9999 15C20.0575 15 20.114 15.0161 20.163 15.0465C20.2119 15.0769 20.2514 15.1204 20.277 15.172L21.6245 17.9014C21.7133 18.0811 21.8443 18.2365 22.0064 18.3544C22.1684 18.4722 22.3567 18.549 22.5549 18.5781L25.5684 19.0191C25.6255 19.0274 25.6792 19.0515 25.7233 19.0886C25.7674 19.1258 25.8002 19.1746 25.8181 19.2295C25.8359 19.2843 25.8381 19.3431 25.8243 19.3991C25.8104 19.4551 25.7812 19.5062 25.7399 19.5464L23.5606 21.6686C23.4169 21.8087 23.3093 21.9816 23.2472 22.1724C23.1851 22.3632 23.1704 22.5663 23.2042 22.7641L23.7187 25.7624C23.7287 25.8195 23.7226 25.8783 23.7009 25.932C23.6792 25.9857 23.6428 26.0323 23.5959 26.0664C23.549 26.1004 23.4935 26.1206 23.4357 26.1246C23.3779 26.1286 23.3201 26.1163 23.2689 26.0891L20.5751 24.6728C20.3976 24.5796 20.2001 24.5309 19.9996 24.5309C19.7991 24.5309 19.6017 24.5796 19.4242 24.6728L16.7309 26.0891C16.6798 26.1162 16.6221 26.1284 16.5643 26.1243C16.5066 26.1202 16.4512 26.0999 16.4044 26.0659C16.3576 26.0319 16.3213 25.9854 16.2996 25.9317C16.2779 25.8781 16.2717 25.8194 16.2817 25.7624L16.7957 22.7647C16.8296 22.5668 16.8149 22.3636 16.7528 22.1726C16.6907 21.9817 16.5831 21.8087 16.4392 21.6686L14.2599 19.547C14.2183 19.5068 14.1887 19.4557 14.1747 19.3995C14.1607 19.3433 14.1627 19.2843 14.1806 19.2292C14.1985 19.1741 14.2315 19.1252 14.2758 19.0879C14.3202 19.0507 14.3741 19.0266 14.4314 19.0185L17.4443 18.5781C17.6428 18.5492 17.8313 18.4726 17.9936 18.3547C18.1559 18.2368 18.2871 18.0813 18.3759 17.9014L19.7228 15.172Z" fill="white" stroke="white" stroke-linecap="round" stroke-linejoin="round"/>
</g>
<defs>
<filter id="filter0_d_1241_2109" x="0" y="1" width="40" height="40" filterUnits="userSpaceOnUse" color-interpolation-filters="sRGB">
<feFlood flood-opacity="0" result="BackgroundImageFix"/>
<feColorMatrix in="SourceAlpha" type="matrix" values="0 0 0 0 0 0 0 0 0 0 0 0 0 0 0 0 0 0 127 0" result="hardAlpha"/>
<feOffset/>
<feGaussianBlur stdDeviation="4"/>
<feComposite in2="hardAlpha" operator="out"/>
<feColorMatrix type="matrix" values="0 0 0 0 1 0 0 0 0 1 0 0 0 0 1 0 0 0 0.5 0"/>
<feBlend mode="normal" in2="BackgroundImageFix" result="effect1_dropShadow_1241_2109"/>
<feBlend mode="normal" in="SourceGraphic" in2="effect1_dropShadow_1241_2109" result="shape"/>
</filter>
</defs>
</svg>
