<svg width="40" height="40" viewBox="0 0 40 40" fill="none" xmlns="http://www.w3.org/2000/svg">
<g filter="url(#filter0_d_711_2128)">
<rect x="8" y="8" width="24" height="24" rx="6" fill="#E87375"/>
<path d="M19.7228 14.172C19.7484 14.1204 19.7879 14.0769 19.8368 14.0465C19.8858 14.0161 19.9423 14 19.9999 14C20.0575 14 20.114 14.0161 20.163 14.0465C20.2119 14.0769 20.2514 14.1204 20.277 14.172L21.6245 16.9014C21.7133 17.0811 21.8443 17.2365 22.0064 17.3544C22.1684 17.4722 22.3567 17.549 22.5549 17.5781L25.5684 18.0191C25.6255 18.0274 25.6792 18.0515 25.7233 18.0886C25.7674 18.1258 25.8002 18.1746 25.8181 18.2295C25.8359 18.2843 25.8381 18.3431 25.8243 18.3991C25.8104 18.4551 25.7812 18.5062 25.7399 18.5464L23.5606 20.6686C23.4169 20.8087 23.3093 20.9816 23.2472 21.1724C23.1851 21.3632 23.1704 21.5663 23.2042 21.7641L23.7187 24.7624C23.7287 24.8195 23.7226 24.8783 23.7009 24.932C23.6792 24.9857 23.6428 25.0323 23.5959 25.0664C23.549 25.1004 23.4935 25.1206 23.4357 25.1246C23.3779 25.1286 23.3201 25.1163 23.2689 25.0891L20.5751 23.6728C20.3976 23.5796 20.2001 23.5309 19.9996 23.5309C19.7991 23.5309 19.6017 23.5796 19.4242 23.6728L16.7309 25.0891C16.6798 25.1162 16.6221 25.1284 16.5643 25.1243C16.5066 25.1202 16.4512 25.0999 16.4044 25.0659C16.3576 25.0319 16.3213 24.9854 16.2996 24.9317C16.2779 24.8781 16.2717 24.8194 16.2817 24.7624L16.7957 21.7647C16.8296 21.5668 16.8149 21.3636 16.7528 21.1726C16.6907 20.9817 16.5831 20.8087 16.4392 20.6686L14.2599 18.547C14.2183 18.5068 14.1887 18.4557 14.1747 18.3995C14.1607 18.3433 14.1627 18.2843 14.1806 18.2292C14.1985 18.1741 14.2315 18.1252 14.2758 18.0879C14.3202 18.0507 14.3741 18.0266 14.4314 18.0185L17.4443 17.5781C17.6428 17.5492 17.8313 17.4726 17.9936 17.3547C18.1559 17.2368 18.2871 17.0813 18.3759 16.9014L19.7228 14.172Z" fill="white" stroke="white" stroke-linecap="round" stroke-linejoin="round"/>
</g>
<defs>
<filter id="filter0_d_711_2128" x="0" y="0" width="40" height="40" filterUnits="userSpaceOnUse" color-interpolation-filters="sRGB">
<feFlood flood-opacity="0" result="BackgroundImageFix"/>
<feColorMatrix in="SourceAlpha" type="matrix" values="0 0 0 0 0 0 0 0 0 0 0 0 0 0 0 0 0 0 127 0" result="hardAlpha"/>
<feOffset/>
<feGaussianBlur stdDeviation="4"/>
<feComposite in2="hardAlpha" operator="out"/>
<feColorMatrix type="matrix" values="0 0 0 0 1 0 0 0 0 1 0 0 0 0 1 0 0 0 0.5 0"/>
<feBlend mode="normal" in2="BackgroundImageFix" result="effect1_dropShadow_711_2128"/>
<feBlend mode="normal" in="SourceGraphic" in2="effect1_dropShadow_711_2128" result="shape"/>
</filter>
</defs>
</svg>
