<svg width="24" height="33" viewBox="0 0 24 33" fill="none" xmlns="http://www.w3.org/2000/svg">
<path d="M16.207 0.5L12 4.32324L7.79297 0.5H16.207Z" fill="#E87375" fill-opacity="0.2" stroke="#E87375"/>
<rect y="9" width="24" height="24" rx="6" fill="#E87375"/>
<path d="M11.7228 15.172C11.7484 15.1204 11.7879 15.0769 11.8368 15.0465C11.8858 15.0161 11.9423 15 11.9999 15C12.0575 15 12.114 15.0161 12.163 15.0465C12.2119 15.0769 12.2514 15.1204 12.277 15.172L13.6245 17.9014C13.7133 18.0811 13.8443 18.2365 14.0064 18.3544C14.1684 18.4722 14.3567 18.549 14.5549 18.5781L17.5684 19.0191C17.6255 19.0274 17.6792 19.0515 17.7233 19.0886C17.7674 19.1258 17.8002 19.1746 17.8181 19.2295C17.8359 19.2843 17.8381 19.3431 17.8243 19.3991C17.8104 19.4551 17.7812 19.5062 17.7399 19.5464L15.5606 21.6686C15.4169 21.8087 15.3093 21.9816 15.2472 22.1724C15.1851 22.3632 15.1704 22.5663 15.2042 22.7641L15.7187 25.7624C15.7287 25.8195 15.7226 25.8783 15.7009 25.932C15.6792 25.9857 15.6428 26.0323 15.5959 26.0664C15.549 26.1004 15.4935 26.1206 15.4357 26.1246C15.3779 26.1286 15.3201 26.1163 15.2689 26.0891L12.5751 24.6728C12.3976 24.5796 12.2001 24.5309 11.9996 24.5309C11.7991 24.5309 11.6017 24.5796 11.4242 24.6728L8.73091 26.0891C8.67977 26.1162 8.62206 26.1284 8.56434 26.1243C8.50662 26.1202 8.45121 26.0999 8.40442 26.0659C8.35762 26.0319 8.32131 25.9854 8.29963 25.9317C8.27794 25.8781 8.27174 25.8194 8.28174 25.7624L8.79566 22.7647C8.82961 22.5668 8.8149 22.3636 8.75281 22.1726C8.69071 21.9817 8.5831 21.8087 8.43924 21.6686L6.25991 19.547C6.21826 19.5068 6.18874 19.4557 6.17472 19.3995C6.1607 19.3433 6.16275 19.2843 6.18062 19.2292C6.1985 19.1741 6.23148 19.1252 6.27582 19.0879C6.32016 19.0507 6.37407 19.0266 6.43141 19.0185L9.44433 18.5781C9.64281 18.5492 9.8313 18.4726 9.99358 18.3547C10.1559 18.2368 10.2871 18.0813 10.3759 17.9014L11.7228 15.172Z" fill="white" stroke="white" stroke-linecap="round" stroke-linejoin="round"/>
</svg>
