<svg width="16" height="16" viewBox="0 0 16 16" fill="none" xmlns="http://www.w3.org/2000/svg">
<path d="M1.33334 3.36962C1.33334 2.42915 2.09575 1.66675 3.03621 1.66675H12.9636C13.9042 1.66675 14.6667 2.42925 14.6667 3.36985V3.78976C14.6667 4.12708 14.4898 4.43969 14.2007 4.61341C13.838 4.831 13.4231 4.94594 13.0002 4.94594C12.5773 4.94594 12.1623 4.831 11.7997 4.61341C11.5128 4.44119 11.1541 4.4411 10.8673 4.61341C10.5047 4.831 10.0898 4.94594 9.66684 4.94594C9.24394 4.94594 8.82898 4.831 8.46634 4.61341C8.1795 4.44119 7.8208 4.4411 7.53401 4.61341C7.17137 4.831 6.75642 4.94594 6.33351 4.94594C5.9106 4.94594 5.49565 4.831 5.13301 4.61341C4.846 4.44109 4.48735 4.44109 4.20034 4.61341C3.83774 4.83094 3.42285 4.94584 3.00001 4.94584C2.57717 4.94584 2.16228 4.83094 1.79968 4.61341C1.51035 4.4397 1.33334 4.12695 1.33334 3.78948V3.36962Z" fill="white" stroke="white" stroke-linecap="round" stroke-linejoin="round"/>
<path d="M3 5.3335V8.3335M13 5.3335V8.3335M4 14.3335H12C13.1046 14.3335 14 13.4381 14 12.3335V10.3335C14 9.22893 13.1046 8.3335 12 8.3335H4C2.89543 8.3335 2 9.22893 2 10.3335V12.3335C2 13.4381 2.89543 14.3335 4 14.3335Z" stroke="white" stroke-linecap="round" stroke-linejoin="round"/>
</svg>
