<svg width="676" height="852" viewBox="0 0 676 852" fill="none" xmlns="http://www.w3.org/2000/svg">
<rect width="676" height="852" fill="#F4EEF5"/>
<rect x="352" y="344" width="200" height="224" fill="white" fill-opacity="0.5" stroke="#C29CC8" stroke-linejoin="round"/>
<rect x="190" y="344" width="97" height="250" fill="white" fill-opacity="0.5" stroke="#C29CC8" stroke-linejoin="round"/>
<rect x="280" y="658" width="89" height="25" fill="white" fill-opacity="0.5" stroke="#C29CC8" stroke-linejoin="round"/>
<rect x="143" y="170" width="191" height="132" fill="white" fill-opacity="0.5" stroke="#C29CC8" stroke-linejoin="round"/>
<rect x="352" y="170" width="100" height="132" fill="white" fill-opacity="0.5" stroke="#C29CC8" stroke-linejoin="round"/>
<rect x="527" y="404" width="25" height="105" fill="white" stroke="#C29CC8" stroke-linejoin="round"/>
<rect x="484" y="470" width="43" height="39" fill="white" stroke="#C29CC8" stroke-linejoin="round"/>
<rect x="484" y="404" width="43" height="66" fill="white" stroke="#C29CC8" stroke-linejoin="round"/>
<path d="M448.62 450.449V461.055H447.331V455.336H445.339V454.281H447.331V450.449H448.62ZM445.175 451.363V452.43H441.53V454.328H444.753V455.359H441.53V457.539C443.142 457.533 444.349 457.48 445.714 457.258L445.843 458.312C444.296 458.547 442.948 458.605 441.05 458.617H440.218V451.363H445.175Z" fill="#C29CC8"/>
<path d="M438.162 451.059V451.938C438.162 452.828 438.162 453.854 437.928 455.195H439.346V456.262H429.666V455.195H436.604C436.844 453.918 436.861 452.969 436.861 452.113H430.861V451.059H438.162ZM438.467 459.766V460.82H430.92V457.27H432.209V459.766H438.467Z" fill="#C29CC8"/>
<path d="M422.536 451.047C423.392 451.047 424.13 451.363 424.634 451.891H427.165V450.449H428.466V456.684H427.165V455.336H424.634C424.13 455.863 423.386 456.174 422.536 456.168C420.943 456.18 419.736 455.102 419.736 453.613C419.736 452.113 420.943 451.047 422.536 451.047ZM422.536 452.16C421.622 452.16 420.978 452.723 420.978 453.613C420.978 454.48 421.622 455.066 422.536 455.066C423.415 455.066 424.06 454.48 424.072 453.613C424.06 452.723 423.415 452.16 422.536 452.16ZM424.88 456.906C427.107 456.906 428.501 457.668 428.501 458.969C428.501 460.27 427.107 461.031 424.88 461.031C422.665 461.031 421.271 460.27 421.282 458.969C421.271 457.668 422.665 456.906 424.88 456.906ZM424.88 457.902C423.404 457.902 422.548 458.277 422.56 458.969C422.548 459.637 423.404 460.012 424.88 460.012C426.38 460.012 427.224 459.637 427.224 458.969C427.224 458.277 426.38 457.902 424.88 457.902ZM425.22 452.934C425.279 453.15 425.314 453.373 425.314 453.613C425.314 453.848 425.279 454.07 425.232 454.281H427.165V452.934H425.22Z" fill="#C29CC8"/>
<path d="M252.57 467.324C252.558 468.719 253.437 470.043 255.101 470.582L254.421 471.613C253.243 471.215 252.411 470.418 251.948 469.398C251.474 470.523 250.601 471.402 249.37 471.836L248.644 470.805C250.39 470.242 251.257 468.812 251.257 467.312V466.105H252.57V467.324ZM257.128 465.449V468.578H258.605V469.68H257.128V473.23H255.827V465.449H257.128ZM257.55 474.777V475.832H250.343V472.469H251.679V474.777H257.55Z" fill="#C29CC8"/>
<path d="M248.369 470.523V471.566H238.701V470.523H242.897V469.516H239.885V465.93H247.198V466.949H241.186V468.484H247.256V469.516H244.174V470.523H248.369ZM243.518 472.176C245.803 472.176 247.174 472.867 247.186 474.109C247.174 475.34 245.803 476.043 243.518 476.043C241.209 476.043 239.826 475.34 239.826 474.109C239.826 472.867 241.209 472.176 243.518 472.176ZM243.518 473.172C241.971 473.172 241.139 473.5 241.151 474.109C241.139 474.719 241.971 475.035 243.518 475.035C245.03 475.035 245.873 474.719 245.885 474.109C245.873 473.5 245.03 473.172 243.518 473.172Z" fill="#C29CC8"/>
<path d="M238.287 471.355V472.41H234.08V476.031H232.791V472.41H228.63V471.355H238.287ZM237.396 466.047V467.078H234.22C234.296 468.238 235.691 469.352 237.783 469.621L237.314 470.641C235.509 470.389 234.103 469.562 233.458 468.414C232.814 469.562 231.408 470.389 229.626 470.641L229.134 469.621C231.214 469.352 232.609 468.238 232.708 467.078H229.521V466.047H237.396Z" fill="#C29CC8"/>
<path d="M224.208 466.328V471.367H219.098V466.328H224.208ZM220.387 467.371V470.324H222.919V467.371H220.387ZM227.384 465.461V473.02H226.071V465.461H227.384ZM227.677 474.707V475.762H220.376V472.305H221.688V474.707H227.677Z" fill="#C29CC8"/>
<path d="M334.369 671.746V672.789H330.28V674.734H328.99V672.789H324.69V671.746H334.369ZM333.127 666.93V670.762H325.92V666.93H333.127ZM327.186 667.949V669.742H331.838V667.949H327.186ZM333.303 675.777V676.832H325.862V673.762H327.162V675.777H333.303Z" fill="#C29CC8"/>
<path d="M323.501 666.449V672.742H322.201V670.152H320.396V669.086H322.201V666.449H323.501ZM319.916 673.012C322.166 673.012 323.537 673.75 323.537 675.027C323.537 676.305 322.166 677.043 319.916 677.043C317.677 677.043 316.306 676.305 316.318 675.027C316.306 673.75 317.677 673.012 319.916 673.012ZM319.916 674.008C318.439 674.008 317.607 674.359 317.607 675.027C317.607 675.684 318.439 676.035 319.916 676.035C321.392 676.035 322.236 675.684 322.236 675.027C322.236 674.359 321.392 674.008 319.916 674.008ZM318.521 668.266C318.521 669.555 319.376 670.855 321.017 671.406L320.361 672.438C319.183 672.039 318.345 671.23 317.888 670.234C317.419 671.365 316.535 672.268 315.275 672.719L314.595 671.688C316.294 671.102 317.197 669.672 317.197 668.277V668.195H314.994V667.141H320.712V668.195H318.521V668.266Z" fill="#C29CC8"/>
<path d="M254.691 231.234V231.867C254.679 232.594 254.679 233.637 254.433 234.984L253.144 234.867C253.349 233.771 253.39 232.963 253.413 232.312H249.288V231.234H254.691ZM252.019 233.648V235.758C253.115 235.717 254.24 235.635 255.265 235.488L255.335 236.426C253.132 236.824 250.636 236.859 248.773 236.871L248.656 235.828C249.282 235.822 249.986 235.816 250.73 235.805V233.648H252.019ZM257.222 230.449V233.754H258.593V234.844H257.222V238.383H255.886V230.449H257.222ZM257.562 239.777V240.832H250.238V237.68H251.55V239.777H257.562Z" fill="#C29CC8"/>
<path d="M247.526 230.449V241.043H246.225V230.449H247.526ZM238.748 238.102C239.592 238.096 240.547 238.096 241.549 238.066V237.094C240.354 236.906 239.58 236.174 239.58 235.172C239.58 233.977 240.635 233.18 242.182 233.18C243.74 233.18 244.819 233.977 244.819 235.172C244.819 236.168 244.039 236.895 242.85 237.082V238.02C243.781 237.979 244.719 237.902 245.604 237.785L245.698 238.758C243.365 239.156 240.846 239.18 238.936 239.18L238.748 238.102ZM245.416 231.668V232.699H238.971V231.668H241.549V230.484H242.85V231.668H245.416ZM242.182 234.176C241.385 234.188 240.811 234.551 240.823 235.172C240.811 235.781 241.385 236.145 242.182 236.133C243.014 236.145 243.565 235.781 243.565 235.172C243.565 234.551 243.014 234.188 242.182 234.176Z" fill="#C29CC8"/>
<path d="M231.935 232.418C231.935 233.566 232.603 234.715 233.998 235.242L233.306 236.238C232.363 235.875 231.707 235.201 231.326 234.375C230.939 235.324 230.248 236.133 229.24 236.555L228.537 235.559C229.99 234.914 230.669 233.59 230.681 232.418V231.105H231.935V232.418ZM237.689 230.461V236.953H236.447V234.199H235.392V236.625H234.173V230.66H235.392V233.133H236.447V230.461H237.689ZM234.115 237.129C236.33 237.129 237.736 237.855 237.748 239.074C237.736 240.293 236.33 241.031 234.115 241.031C231.876 241.031 230.482 240.293 230.482 239.074C230.482 237.855 231.876 237.129 234.115 237.129ZM234.115 238.113C232.65 238.113 231.783 238.453 231.783 239.074C231.783 239.707 232.65 240.035 234.115 240.035C235.568 240.035 236.435 239.707 236.435 239.074C236.435 238.453 235.568 238.113 234.115 238.113Z" fill="#C29CC8"/>
<path d="M224.852 231.469V232.5H218.571V231.469H221.067V230.402H222.368V231.469H224.852ZM221.712 232.91C223.247 232.91 224.29 233.684 224.302 234.844C224.29 236.004 223.247 236.777 221.712 236.777C220.177 236.777 219.11 236.004 219.11 234.844C219.11 233.684 220.177 232.91 221.712 232.91ZM221.712 233.895C220.903 233.895 220.376 234.246 220.376 234.844C220.376 235.441 220.903 235.781 221.712 235.77C222.52 235.781 223.059 235.441 223.059 234.844C223.059 234.246 222.52 233.895 221.712 233.895ZM226.915 230.449V233.262H228.391V234.328H226.915V237.082H225.614V230.449H226.915ZM226.915 237.574V241.043H225.614V238.617H219.86V237.574H226.915Z" fill="#C29CC8"/>
<path d="M425.655 230.449V241.055H424.366V235.336H422.374V234.281H424.366V230.449H425.655ZM422.21 231.363V232.43H418.565V234.328H421.788V235.359H418.565V237.539C420.177 237.533 421.384 237.48 422.749 237.258L422.878 238.312C421.331 238.547 419.983 238.605 418.085 238.617H417.253V231.363H422.21Z" fill="#C29CC8"/>
<path d="M415.198 231.059V231.938C415.198 232.828 415.198 233.854 414.963 235.195H416.381V236.262H406.701V235.195H413.639C413.879 233.918 413.897 232.969 413.897 232.113H407.897V231.059H415.198ZM415.502 239.766V240.82H407.955V237.27H409.244V239.766H415.502Z" fill="#C29CC8"/>
<path d="M399.572 231.047C400.427 231.047 401.166 231.363 401.669 231.891H404.201V230.449H405.501V236.684H404.201V235.336H401.669C401.166 235.863 400.421 236.174 399.572 236.168C397.978 236.18 396.771 235.102 396.771 233.613C396.771 232.113 397.978 231.047 399.572 231.047ZM399.572 232.16C398.658 232.16 398.013 232.723 398.013 233.613C398.013 234.48 398.658 235.066 399.572 235.066C400.451 235.066 401.095 234.48 401.107 233.613C401.095 232.723 400.451 232.16 399.572 232.16ZM401.916 236.906C404.142 236.906 405.537 237.668 405.537 238.969C405.537 240.27 404.142 241.031 401.916 241.031C399.701 241.031 398.306 240.27 398.318 238.969C398.306 237.668 399.701 236.906 401.916 236.906ZM401.916 237.902C400.439 237.902 399.583 238.277 399.595 238.969C399.583 239.637 400.439 240.012 401.916 240.012C403.416 240.012 404.259 239.637 404.259 238.969C404.259 238.277 403.416 237.902 401.916 237.902ZM402.255 232.934C402.314 233.15 402.349 233.373 402.349 233.613C402.349 233.848 402.314 234.07 402.267 234.281H404.201V232.934H402.255Z" fill="#C29CC8"/>
<path d="M396.239 238.676V239.73H386.559V238.676H390.708V236.227H391.997V238.676H396.239ZM392.032 231.867C392.032 233.473 393.637 235.055 395.864 235.406L395.302 236.484C393.509 236.145 392.044 235.119 391.341 233.73C390.637 235.113 389.184 236.156 387.403 236.484L386.841 235.406C389.055 235.055 390.637 233.461 390.649 231.867V231.094H392.032V231.867Z" fill="#C29CC8"/>
<path d="M519.526 491.93V492.973H516.456C516.567 493.992 517.868 494.953 519.913 495.188L519.421 496.23C517.522 495.984 516.122 495.141 515.554 493.992C514.985 495.141 513.597 495.984 511.698 496.23L511.218 495.188C513.263 494.953 514.54 493.98 514.663 492.973H511.616V491.93H519.526ZM519.304 500.777V501.832H511.933V498.809H513.233V500.777H519.304ZM520.394 497.027V498.094H510.737V497.027H514.909V495.469H516.198V497.027H520.394Z" fill="#C29CC8"/>
<path d="M509.49 491.449V502.055H508.201V491.449H509.49ZM506.232 492.375V496.348H502.588V498.48C504.258 498.469 505.699 498.387 507.346 498.105L507.463 499.172C505.658 499.488 504.076 499.547 502.178 499.547H501.252V495.316H504.908V493.43H501.24V492.375H506.232Z" fill="#C29CC8"/>
<path d="M500.275 499.676V500.766H490.595V499.676H500.275ZM499.431 492.434V493.477H497.884V496.852H499.396V497.883H491.427V496.852H492.915V493.477H491.392V492.434H499.431ZM494.216 496.852H496.595V493.477H494.216V496.852Z" fill="#C29CC8"/>
<path d="M513.632 478.223C515.067 478.223 516.128 479.418 516.315 481.352H518.331V477.449H519.62V488.055H518.331V482.406H516.327C516.187 484.451 515.108 485.711 513.632 485.711C512.038 485.711 510.913 484.27 510.913 481.961C510.913 479.676 512.038 478.223 513.632 478.223ZM513.632 479.395C512.753 479.395 512.155 480.344 512.167 481.961C512.155 483.59 512.753 484.539 513.632 484.539C514.511 484.539 515.097 483.59 515.108 481.961C515.097 480.344 514.511 479.395 513.632 479.395Z" fill="#C29CC8"/>
<path d="M509.49 477.449V488.055H508.201V477.449H509.49ZM506.232 478.375V482.348H502.588V484.48C504.258 484.469 505.699 484.387 507.346 484.105L507.463 485.172C505.658 485.488 504.076 485.547 502.178 485.547H501.252V481.316H504.908V479.43H501.24V478.375H506.232Z" fill="#C29CC8"/>
<path d="M492.154 478.422V480.871H493.876V478.422H495.083V485.477H490.923V478.422H492.154ZM492.154 484.422H493.876V481.902H492.154V484.422ZM499.736 477.449V488.043H498.482V482.617H497.357V487.527H496.126V477.637H497.357V481.539H498.482V477.449H499.736Z" fill="#C29CC8"/>
<path d="M548.819 450.449V461.043H547.576V455.641H546.381V460.504H545.186V450.648H546.381V454.598H547.576V450.449H548.819ZM543.99 451.703V452.758H541.342V457.469C542.496 457.457 543.446 457.398 544.518 457.199L544.612 458.266C543.334 458.523 542.221 458.559 540.744 458.57H540.03V451.703H543.99Z" fill="#C29CC8"/>
<path d="M539.298 456.449V457.504H535.08V461.031H533.791V457.504H529.619V456.449H539.298ZM538.115 450.988V455.207H530.802V450.988H538.115ZM532.08 452.031V454.188H536.814V452.031H532.08Z" fill="#C29CC8"/>
<path d="M514.198 438.93V439.738C514.198 440.529 514.198 441.438 513.975 442.621H515.381V443.676H511.174V445.328H514.221V449.043H512.92V446.371H506.686V445.328H509.873V443.676H505.701V442.621H512.662C512.873 441.537 512.897 440.711 512.897 439.973H506.897V438.93H514.198Z" fill="#C29CC8"/>
<path d="M504.021 438.461V441.25H505.451V442.328H504.021V445.141H502.72V438.461H504.021ZM500.517 445.27C502.72 445.27 504.068 445.949 504.08 447.156C504.068 448.328 502.72 449.031 500.517 449.031C498.302 449.031 496.943 448.328 496.943 447.156C496.943 445.949 498.302 445.27 500.517 445.27ZM500.517 446.254C499.041 446.254 498.208 446.57 498.22 447.156C498.208 447.719 499.041 448.023 500.517 448.023C501.947 448.023 502.779 447.719 502.791 447.156C502.779 446.57 501.947 446.254 500.517 446.254ZM495.607 443.594C496.375 443.594 497.265 443.588 498.197 443.559V442.75C496.972 442.562 496.169 441.818 496.181 440.793C496.169 439.609 497.259 438.801 498.83 438.789C500.388 438.801 501.478 439.609 501.49 440.793C501.478 441.807 500.699 442.539 499.509 442.738V443.512C500.394 443.465 501.279 443.389 502.099 443.277L502.216 444.191C500.013 444.578 497.552 444.613 495.748 444.613L495.607 443.594ZM498.83 439.773C497.962 439.773 497.388 440.148 497.4 440.793C497.388 441.438 497.962 441.848 498.83 441.848C499.673 441.848 500.248 441.438 500.259 440.793C500.248 440.148 499.673 439.773 498.83 439.773Z" fill="#C29CC8"/>
<path d="M515.369 430.414V431.492H511.151V435.043H509.862V431.492H505.69V430.414H515.369ZM510.506 424.824C512.756 424.836 514.326 425.75 514.326 427.203C514.326 428.645 512.756 429.547 510.506 429.547C508.244 429.547 506.698 428.645 506.709 427.203C506.698 425.75 508.244 424.836 510.506 424.824ZM510.506 425.879C509.006 425.879 508.033 426.371 508.045 427.203C508.033 428.023 509.006 428.516 510.506 428.516C512.006 428.516 512.979 428.023 512.979 427.203C512.979 426.371 512.006 425.879 510.506 425.879Z" fill="#C29CC8"/>
<path d="M501.033 425.164V426.23H497.505V429.371C499.31 429.365 500.359 429.301 501.537 429.055L501.666 430.098C500.341 430.391 499.193 430.426 497.025 430.426H496.205V425.164H501.033ZM504.501 431.305V435.043H503.201V432.348H497.283V431.305H504.501ZM504.501 424.449V430.824H503.201V428.188H500.482V427.133H503.201V424.449H504.501Z" fill="#C29CC8"/>
</svg>
