<svg width="676" height="852" viewBox="0 0 676 852" fill="none" xmlns="http://www.w3.org/2000/svg">
<rect width="676" height="852" fill="#F4EEF5"/>
<path d="M420.564 543.127V471.221H343.07V543.127H420.564Z" fill="white" fill-opacity="0.5"/>
<path d="M440.118 460.381V426.416H415.494V460.381H440.118Z" fill="white" fill-opacity="0.5"/>
<path d="M474.158 291.637L503.852 262.73L495.885 255.864L484.659 262.73L479.589 255.864L503.852 229.848L478.865 206L443.377 239.604L469.812 264.537L474.158 262.73L479.589 268.15L466.191 282.603L474.158 291.637Z" fill="white" fill-opacity="0.5"/>
<path d="M414.77 422.802V401.122H393.042V422.802H414.77Z" fill="white" fill-opacity="0.5"/>
<path d="M400.285 356.316L449.171 311.872L418.391 275.015L397.388 291.276L402.095 299.586L412.235 292.36L428.168 311.872L406.079 329.577L383.265 304.645L363.711 321.628L400.285 356.316Z" fill="white" fill-opacity="0.5"/>
<path d="M388.697 460.381V419.189H374.936V460.381H388.697Z" fill="white" fill-opacity="0.5"/>
<path d="M561.101 391.924L549.576 327.969L449.072 346.002L460.597 409.957L561.101 391.924Z" fill="white" fill-opacity="0.5"/>
<path d="M559.618 474.112V443.76H519.785L523.406 458.213H541.512V474.112H559.618Z" fill="white" fill-opacity="0.5"/>
<path d="M458.224 547.463H479.952L479.227 539.153L465.105 537.707L464.742 520.724L483.573 520.002V512.052L458.224 510.607V547.463Z" fill="white" fill-opacity="0.5"/>
<path d="M328.585 541.321V474.835H298.891V541.321H328.585Z" fill="white" fill-opacity="0.5"/>
<path d="M264.852 461.827L325.688 465.44L340.535 452.07V433.642L333.655 431.836V412.323L338.362 415.214L352.123 403.651L380.368 402.929V363.904L347.053 330.3L313.376 360.652L319.532 367.518L340.535 346.921L370.229 375.828V393.534H353.209L347.415 387.03L331.844 403.651L298.891 370.408L282.595 381.61L320.618 418.827L323.515 426.416H309.755V449.541H294.545V426.416H264.852V461.827Z" fill="white" fill-opacity="0.5"/>
<path d="M369.867 578.9V552.883H341.621V557.581H313.376V568.06H341.621V578.9H369.867Z" fill="white" fill-opacity="0.5"/>
<path d="M283.682 534.094V476.28H226.467V534.094H283.682Z" fill="white" fill-opacity="0.5"/>
<path d="M295.27 571.673V549.993H236.606V586.849L295.27 571.673Z" fill="white" fill-opacity="0.5"/>
<path d="M267.024 516.027V494.347H243.124V516.027H267.024Z" fill="#F4EEF5"/>
<path d="M150.421 544.934V505.91H115.658V544.934H150.421Z" fill="white" fill-opacity="0.5"/>
<path d="M133.039 557.942V573.118H167.441V584.681H179.753V565.892H217.776V586.849H230.088V550.264L167.441 552.522V557.942H133.039Z" fill="white" fill-opacity="0.5"/>
<path d="M249.642 463.272V444.482H198.221V474.112H151.145V493.624H208.723V463.272H249.642Z" fill="white" fill-opacity="0.5"/>
<path d="M218.862 534.817V501.212H215.603C214.517 504.223 212.344 511.836 212.344 518.195C212.344 524.555 213.551 531.926 214.154 534.817H218.862Z" fill="white" fill-opacity="0.5"/>
<path d="M179.753 501.212H210.895C210.413 503.621 208.433 510.246 204.377 517.472C200.322 524.699 195.204 529.878 193.152 531.565C191.099 530.481 186.199 527.012 183.012 521.809C179.825 516.605 179.512 505.91 179.753 501.212Z" fill="white" fill-opacity="0.5"/>
<path d="M204.377 527.229C206.695 524.049 208.24 520.604 208.723 519.279V535.178C208.24 535.298 206.55 535.467 203.653 535.178C200.756 534.889 199.066 534.335 198.583 534.094C199.549 533.13 202.06 530.408 204.377 527.229Z" fill="white" fill-opacity="0.5"/>
<path d="M439.756 208.168L273.905 372.938L99 456.407V568.782L125.073 606H237.692L299.253 588.294L328.947 601.303H508.921L577 530.842V428.222M420.564 471.221V543.127H343.07V471.221H420.564ZM440.118 426.416V460.381H415.494V426.416H440.118ZM503.852 262.73L474.158 291.637L466.191 282.603L479.589 268.15L474.158 262.73L469.812 264.537L443.377 239.604L478.865 206L503.852 229.848L479.589 255.864L484.659 262.73L495.885 255.864L503.852 262.73ZM414.77 401.122V422.802H393.042V401.122H414.77ZM449.171 311.872L400.285 356.316L363.711 321.628L383.265 304.645L406.079 329.577L428.168 311.872L412.235 292.36L402.095 299.586L397.388 291.276L418.391 275.015L449.171 311.872ZM388.697 419.189V460.381H374.936V419.189H388.697ZM549.576 327.969L561.101 391.924L460.597 409.957L449.072 346.002L549.576 327.969ZM559.618 443.76V474.112H541.512V458.213H523.406L519.785 443.76H559.618ZM479.952 547.463H458.224V510.607L483.573 512.052V520.002L464.742 520.724L465.105 537.707L479.227 539.153L479.952 547.463ZM328.585 474.835V541.321H298.891V474.835H328.585ZM325.688 465.44L264.852 461.827V426.416H294.545V449.541H309.755V426.416H323.515L320.618 418.827L282.595 381.61L298.891 370.408L331.844 403.651L347.415 387.03L353.209 393.534H370.229V375.828L340.535 346.921L319.532 367.518L313.376 360.652L347.053 330.3L380.368 363.904V402.929L352.123 403.651L338.362 415.214L333.655 412.323V431.836L340.535 433.642V452.07L325.688 465.44ZM369.867 552.883V578.9H341.621V568.06H313.376V557.581H341.621V552.883H369.867ZM283.682 476.28V534.094H226.467V476.28H283.682ZM295.27 549.993V571.673L236.606 586.849V549.993H295.27ZM267.024 494.347V516.027H243.124V494.347H267.024ZM150.421 505.91V544.934H115.658V505.91H150.421ZM133.039 573.118V557.942H167.441V552.522L230.088 550.264V586.849H217.776V565.892H179.753V584.681H167.441V573.118H133.039ZM249.642 444.482V463.272H208.723V493.624H151.145V474.112H198.221V444.482H249.642ZM218.862 501.212V534.817H214.154C213.551 531.926 212.344 524.555 212.344 518.195C212.344 511.836 214.517 504.223 215.603 501.212H218.862ZM210.895 501.212H179.753C179.512 505.91 179.825 516.605 183.012 521.808C186.199 527.012 191.099 530.481 193.152 531.565C195.204 529.878 200.322 524.699 204.377 517.472C208.433 510.246 210.413 503.621 210.895 501.212ZM208.723 519.279C208.24 520.604 206.695 524.049 204.377 527.229C202.06 530.408 199.549 533.13 198.583 534.094C199.066 534.335 200.756 534.889 203.653 535.178C206.55 535.467 208.24 535.298 208.723 535.178V519.279Z" stroke="#C29CC8" stroke-width="2" stroke-linecap="round" stroke-linejoin="round"/>
<path d="M391.993 502.492V510.166H391.061V506.028H389.619V505.264H391.061V502.492H391.993ZM389.5 503.153V503.925H386.863V505.298H389.195V506.045H386.863V507.622C388.029 507.618 388.903 507.579 389.89 507.418L389.984 508.181C388.864 508.351 387.889 508.393 386.516 508.402H385.914V503.153H389.5Z" fill="#C29CC8"/>
<path d="M384.426 502.933V503.569C384.426 504.213 384.426 504.955 384.257 505.926H385.283V506.697H378.279V505.926H383.299C383.472 505.002 383.485 504.315 383.485 503.696H379.144V502.933H384.426ZM384.647 509.233V509.996H379.186V507.427H380.119V509.233H384.647Z" fill="#C29CC8"/>
<path d="M373.12 502.924C373.739 502.924 374.273 503.153 374.638 503.535H376.469V502.492H377.41V507.003H376.469V506.028H374.638C374.273 506.409 373.735 506.634 373.12 506.63C371.967 506.638 371.093 505.858 371.093 504.781C371.093 503.696 371.967 502.924 373.12 502.924ZM373.12 503.73C372.458 503.73 371.992 504.137 371.992 504.781C371.992 505.409 372.458 505.833 373.12 505.833C373.756 505.833 374.222 505.409 374.231 504.781C374.222 504.137 373.756 503.73 373.12 503.73ZM374.816 507.164C376.427 507.164 377.436 507.715 377.436 508.656C377.436 509.597 376.427 510.149 374.816 510.149C373.213 510.149 372.204 509.597 372.213 508.656C372.204 507.715 373.213 507.164 374.816 507.164ZM374.816 507.885C373.747 507.885 373.128 508.156 373.137 508.656C373.128 509.14 373.747 509.411 374.816 509.411C375.901 509.411 376.512 509.14 376.512 508.656C376.512 508.156 375.901 507.885 374.816 507.885ZM375.062 504.289C375.104 504.446 375.129 504.607 375.129 504.781C375.129 504.951 375.104 505.112 375.07 505.264H376.469V504.289H375.062Z" fill="#C29CC8"/>
<path d="M316.653 511.084C316.645 512.093 317.281 513.051 318.485 513.442L317.993 514.188C317.141 513.899 316.539 513.323 316.204 512.585C315.861 513.399 315.229 514.035 314.338 514.349L313.813 513.603C315.076 513.196 315.704 512.161 315.704 511.076V510.202H316.653V511.084ZM319.952 509.728V511.992H321.02V512.789H319.952V515.358H319.011V509.728H319.952ZM320.257 516.477V517.24H315.042V514.807H316.009V516.477H320.257Z" fill="#C29CC8"/>
<path d="M313.614 513.399V514.154H306.619V513.399H309.654V512.67H307.475V510.075H312.766V510.813H308.416V511.924H312.809V512.67H310.579V513.399H313.614ZM310.104 514.595C311.757 514.595 312.749 515.095 312.758 515.994C312.749 516.884 311.757 517.393 310.104 517.393C308.433 517.393 307.433 516.884 307.433 515.994C307.433 515.095 308.433 514.595 310.104 514.595ZM310.104 515.315C308.984 515.315 308.382 515.553 308.391 515.994C308.382 516.435 308.984 516.664 310.104 516.664C311.198 516.664 311.808 516.435 311.817 515.994C311.808 515.553 311.198 515.315 310.104 515.315Z" fill="#C29CC8"/>
<path d="M320.893 503.871V504.634H317.849V507.254H316.916V504.634H313.906V503.871H320.893ZM320.249 500.03V500.776H317.951C318.006 501.616 319.015 502.421 320.528 502.616L320.189 503.354C318.883 503.172 317.866 502.574 317.4 501.743C316.933 502.574 315.916 503.172 314.627 503.354L314.271 502.616C315.776 502.421 316.785 501.616 316.857 500.776H314.55V500.03H320.249Z" fill="#C29CC8"/>
<path d="M310.706 500.233V503.88H307.009V500.233H310.706ZM307.942 500.988V503.125H309.773V500.988H307.942ZM313.004 499.606V505.075H312.054V499.606H313.004ZM313.216 506.296V507.059H307.933V504.558H308.883V506.296H313.216Z" fill="#C29CC8"/>
<path d="M313.175 453.133V453.591C313.167 454.117 313.167 454.871 312.988 455.846L312.056 455.762C312.204 454.969 312.234 454.384 312.251 453.913H309.266V453.133H313.175ZM311.242 454.88V456.406C312.035 456.376 312.849 456.317 313.591 456.211L313.641 456.889C312.047 457.178 310.241 457.203 308.893 457.212L308.808 456.457C309.262 456.453 309.771 456.449 310.309 456.44V454.88H311.242ZM315.007 452.565V454.956H315.999V455.745H315.007V458.306H314.04V452.565H315.007ZM315.252 459.315V460.078H309.953V457.797H310.903V459.315H315.252Z" fill="#C29CC8"/>
<path d="M307.99 452.565V460.23H307.049V452.565H307.99ZM301.639 458.102C302.25 458.098 302.941 458.098 303.666 458.077V457.373C302.801 457.237 302.241 456.707 302.241 455.982C302.241 455.117 303.005 454.541 304.124 454.541C305.252 454.541 306.032 455.117 306.032 455.982C306.032 456.703 305.468 457.229 304.607 457.364V458.043C305.281 458.013 305.96 457.958 306.6 457.873L306.668 458.577C304.98 458.865 303.157 458.882 301.775 458.882L301.639 458.102ZM306.464 453.447V454.193H301.801V453.447H303.666V452.59H304.607V453.447H306.464ZM304.124 455.261C303.547 455.27 303.132 455.533 303.14 455.982C303.132 456.423 303.547 456.686 304.124 456.677C304.726 456.686 305.124 456.423 305.124 455.982C305.124 455.533 304.726 455.27 304.124 455.261Z" fill="#C29CC8"/>
<path d="M296.71 453.989C296.71 454.82 297.193 455.651 298.202 456.033L297.702 456.754C297.019 456.491 296.544 456.003 296.269 455.405C295.989 456.092 295.488 456.677 294.759 456.983L294.25 456.262C295.302 455.796 295.794 454.837 295.802 453.989V453.04H296.71V453.989ZM300.873 452.573V457.271H299.974V455.278H299.211V457.034H298.329V452.718H299.211V454.507H299.974V452.573H300.873ZM298.287 457.398C299.889 457.398 300.907 457.924 300.915 458.806C300.907 459.688 299.889 460.222 298.287 460.222C296.667 460.222 295.658 459.688 295.658 458.806C295.658 457.924 296.667 457.398 298.287 457.398ZM298.287 458.11C297.227 458.11 296.599 458.356 296.599 458.806C296.599 459.264 297.227 459.501 298.287 459.501C299.338 459.501 299.966 459.264 299.966 458.806C299.966 458.356 299.338 458.11 298.287 458.11Z" fill="#C29CC8"/>
<path d="M291.585 453.303V454.049H287.04V453.303H288.846V452.531H289.787V453.303H291.585ZM289.312 454.346C290.423 454.346 291.178 454.905 291.186 455.745C291.178 456.584 290.423 457.144 289.312 457.144C288.201 457.144 287.43 456.584 287.43 455.745C287.43 454.905 288.201 454.346 289.312 454.346ZM289.312 455.058C288.727 455.058 288.345 455.312 288.345 455.745C288.345 456.177 288.727 456.423 289.312 456.415C289.897 456.423 290.287 456.177 290.287 455.745C290.287 455.312 289.897 455.058 289.312 455.058ZM293.077 452.565V454.6H294.145V455.372H293.077V457.364H292.136V452.565H293.077ZM293.077 457.72V460.23H292.136V458.475H287.972V457.72H293.077Z" fill="#C29CC8"/>
<path d="M370.312 455.459V463.133H369.379V458.995H367.938V458.232H369.379V455.459H370.312ZM367.819 456.121V456.892H365.182V458.266H367.514V459.012H365.182V460.589C366.348 460.585 367.221 460.547 368.209 460.386L368.303 461.149C367.183 461.319 366.208 461.361 364.834 461.369H364.232V456.121H367.819Z" fill="#C29CC8"/>
<path d="M362.745 455.9V456.536C362.745 457.181 362.745 457.922 362.575 458.893H363.601V459.665H356.597V458.893H361.617C361.791 457.969 361.804 457.282 361.804 456.663H357.462V455.9H362.745ZM362.965 462.2V462.964H357.505V460.394H358.437V462.2H362.965Z" fill="#C29CC8"/>
<path d="M351.439 455.892C352.058 455.892 352.592 456.121 352.957 456.502H354.788V455.459H355.729V459.97H354.788V458.995H352.957C352.592 459.377 352.053 459.601 351.439 459.597C350.285 459.606 349.412 458.826 349.412 457.749C349.412 456.663 350.285 455.892 351.439 455.892ZM351.439 456.697C350.777 456.697 350.311 457.104 350.311 457.749C350.311 458.376 350.777 458.8 351.439 458.8C352.075 458.8 352.541 458.376 352.549 457.749C352.541 457.104 352.075 456.697 351.439 456.697ZM353.135 460.131C354.746 460.131 355.755 460.683 355.755 461.624C355.755 462.565 354.746 463.116 353.135 463.116C351.532 463.116 350.523 462.565 350.531 461.624C350.523 460.683 351.532 460.131 353.135 460.131ZM353.135 460.852C352.066 460.852 351.447 461.123 351.456 461.624C351.447 462.107 352.066 462.378 353.135 462.378C354.22 462.378 354.83 462.107 354.83 461.624C354.83 461.123 354.22 460.852 353.135 460.852ZM353.38 457.257C353.423 457.414 353.448 457.575 353.448 457.749C353.448 457.918 353.423 458.079 353.389 458.232H354.788V457.257H353.38Z" fill="#C29CC8"/>
<path d="M349.027 461.412V462.175H342.023V461.412H345.025V459.64H345.957V461.412H349.027ZM345.983 456.485C345.983 457.647 347.145 458.792 348.756 459.046L348.349 459.826C347.051 459.58 345.991 458.838 345.483 457.833C344.974 458.834 343.922 459.589 342.633 459.826L342.226 459.046C343.829 458.792 344.974 457.638 344.982 456.485V455.926H345.983V456.485Z" fill="#C29CC8"/>
<path d="M368.037 586.642V587.396H365.078V588.804H364.145V587.396H361.033V586.642H368.037ZM367.139 583.156V585.929H361.924V583.156H367.139ZM362.84 583.894V585.192H366.206V583.894H362.84ZM367.266 589.558V590.322H361.881V588.1H362.823V589.558H367.266Z" fill="#C29CC8"/>
<path d="M360.173 582.809V587.362H359.232V585.488H357.926V584.717H359.232V582.809H360.173ZM357.579 587.557C359.207 587.557 360.199 588.092 360.199 589.016C360.199 589.94 359.207 590.474 357.579 590.474C355.959 590.474 354.967 589.94 354.975 589.016C354.967 588.092 355.959 587.557 357.579 587.557ZM357.579 588.278C356.51 588.278 355.908 588.532 355.908 589.016C355.908 589.491 356.51 589.745 357.579 589.745C358.647 589.745 359.258 589.491 359.258 589.016C359.258 588.532 358.647 588.278 357.579 588.278ZM356.57 584.123C356.57 585.056 357.189 585.997 358.376 586.396L357.901 587.142C357.049 586.854 356.442 586.268 356.112 585.548C355.773 586.366 355.132 587.019 354.221 587.345L353.729 586.599C354.959 586.175 355.611 585.141 355.611 584.132V584.072H354.017V583.309H358.155V584.072H356.57V584.123Z" fill="#C29CC8"/>
<path d="M353.624 583.292L351.648 590.644H350.698L352.683 583.292H353.624Z" fill="#C29CC8"/>
<path d="M350.568 587.269V588.015H347.515V590.474H346.583V588.015H343.564V587.269H350.568ZM345.345 583.114V584.055H348.77V583.114H349.72V586.472H344.412V583.114H345.345ZM345.345 585.709H348.77V584.802H345.345V585.709Z" fill="#C29CC8"/>
<path d="M338.125 583.097V583.928H341.432V583.097H342.365V586.209H340.245V586.913H343.272V587.676H336.285V586.913H339.295V586.209H337.192V583.097H338.125ZM338.125 585.454H341.432V584.657H338.125V585.454ZM342.484 589.558V590.322H337.15V588.168H338.091V589.558H342.484Z" fill="#C29CC8"/>
<path d="M333.552 583.547V584.293H329.007V583.547H330.813V582.775H331.754V583.547H333.552ZM331.279 584.589C332.39 584.589 333.145 585.149 333.153 585.989C333.145 586.828 332.39 587.388 331.279 587.388C330.168 587.388 329.397 586.828 329.397 585.989C329.397 585.149 330.168 584.589 331.279 584.589ZM331.279 585.302C330.694 585.302 330.312 585.556 330.312 585.989C330.312 586.421 330.694 586.667 331.279 586.658C331.864 586.667 332.254 586.421 332.254 585.989C332.254 585.556 331.864 585.302 331.279 585.302ZM335.044 582.809V584.844H336.112V585.616H335.044V587.608H334.103V582.809H335.044ZM335.044 587.964V590.474H334.103V588.719H329.939V587.964H335.044Z" fill="#C29CC8"/>
<path d="M328.308 582.809V590.474H327.409V586.565H326.544V590.084H325.679V582.953H326.544V585.811H327.409V582.809H328.308ZM324.814 583.716V584.479H322.898V587.888C323.733 587.88 324.42 587.837 325.196 587.693L325.264 588.465C324.339 588.651 323.534 588.677 322.465 588.685H321.948V583.716H324.814Z" fill="#C29CC8"/>
<path d="M436.157 414.06V414.518C436.148 415.043 436.148 415.798 435.97 416.773L435.037 416.688C435.186 415.896 435.215 415.311 435.232 414.84H432.248V414.06H436.157ZM434.223 415.807V417.333C435.016 417.303 435.83 417.244 436.572 417.138L436.623 417.816C435.029 418.105 433.223 418.13 431.875 418.138L431.79 417.384C432.243 417.38 432.752 417.375 433.291 417.367V415.807H434.223ZM437.988 413.492V415.883H438.98V416.671H437.988V419.232H437.022V413.492H437.988ZM438.234 420.241V421.004H432.935V418.724H433.884V420.241H438.234Z" fill="#C29CC8"/>
<path d="M428.564 413.738C428.564 414.56 429.616 415.298 431.21 415.476L430.896 416.188C429.599 416.04 428.568 415.522 428.072 414.781C427.581 415.522 426.55 416.04 425.266 416.188L424.944 415.476C426.555 415.298 427.589 414.56 427.598 413.738V413.534H428.564V413.738ZM431.574 416.57V417.316H428.539V417.909H430.701V419.809H426.343V420.368H430.913V421.089H425.418V419.13H429.777V418.63H425.41V417.909H427.598V417.316H424.587V416.57H431.574Z" fill="#C29CC8"/>
<path d="M423.914 413.492V421.157H423.007V413.492H423.914ZM422.362 413.627V420.784H421.472V418.367H420.471C420.187 419.122 419.679 419.55 419.03 419.546C418.029 419.554 417.376 418.495 417.376 416.807C417.376 415.12 418.029 414.077 419.03 414.077C419.679 414.077 420.183 414.501 420.471 415.247H421.472V413.627H422.362ZM419.03 414.967C418.53 414.959 418.233 415.612 418.241 416.807C418.233 418.003 418.53 418.656 419.03 418.647C419.539 418.656 419.852 418.003 419.852 416.807C419.852 415.612 419.539 414.959 419.03 414.967ZM420.658 416.01C420.696 416.256 420.717 416.523 420.717 416.807C420.717 417.087 420.696 417.35 420.666 417.596H421.472V416.01H420.658Z" fill="#C29CC8"/>
<path d="M477.726 552.418V554.301H478.786V555.073H477.726V556.896H476.776V552.418H477.726ZM475.224 557.04C476.793 557.04 477.785 557.599 477.794 558.549C477.785 559.516 476.793 560.075 475.224 560.075C473.639 560.075 472.63 559.516 472.63 558.549C472.63 557.599 473.639 557.04 475.224 557.04ZM475.224 557.794C474.173 557.794 473.554 558.057 473.562 558.549C473.554 559.049 474.173 559.321 475.224 559.321C476.259 559.321 476.878 559.049 476.878 558.549C476.878 558.057 476.259 557.794 475.224 557.794ZM475.402 552.961V553.724H472.901V555.649C474.368 555.645 475.186 555.602 476.089 555.412L476.183 556.166C475.19 556.378 474.283 556.412 472.587 556.412H471.968V552.961H475.402Z" fill="#C29CC8"/>
<path d="M471.38 556.735V557.515H468.327V560.084H467.395V557.515H464.376V556.735H471.38ZM467.861 552.69C469.489 552.698 470.625 553.36 470.625 554.411C470.625 555.454 469.489 556.107 467.861 556.107C466.224 556.107 465.105 555.454 465.114 554.411C465.105 553.36 466.224 552.698 467.861 552.69ZM467.861 553.453C466.776 553.453 466.072 553.809 466.08 554.411C466.072 555.005 466.776 555.361 467.861 555.361C468.946 555.361 469.65 555.005 469.65 554.411C469.65 553.809 468.946 553.453 467.861 553.453Z" fill="#C29CC8"/>
<path d="M461.006 552.936V553.707H458.454V555.98C459.76 555.976 460.519 555.929 461.371 555.751L461.464 556.506C460.506 556.718 459.675 556.743 458.106 556.743H457.513V552.936H461.006ZM463.516 557.379V560.084H462.575V558.134H458.293V557.379H463.516ZM463.516 552.418V557.031H462.575V555.123H460.608V554.36H462.575V552.418H463.516Z" fill="#C29CC8"/>
<path d="M557.77 481.353V481.81C557.761 482.336 557.761 483.091 557.583 484.066L556.65 483.981C556.799 483.188 556.829 482.603 556.845 482.133H553.861V481.353H557.77ZM555.836 483.099V484.626C556.629 484.596 557.443 484.537 558.185 484.431L558.236 485.109C556.642 485.397 554.836 485.423 553.488 485.431L553.403 484.676C553.856 484.672 554.365 484.668 554.904 484.66V483.099H555.836ZM559.601 480.784V483.176H560.593V483.964H559.601V486.525H558.635V480.784H559.601ZM559.847 487.534V488.297H554.548V486.016H555.497V487.534H559.847Z" fill="#C29CC8"/>
<path d="M553.187 484.405V485.16H551.44V485.957H552.331V488.45H551.39V486.695H546.972V485.957H547.922V485.16H546.2V484.405H553.187ZM549.685 480.946C551.364 480.946 552.441 481.514 552.45 482.438C552.441 483.371 551.364 483.939 549.685 483.939C548.006 483.939 546.921 483.371 546.921 482.438C546.921 481.514 548.006 480.946 549.685 480.946ZM549.685 481.683C548.566 481.683 547.896 481.955 547.905 482.438C547.896 482.938 548.566 483.21 549.685 483.21C550.805 483.21 551.474 482.938 551.474 482.438C551.474 481.955 550.805 481.683 549.685 481.683ZM548.863 485.957H550.508V485.16H548.863V485.957Z" fill="#C29CC8"/>
<path d="M545.196 481.488V482.268C545.196 483.218 545.196 484.252 544.916 485.753L543.992 485.66C544.255 484.244 544.255 483.193 544.255 482.268V482.243H539.617V481.488H545.196ZM545.9 486.686V487.458H538.913V486.686H540.482V484.244H541.423V486.686H542.398V484.244H543.322V486.686H545.9Z" fill="#C29CC8"/>
<path d="M533.686 481.344C534.839 481.344 535.67 482.396 535.679 484.049C535.67 485.719 534.839 486.762 533.686 486.762C532.524 486.762 531.685 485.719 531.693 484.049C531.685 482.396 532.524 481.344 533.686 481.344ZM533.686 482.192C533.042 482.192 532.601 482.879 532.601 484.049C532.601 485.228 533.042 485.914 533.686 485.914C534.339 485.914 534.771 485.228 534.771 484.049C534.771 482.879 534.339 482.192 533.686 482.192ZM537.629 480.784V483.727H538.808V484.524H537.629V488.45H536.688V480.784H537.629Z" fill="#C29CC8"/>
<path d="M531.334 485.084V485.847H529.63V488.45H528.672V485.847H526.976V488.45H526.009V485.847H524.33V485.084H531.334ZM527.815 481.056C529.443 481.064 530.579 481.726 530.579 482.769C530.579 483.795 529.443 484.448 527.815 484.448C526.179 484.448 525.059 483.795 525.068 482.769C525.059 481.726 526.179 481.064 527.815 481.056ZM527.815 481.819C526.73 481.819 526.026 482.167 526.034 482.769C526.026 483.354 526.73 483.701 527.815 483.701C528.9 483.701 529.604 483.354 529.604 482.769C529.604 482.167 528.9 481.819 527.815 481.819Z" fill="#C29CC8"/>
<path d="M511.321 367.118C511.321 368.059 511.932 368.941 513.128 369.305L512.678 370.043C511.817 369.776 511.207 369.229 510.872 368.534C510.533 369.339 509.884 369.98 508.964 370.289L508.489 369.543C509.727 369.136 510.372 368.144 510.372 367.126V367.033H508.752V366.27H512.916V367.033H511.321V367.118ZM514.62 365.736V367.576H515.688V368.347H514.62V370.306H513.679V365.736H514.62ZM512.127 370.476C513.713 370.476 514.688 371.01 514.696 371.926C514.688 372.85 513.713 373.393 512.127 373.393C510.524 373.393 509.532 372.85 509.532 371.926C509.532 371.01 510.524 370.476 512.127 370.476ZM512.127 371.213C511.075 371.213 510.473 371.459 510.473 371.926C510.473 372.4 511.075 372.655 512.127 372.655C513.178 372.655 513.763 372.4 513.763 371.926C513.763 371.459 513.178 371.213 512.127 371.213Z" fill="#C29CC8"/>
<path d="M508.283 369.407V370.162H501.287V369.407H504.323V368.678H502.144V366.083H507.435V366.821H503.085V367.932H507.477V368.678H505.247V369.407H508.283ZM504.772 370.603C506.426 370.603 507.418 371.103 507.426 372.002C507.418 372.892 506.426 373.401 504.772 373.401C503.102 373.401 502.101 372.892 502.101 372.002C502.101 371.103 503.102 370.603 504.772 370.603ZM504.772 371.324C503.653 371.324 503.051 371.561 503.059 372.002C503.051 372.443 503.653 372.672 504.772 372.672C505.866 372.672 506.477 372.443 506.485 372.002C506.477 371.561 505.866 371.324 504.772 371.324Z" fill="#C29CC8"/>
<path d="M500.995 369.526V370.281H498.036V371.688H497.078V370.281H493.991V369.526H500.995ZM500.224 372.477V373.248H494.848V370.976H495.797V372.477H500.224ZM497.485 365.905C499.138 365.905 500.232 366.507 500.232 367.474C500.232 368.44 499.138 369.034 497.485 369.034C495.831 369.034 494.737 368.44 494.737 367.474C494.737 366.507 495.831 365.905 497.485 365.905ZM497.485 366.651C496.433 366.651 495.746 366.948 495.755 367.474C495.746 367.983 496.433 368.279 497.485 368.279C498.545 368.279 499.223 367.983 499.223 367.474C499.223 366.948 498.545 366.651 497.485 366.651Z" fill="#C29CC8"/>
<path d="M407.214 333.743V334.201C407.205 334.726 407.205 335.481 407.027 336.456L406.094 336.371C406.243 335.579 406.272 334.994 406.289 334.523H403.305V333.743H407.214ZM405.28 335.49V337.016C406.073 336.986 406.887 336.927 407.629 336.821L407.68 337.499C406.086 337.787 404.28 337.813 402.931 337.821L402.847 337.067C403.3 337.062 403.809 337.058 404.348 337.05V335.49H405.28ZM409.045 333.175V335.566H410.037V336.354H409.045V338.915H408.078V333.175H409.045ZM409.291 339.924V340.687H403.991V338.406H404.941V339.924H409.291Z" fill="#C29CC8"/>
<path d="M400.198 333.912V334.659H395.653V333.912H397.459V333.141H398.4V333.912H400.198ZM397.925 334.955C399.036 334.955 399.791 335.515 399.799 336.354C399.791 337.194 399.036 337.754 397.925 337.754C396.815 337.754 396.043 337.194 396.043 336.354C396.043 335.515 396.815 334.955 397.925 334.955ZM397.925 335.668C397.34 335.668 396.959 335.922 396.959 336.354C396.959 336.787 397.34 337.033 397.925 337.024C398.51 337.033 398.9 336.787 398.9 336.354C398.9 335.922 398.51 335.668 397.925 335.668ZM401.69 333.175V335.21H402.759V335.981H401.69V337.974H400.749V333.175H401.69ZM401.69 338.33V340.84H400.749V339.085H396.586V338.33H401.69Z" fill="#C29CC8"/>
<path d="M395.446 334.243V335.006H394.403V335.888H395.446V336.677H394.403V337.703H393.462V333.175H394.403V334.243H395.446ZM394.403 338.033V340.84H393.462V338.797H389.298V338.033H394.403ZM390.511 333.616C391.69 333.607 392.571 334.379 392.58 335.456C392.571 336.549 391.69 337.313 390.511 337.313C389.324 337.313 388.433 336.549 388.442 335.456C388.433 334.379 389.324 333.607 390.511 333.616ZM390.511 334.413C389.85 334.421 389.358 334.82 389.366 335.456C389.358 336.109 389.85 336.516 390.511 336.507C391.164 336.516 391.656 336.109 391.656 335.456C391.656 334.82 391.164 334.421 390.511 334.413Z" fill="#C29CC8"/>
<path d="M344.262 371.369V371.827C344.254 372.352 344.254 373.107 344.076 374.082L343.143 373.997C343.291 373.205 343.321 372.619 343.338 372.149H340.353V371.369H344.262ZM342.329 373.116V374.642C343.122 374.612 343.936 374.553 344.678 374.447L344.729 375.125C343.134 375.413 341.328 375.439 339.98 375.447L339.895 374.693C340.349 374.688 340.858 374.684 341.396 374.676V373.116H342.329ZM346.094 370.801V373.192H347.086V373.98H346.094V376.541H345.127V370.801H346.094ZM346.34 377.55V378.313H341.04V376.032H341.99V377.55H346.34Z" fill="#C29CC8"/>
<path d="M339.112 370.809V376.431H338.171V374.532H336.348C335.979 374.943 335.436 375.193 334.822 375.193C333.668 375.193 332.795 374.362 332.795 373.234C332.795 372.089 333.668 371.267 334.822 371.267C335.432 371.267 335.97 371.513 336.339 371.92H338.171V370.809H339.112ZM339.307 377.55V378.313H334.084V375.854H335.025V377.55H339.307ZM334.822 372.106C334.16 372.106 333.694 372.547 333.694 373.234C333.694 373.913 334.16 374.353 334.822 374.353C335.449 374.353 335.924 373.913 335.932 373.234C335.924 372.547 335.449 372.106 334.822 372.106ZM336.755 372.683C336.801 372.857 336.831 373.039 336.831 373.234C336.831 373.421 336.806 373.599 336.763 373.768H338.171V372.683H336.755Z" fill="#C29CC8"/>
<path d="M328.153 372.98C328.153 374.167 328.857 375.515 330.069 376.075L329.544 376.821C328.679 376.414 328.039 375.592 327.695 374.633C327.348 375.685 326.678 376.584 325.796 377.008L325.245 376.27C326.466 375.693 327.203 374.252 327.212 372.98V372.335H325.541V371.555H329.756V372.335H328.153V372.98ZM331.409 370.801V373.785H332.588V374.574H331.409V378.466H330.468V370.801H331.409Z" fill="#C29CC8"/>
<path d="M246.683 433.596V434.054C246.674 434.58 246.674 435.335 246.496 436.31L245.564 436.225C245.712 435.432 245.742 434.847 245.759 434.377H242.774V433.596H246.683ZM244.75 435.343V436.869C245.542 436.84 246.356 436.78 247.098 436.674L247.149 437.353C245.555 437.641 243.749 437.667 242.401 437.675L242.316 436.92C242.77 436.916 243.278 436.912 243.817 436.903V435.343H244.75ZM248.514 433.028V435.42H249.506V436.208H248.514V438.769H247.548V433.028H248.514ZM248.76 439.778V440.541H243.461V438.26H244.41V439.778H248.76Z" fill="#C29CC8"/>
<path d="M236.512 433.376V436.505C237.521 436.496 238.378 436.446 239.336 436.284L239.429 437.031C238.344 437.234 237.369 437.285 236.156 437.277H235.563V433.376H236.512ZM241.532 433.028V437.522H240.591V435.843H238.607V435.131H240.591V434.504H238.607V433.791H240.591V433.028H241.532ZM241.532 437.836V440.6H236.479V437.836H241.532ZM237.403 438.591V439.837H240.6V438.591H237.403Z" fill="#C29CC8"/>
<path d="M234.228 433.028V440.694H233.278V433.028H234.228ZM231.939 433.842C231.939 436.123 231.057 438.065 228.369 439.337L227.877 438.582C229.882 437.628 230.815 436.331 230.98 434.589H228.267V433.842H231.939Z" fill="#C29CC8"/>
<path d="M223.278 434.868C223.269 436.234 223.956 437.624 225.143 438.192L224.567 438.947C223.736 438.527 223.138 437.717 222.811 436.742C222.476 437.785 221.849 438.65 220.971 439.091L220.395 438.336C221.624 437.751 222.328 436.284 222.337 434.868V433.647H223.278V434.868ZM226.542 433.028V436.03H227.721V436.836H226.542V440.694H225.601V433.028H226.542Z" fill="#C29CC8"/>
<path d="M219.637 433.028V440.702H218.704V433.028H219.637ZM217.279 433.698V436.573H214.642V438.116C215.851 438.107 216.894 438.048 218.085 437.845L218.17 438.616C216.864 438.845 215.719 438.888 214.346 438.888H213.676V435.827H216.321V434.461H213.667V433.698H217.279Z" fill="#C29CC8"/>
<path d="M210.018 433.749V438.828H206.372V433.749H210.018ZM207.304 434.487V438.074H209.102V434.487H207.304ZM212.341 433.028V440.702H211.391V433.028H212.341Z" fill="#C29CC8"/>
<path d="M201.374 435.462C201.374 436.598 202.018 437.836 203.197 438.396L202.671 439.108C201.844 438.722 201.242 437.963 200.924 437.065C200.585 438.031 199.953 438.849 199.076 439.244L198.559 438.515C199.763 437.972 200.441 436.666 200.441 435.462V435.063H198.804V434.309H200.441V433.189H201.382V434.309H202.993V435.063H201.374V435.462ZM204.681 433.028V436.064H205.859V436.853H204.681V440.694H203.74V433.028H204.681Z" fill="#C29CC8"/>
<path d="M148.018 524.253V525.007H141.023V524.253H144.058V523.523H141.879V520.929H147.17V521.666H142.82V522.777H147.213V523.523H144.983V524.253H148.018ZM144.508 525.448C146.161 525.448 147.153 525.949 147.162 526.847C147.153 527.738 146.161 528.246 144.508 528.246C142.837 528.246 141.837 527.738 141.837 526.847C141.837 525.949 142.837 525.448 144.508 525.448ZM144.508 526.169C143.388 526.169 142.786 526.406 142.795 526.847C142.786 527.288 143.388 527.517 144.508 527.517C145.602 527.517 146.212 527.288 146.221 526.847C146.212 526.406 145.602 526.169 144.508 526.169Z" fill="#C29CC8"/>
<path d="M136.22 521.115C137.432 521.107 138.323 521.878 138.331 522.964C138.323 524.058 137.432 524.821 136.22 524.821C135.016 524.821 134.117 524.058 134.117 522.964C134.117 521.878 135.016 521.107 136.22 521.115ZM136.22 521.929C135.55 521.929 135.05 522.328 135.05 522.964C135.05 523.608 135.55 523.998 136.22 523.998C136.898 523.998 137.407 523.608 137.407 522.964C137.407 522.328 136.898 521.929 136.22 521.929ZM140.12 520.581V528.255H139.179V520.581H140.12ZM133.769 525.881C135.151 525.881 137.068 525.864 138.721 525.626L138.798 526.313C137.076 526.644 135.236 526.652 133.888 526.652L133.769 525.881Z" fill="#C29CC8"/>
<path d="M132.494 520.581V522.447H133.563V523.218H132.494V525.075H131.553V520.581H132.494ZM130.374 521.107C130.374 523.125 129.06 524.549 126.796 525.194L126.423 524.431C128.161 523.956 129.191 523.019 129.357 521.87H126.771V521.107H130.374ZM130.018 525.168C131.57 525.168 132.579 525.762 132.579 526.703C132.579 527.661 131.57 528.238 130.018 528.238C128.475 528.238 127.449 527.661 127.457 526.703C127.449 525.762 128.475 525.168 130.018 525.168ZM130.018 525.906C129.009 525.906 128.382 526.194 128.39 526.703C128.382 527.203 129.009 527.5 130.018 527.5C131.027 527.5 131.655 527.203 131.655 526.703C131.655 526.194 131.027 525.906 130.018 525.906Z" fill="#C29CC8"/>
<path d="M125.758 520.581V528.246H124.859V524.337H123.994V527.856H123.129V520.725H123.994V523.583H124.859V520.581H125.758ZM122.264 521.488V522.252H120.348V525.66C121.183 525.652 121.87 525.609 122.646 525.465L122.714 526.237C121.79 526.423 120.984 526.449 119.916 526.457H119.398V521.488H122.264Z" fill="#C29CC8"/>
<path d="M213.346 555.157V555.615C213.338 556.141 213.338 556.896 213.16 557.871L212.227 557.786C212.376 556.993 212.405 556.408 212.422 555.938H209.437V555.157H213.346ZM211.413 556.904V558.431C212.206 558.401 213.02 558.341 213.762 558.236L213.813 558.914C212.219 559.202 210.413 559.228 209.064 559.236L208.979 558.481C209.433 558.477 209.942 558.473 210.48 558.464V556.904H211.413ZM215.178 554.589V556.981H216.17V557.769H215.178V560.33H214.211V554.589H215.178ZM215.424 561.339V562.102H210.124V559.821H211.074V561.339H215.424Z" fill="#C29CC8"/>
<path d="M208.162 554.589V562.255H207.221V554.589H208.162ZM201.811 560.126C202.422 560.122 203.113 560.122 203.838 560.101V559.397C202.973 559.262 202.413 558.732 202.413 558.007C202.413 557.142 203.176 556.565 204.296 556.565C205.424 556.565 206.204 557.142 206.204 558.007C206.204 558.727 205.64 559.253 204.779 559.389V560.067C205.453 560.037 206.132 559.982 206.772 559.897L206.84 560.601C205.152 560.89 203.329 560.907 201.947 560.907L201.811 560.126ZM206.636 555.471V556.217H201.972V555.471H203.838V554.615H204.779V555.471H206.636ZM204.296 557.286C203.719 557.294 203.304 557.557 203.312 558.007C203.304 558.447 203.719 558.71 204.296 558.702C204.898 558.71 205.296 558.447 205.296 558.007C205.296 557.557 204.898 557.294 204.296 557.286Z" fill="#C29CC8"/>
<path d="M197.229 556.429C197.22 557.795 197.907 559.185 199.094 559.753L198.518 560.508C197.687 560.088 197.089 559.278 196.762 558.303C196.427 559.346 195.8 560.211 194.922 560.652L194.346 559.897C195.575 559.312 196.279 557.845 196.287 556.429V555.208H197.229V556.429ZM200.493 554.589V557.591H201.672V558.397H200.493V562.255H199.552V554.589H200.493Z" fill="#C29CC8"/>
<path d="M194.199 558.422V559.177H191.239V560.584H190.307V559.177H187.195V558.422H194.199ZM193.3 554.937V557.71H188.085V554.937H193.3ZM189.001 555.675V556.972H192.367V555.675H189.001ZM193.427 561.339V562.102H188.043V559.881H188.984V561.339H193.427Z" fill="#C29CC8"/>
<path d="M186.301 554.598V560.135H185.351V554.598H186.301ZM186.513 561.339V562.102H181.23V559.575H182.18V561.339H186.513ZM182.12 555.098C183.282 555.098 184.181 555.904 184.181 557.014C184.181 558.151 183.282 558.939 182.12 558.939C180.95 558.939 180.051 558.151 180.051 557.014C180.051 555.904 180.95 555.098 182.12 555.098ZM182.12 555.921C181.467 555.921 180.967 556.353 180.976 557.014C180.967 557.693 181.467 558.117 182.12 558.117C182.756 558.117 183.256 557.693 183.256 557.014C183.256 556.353 182.756 555.921 182.12 555.921Z" fill="#C29CC8"/>
<path d="M279.105 560.287C279.096 561.296 279.732 562.255 280.936 562.645L280.444 563.391C279.592 563.103 278.99 562.526 278.655 561.788C278.312 562.602 277.68 563.238 276.79 563.552L276.264 562.806C277.527 562.399 278.155 561.364 278.155 560.279V559.406H279.105V560.287ZM282.403 558.931V561.195H283.471V561.992H282.403V564.561H281.462V558.931H282.403ZM282.708 565.68V566.443H277.493V564.01H278.46V565.68H282.708Z" fill="#C29CC8"/>
<path d="M276.066 562.602V563.357H269.07V562.602H272.106V561.873H269.927V559.278H275.218V560.016H270.868V561.127H275.26V561.873H273.03V562.602H276.066ZM272.555 563.798C274.209 563.798 275.201 564.298 275.209 565.197C275.201 566.087 274.209 566.596 272.555 566.596C270.885 566.596 269.884 566.087 269.884 565.197C269.884 564.298 270.885 563.798 272.555 563.798ZM272.555 564.519C271.436 564.519 270.834 564.756 270.843 565.197C270.834 565.638 271.436 565.867 272.555 565.867C273.649 565.867 274.26 565.638 274.268 565.197C274.26 564.756 273.649 564.519 272.555 564.519Z" fill="#C29CC8"/>
<path d="M268.787 564.883V565.672H261.783V564.883H268.787ZM268.176 559.643V560.398H267.057V562.84H268.151V563.586H262.385V562.84H263.462V560.398H262.36V559.643H268.176ZM264.403 562.84H266.124V560.398H264.403V562.84Z" fill="#C29CC8"/>
<path d="M258.396 559.643V561.636H259.991V558.931H260.923V566.605H259.991V562.399H258.396V564.705H254.784V559.643H258.396ZM255.725 560.381V563.959H257.472V560.381H255.725Z" fill="#C29CC8"/>
<path d="M251.168 559.982C251.168 561.169 252.33 562.356 253.933 562.636L253.509 563.425C252.224 563.153 251.173 562.377 250.677 561.347C250.168 562.369 249.116 563.149 247.836 563.425L247.42 562.636C249.006 562.348 250.159 561.161 250.168 559.982V559.414H251.168V559.982ZM254.212 564.841V565.621H247.208V564.841H254.212Z" fill="#C29CC8"/>
<path d="M262.498 521.149V521.607C262.49 522.133 262.49 522.887 262.311 523.863L261.379 523.778C261.527 522.985 261.557 522.4 261.574 521.929H258.589V521.149H262.498ZM260.565 522.896V524.422C261.358 524.393 262.172 524.333 262.913 524.227L262.964 524.906C261.37 525.194 259.564 525.219 258.216 525.228L258.131 524.473C258.585 524.469 259.094 524.465 259.632 524.456V522.896H260.565ZM264.33 520.581V522.972H265.322V523.761H264.33V526.322H263.363V520.581H264.33ZM264.575 527.331V528.094H259.276V525.813H260.226V527.331H264.575Z" fill="#C29CC8"/>
<path d="M253.761 522.421C253.761 523.846 254.439 525.245 255.66 525.779L255.092 526.534C254.223 526.11 253.613 525.296 253.286 524.295C252.951 525.351 252.328 526.228 251.446 526.678L250.853 525.915C252.099 525.33 252.794 523.854 252.803 522.421V521.2H253.761V522.421ZM257.356 520.581V528.255H256.424V523.82H254.812V523.057H256.424V520.581H257.356Z" fill="#C29CC8"/>
<path d="M249.865 524.066V524.812H247.593V526.568H250.646V527.339H243.642V526.568H246.66V524.812H244.49V521.149H249.806V521.904H245.431V524.066H249.865Z" fill="#C29CC8"/>
<path d="M486.084 233.321V240.995H485.152V236.857H483.71V236.094H485.152V233.321H486.084ZM483.591 233.982V234.754H480.954V236.128H483.286V236.874H480.954V238.451C482.12 238.447 482.994 238.409 483.981 238.248L484.075 239.011C482.955 239.18 481.98 239.223 480.607 239.231H480.005V233.982H483.591Z" fill="#C29CC8"/>
<path d="M478.924 233.321V239.062H478.025V233.321H478.924ZM477.39 233.457V238.833H476.491V235.916H475.465V235.144H476.491V233.457H477.39ZM479.136 240.071V240.834H473.794V238.375H474.735V240.071H479.136ZM474.735 234.89C474.735 235.78 475.176 236.679 476.152 237.111L475.626 237.841C474.981 237.544 474.54 237.027 474.286 236.399C474.015 237.103 473.536 237.696 472.836 238.027L472.319 237.315C473.336 236.823 473.82 235.797 473.82 234.89V233.847H474.735V234.89Z" fill="#C29CC8"/>
<path d="M472.07 237.315V238.078H465.083V237.315H468.093V236.637C466.694 236.535 465.804 235.971 465.804 235.085C465.804 234.127 466.897 233.533 468.568 233.533C470.238 233.533 471.324 234.127 471.332 235.085C471.324 235.971 470.442 236.535 469.043 236.637V237.315H472.07ZM471.281 240.071V240.834H465.948V238.604H466.889V240.071H471.281ZM468.568 234.279C467.457 234.288 466.779 234.576 466.787 235.085C466.779 235.619 467.457 235.89 468.568 235.89C469.687 235.89 470.357 235.619 470.357 235.085C470.357 234.576 469.687 234.288 468.568 234.279Z" fill="#C29CC8"/>
<path d="M463.799 233.321V236.263H464.977V237.052H463.799V240.995H462.866V233.321H463.799ZM461.628 233.991V236.882H459.05V238.409C460.263 238.4 461.208 238.349 462.281 238.163L462.366 238.926C461.187 239.138 460.136 239.189 458.745 239.189H458.118V236.128H460.687V234.754H458.101V233.991H461.628Z" fill="#C29CC8"/>
</svg>
