<svg width="237" height="89" viewBox="0 0 237 89" fill="none" xmlns="http://www.w3.org/2000/svg">
<path d="M47.1387 1.5C49.4608 1.5 51.1178 3.71037 50.5186 5.91211L50.4531 6.125L35.2432 50.9258C34.6928 52.547 35.8984 54.2292 37.6104 54.2295H48.5762C49.9567 54.2293 51.0762 53.1101 51.0762 51.7295V5C51.0762 3.067 52.6432 1.5 54.5762 1.5H72.2354C74.1683 1.5 75.7354 3.067 75.7354 5V51.7295C75.7354 53.1101 76.8548 54.2293 78.2354 54.2295H82C83.9329 54.2295 85.4998 55.7967 85.5 57.7295V71.8174C85.5 73.7504 83.933 75.3174 82 75.3174H78.2354C76.8548 75.3175 75.7354 76.4368 75.7354 77.8174V85C75.7354 86.933 74.1683 88.5 72.2354 88.5H54.5762C52.6432 88.5 51.0762 86.933 51.0762 85V77.8174C51.0761 76.4368 49.9567 75.3176 48.5762 75.3174H4.32812C1.8847 75.3174 0.193288 72.8769 1.05078 70.5889L26.0918 3.77148L26.1973 3.52148C26.7679 2.29604 28.0012 1.50017 29.3691 1.5H47.1387Z" fill="#C29CC8" stroke="#EDEAF6"/>
<mask id="path-2-outside-1_507_2034" maskUnits="userSpaceOnUse" x="83.2969" y="0" width="75" height="89" fill="black">
<rect fill="white" x="83.2969" width="75" height="89"/>
<path d="M120.912 1C145.444 1.12185 157.283 10.8697 157.283 34.2646V53.6387C157.283 76.4244 145.2 87.8782 120.912 88C96.502 88 84.2969 76.5462 84.2969 53.6387V34.2646C84.2969 10.8698 96.1358 1.00003 120.912 1ZM123.142 10.4375C121.324 10.5169 119.987 10.9808 119.055 11.7383C118.117 12.5002 117.639 13.5169 117.463 14.5947C117.119 16.701 117.911 19.1084 118.717 20.6748C118.952 21.2703 119.205 22.2194 119.208 23.1279C119.211 23.9979 118.989 24.7129 118.449 25.126L118.337 25.2041C118.235 25.2693 118.027 25.3353 117.664 25.3594C117.312 25.3826 116.868 25.364 116.342 25.3096C115.288 25.2007 113.97 24.9558 112.506 24.6729C109.607 24.1124 106.15 23.4014 103.335 23.4014C102.766 23.4014 102.272 23.5248 101.87 23.7959C101.466 24.0687 101.202 24.4601 101.038 24.9121C100.723 25.7842 100.754 26.9637 100.901 28.252C101.05 29.5554 101.335 31.0849 101.593 32.6768C101.853 34.2819 102.09 35.977 102.158 37.6641L102.167 37.9805C102.178 38.6928 102.122 39.2269 102.021 39.6191C101.905 40.0654 101.741 40.2921 101.587 40.4092C101.437 40.523 101.234 40.5825 100.936 40.5645C100.63 40.5458 100.259 40.4468 99.8223 40.2793C98.9305 39.937 97.9521 39.3883 96.8672 38.8721C95.8933 38.4087 94.8407 37.9779 93.8574 37.9092L93.6611 37.9004C91.9408 37.8673 90.809 38.3857 90.0361 39.292C89.4825 39.9414 89.1402 40.7626 88.8682 41.6094L88.6143 42.46C88.1115 44.2267 88.9444 46.1931 90.5605 47.3867C92.2017 48.5986 94.6513 49.0333 97.457 47.8252L97.8262 47.6758C98.6609 47.3593 99.3112 47.267 99.8154 47.3047C100.381 47.3471 100.788 47.5543 101.097 47.8379C101.655 48.3514 101.928 49.1463 102.095 49.8297C102.14 50.0132 102.162 50.2015 102.166 50.3905C102.226 53.5859 101.866 56.8973 101.545 59.5938C101.38 60.9807 101.224 62.217 101.146 63.1738C101.106 63.6523 101.085 64.0767 101.094 64.4238C101.102 64.7483 101.136 65.0858 101.261 65.3359L101.3 65.4043C101.396 65.5545 101.535 65.6495 101.646 65.709C101.78 65.781 101.936 65.8346 102.094 65.876C102.411 65.9591 102.819 66.0145 103.278 66.0518C104.203 66.1266 105.421 66.1331 106.734 66.0996C109.367 66.0324 112.445 65.8027 114.477 65.6113L114.485 65.6104L114.493 65.6094C115.946 65.4223 117.011 65.4307 117.778 65.5537C118.547 65.6769 118.983 65.91 119.223 66.1416C119.657 66.5614 119.61 67.1821 119.308 67.7354L119.298 67.752L119.29 67.7705C118.532 69.4596 117.91 72.2954 118.275 74.708C118.459 75.9202 118.9 77.0768 119.752 77.9131C120.616 78.7617 121.846 79.225 123.483 79.1504L123.825 79.1279C125.5 78.9856 126.645 78.3765 127.364 77.4268C128.115 76.4354 128.334 75.157 128.33 73.8984C128.326 72.6346 128.095 71.3162 127.876 70.1914C127.765 69.6208 127.658 69.1088 127.579 68.6572C127.5 68.202 127.457 67.8495 127.461 67.6016L127.476 67.3301C127.532 66.7343 127.739 66.4021 128.01 66.1816C128.354 65.9016 128.878 65.7369 129.622 65.6064L129.931 65.5684C130.697 65.5081 131.798 65.6385 133.103 65.8496C134.552 66.0841 136.224 66.4121 137.754 66.5977C139.273 66.7819 140.768 66.843 141.874 66.4932C142.439 66.3143 142.943 66.0166 143.283 65.5371C143.583 65.1146 143.724 64.5962 143.717 63.9951L143.705 63.7314C143.552 61.8041 143.71 59.937 143.912 57.8066C144.114 55.6824 144.358 53.3101 144.358 50.4248C144.358 49.9687 144.351 49.497 144.202 49.124C144.12 48.919 143.992 48.732 143.799 48.5859C143.61 48.4434 143.388 48.3604 143.148 48.3154C142.687 48.2288 142.067 48.2656 141.262 48.3779C140.647 48.4636 139.892 48.5992 138.966 48.7793L137.981 48.9736C136.159 49.3399 134.874 49.1567 133.963 48.7256C133.055 48.2955 132.462 47.5919 132.072 46.8096C131.28 45.217 131.365 43.3849 131.365 43.1689C131.365 43.009 131.385 42.1155 131.769 41.1191C132.149 40.1315 132.876 39.0655 134.285 38.4795L134.548 38.3848C135.173 38.1897 135.872 38.1856 136.629 38.3096C137.495 38.4515 138.397 38.7536 139.292 39.083C140.168 39.4053 141.062 39.7641 141.843 39.9775C142.605 40.1859 143.412 40.3036 144.069 39.998L144.16 39.9502C144.363 39.8292 144.505 39.6468 144.604 39.459C144.717 39.2452 144.791 38.9928 144.841 38.7275C144.94 38.1968 144.957 37.5216 144.922 36.7744C144.852 35.273 144.566 33.3672 144.2 31.4854C143.834 29.5998 143.385 27.718 142.983 26.2568C142.783 25.5271 142.592 24.8959 142.429 24.4199C142.347 24.1829 142.271 23.9771 142.2 23.8145C142.154 23.7083 142.097 23.5852 142.027 23.4814L141.954 23.3857C141.555 22.9379 141.007 22.7465 140.38 22.7119C139.764 22.6781 139.025 22.7914 138.169 22.9932C136.889 23.2948 135.239 23.8242 133.184 24.4688L130.992 25.1475C129.789 25.5137 128.966 25.5204 128.415 25.3574C127.887 25.201 127.562 24.8749 127.363 24.4404C127.156 23.9875 127.084 23.4056 127.114 22.7793C127.14 22.2478 127.239 21.7101 127.369 21.2384C127.407 21.0992 127.461 20.9653 127.521 20.8341C128.321 19.0878 129.082 16.5613 128.795 14.4277C128.642 13.2952 128.187 12.2339 127.247 11.4844C126.369 10.7844 125.131 10.4066 123.478 10.4277L123.142 10.4375Z"/>
</mask>
<path d="M120.912 1C145.444 1.12185 157.283 10.8697 157.283 34.2646V53.6387C157.283 76.4244 145.2 87.8782 120.912 88C96.502 88 84.2969 76.5462 84.2969 53.6387V34.2646C84.2969 10.8698 96.1358 1.00003 120.912 1ZM123.142 10.4375C121.324 10.5169 119.987 10.9808 119.055 11.7383C118.117 12.5002 117.639 13.5169 117.463 14.5947C117.119 16.701 117.911 19.1084 118.717 20.6748C118.952 21.2703 119.205 22.2194 119.208 23.1279C119.211 23.9979 118.989 24.7129 118.449 25.126L118.337 25.2041C118.235 25.2693 118.027 25.3353 117.664 25.3594C117.312 25.3826 116.868 25.364 116.342 25.3096C115.288 25.2007 113.97 24.9558 112.506 24.6729C109.607 24.1124 106.15 23.4014 103.335 23.4014C102.766 23.4014 102.272 23.5248 101.87 23.7959C101.466 24.0687 101.202 24.4601 101.038 24.9121C100.723 25.7842 100.754 26.9637 100.901 28.252C101.05 29.5554 101.335 31.0849 101.593 32.6768C101.853 34.2819 102.09 35.977 102.158 37.6641L102.167 37.9805C102.178 38.6928 102.122 39.2269 102.021 39.6191C101.905 40.0654 101.741 40.2921 101.587 40.4092C101.437 40.523 101.234 40.5825 100.936 40.5645C100.63 40.5458 100.259 40.4468 99.8223 40.2793C98.9305 39.937 97.9521 39.3883 96.8672 38.8721C95.8933 38.4087 94.8407 37.9779 93.8574 37.9092L93.6611 37.9004C91.9408 37.8673 90.809 38.3857 90.0361 39.292C89.4825 39.9414 89.1402 40.7626 88.8682 41.6094L88.6143 42.46C88.1115 44.2267 88.9444 46.1931 90.5605 47.3867C92.2017 48.5986 94.6513 49.0333 97.457 47.8252L97.8262 47.6758C98.6609 47.3593 99.3112 47.267 99.8154 47.3047C100.381 47.3471 100.788 47.5543 101.097 47.8379C101.655 48.3514 101.928 49.1463 102.095 49.8297C102.14 50.0132 102.162 50.2015 102.166 50.3905C102.226 53.5859 101.866 56.8973 101.545 59.5938C101.38 60.9807 101.224 62.217 101.146 63.1738C101.106 63.6523 101.085 64.0767 101.094 64.4238C101.102 64.7483 101.136 65.0858 101.261 65.3359L101.3 65.4043C101.396 65.5545 101.535 65.6495 101.646 65.709C101.78 65.781 101.936 65.8346 102.094 65.876C102.411 65.9591 102.819 66.0145 103.278 66.0518C104.203 66.1266 105.421 66.1331 106.734 66.0996C109.367 66.0324 112.445 65.8027 114.477 65.6113L114.485 65.6104L114.493 65.6094C115.946 65.4223 117.011 65.4307 117.778 65.5537C118.547 65.6769 118.983 65.91 119.223 66.1416C119.657 66.5614 119.61 67.1821 119.308 67.7354L119.298 67.752L119.29 67.7705C118.532 69.4596 117.91 72.2954 118.275 74.708C118.459 75.9202 118.9 77.0768 119.752 77.9131C120.616 78.7617 121.846 79.225 123.483 79.1504L123.825 79.1279C125.5 78.9856 126.645 78.3765 127.364 77.4268C128.115 76.4354 128.334 75.157 128.33 73.8984C128.326 72.6346 128.095 71.3162 127.876 70.1914C127.765 69.6208 127.658 69.1088 127.579 68.6572C127.5 68.202 127.457 67.8495 127.461 67.6016L127.476 67.3301C127.532 66.7343 127.739 66.4021 128.01 66.1816C128.354 65.9016 128.878 65.7369 129.622 65.6064L129.931 65.5684C130.697 65.5081 131.798 65.6385 133.103 65.8496C134.552 66.0841 136.224 66.4121 137.754 66.5977C139.273 66.7819 140.768 66.843 141.874 66.4932C142.439 66.3143 142.943 66.0166 143.283 65.5371C143.583 65.1146 143.724 64.5962 143.717 63.9951L143.705 63.7314C143.552 61.8041 143.71 59.937 143.912 57.8066C144.114 55.6824 144.358 53.3101 144.358 50.4248C144.358 49.9687 144.351 49.497 144.202 49.124C144.12 48.919 143.992 48.732 143.799 48.5859C143.61 48.4434 143.388 48.3604 143.148 48.3154C142.687 48.2288 142.067 48.2656 141.262 48.3779C140.647 48.4636 139.892 48.5992 138.966 48.7793L137.981 48.9736C136.159 49.3399 134.874 49.1567 133.963 48.7256C133.055 48.2955 132.462 47.5919 132.072 46.8096C131.28 45.217 131.365 43.3849 131.365 43.1689C131.365 43.009 131.385 42.1155 131.769 41.1191C132.149 40.1315 132.876 39.0655 134.285 38.4795L134.548 38.3848C135.173 38.1897 135.872 38.1856 136.629 38.3096C137.495 38.4515 138.397 38.7536 139.292 39.083C140.168 39.4053 141.062 39.7641 141.843 39.9775C142.605 40.1859 143.412 40.3036 144.069 39.998L144.16 39.9502C144.363 39.8292 144.505 39.6468 144.604 39.459C144.717 39.2452 144.791 38.9928 144.841 38.7275C144.94 38.1968 144.957 37.5216 144.922 36.7744C144.852 35.273 144.566 33.3672 144.2 31.4854C143.834 29.5998 143.385 27.718 142.983 26.2568C142.783 25.5271 142.592 24.8959 142.429 24.4199C142.347 24.1829 142.271 23.9771 142.2 23.8145C142.154 23.7083 142.097 23.5852 142.027 23.4814L141.954 23.3857C141.555 22.9379 141.007 22.7465 140.38 22.7119C139.764 22.6781 139.025 22.7914 138.169 22.9932C136.889 23.2948 135.239 23.8242 133.184 24.4688L130.992 25.1475C129.789 25.5137 128.966 25.5204 128.415 25.3574C127.887 25.201 127.562 24.8749 127.363 24.4404C127.156 23.9875 127.084 23.4056 127.114 22.7793C127.14 22.2478 127.239 21.7101 127.369 21.2384C127.407 21.0992 127.461 20.9653 127.521 20.8341C128.321 19.0878 129.082 16.5613 128.795 14.4277C128.642 13.2952 128.187 12.2339 127.247 11.4844C126.369 10.7844 125.131 10.4066 123.478 10.4277L123.142 10.4375Z" fill="#C29CC8"/>
<path d="M120.912 1L120.917 0H120.912V1ZM157.283 34.2646H158.283H157.283ZM157.283 53.6387H158.283H157.283ZM120.912 88V89L120.917 89L120.912 88ZM84.2969 53.6387H83.2969H84.2969ZM84.2969 34.2646H83.2969H84.2969ZM123.142 10.4375L123.113 9.43792L123.105 9.43813L123.098 9.43845L123.142 10.4375ZM119.055 11.7383L118.424 10.9621L118.424 10.9621L119.055 11.7383ZM117.463 14.5947L116.476 14.4334L116.476 14.4335L117.463 14.5947ZM118.717 20.6748L119.647 20.3077L119.629 20.2614L119.606 20.2172L118.717 20.6748ZM119.208 23.1279L120.208 23.1248V23.1247L119.208 23.1279ZM118.449 25.126L119.02 25.9469L119.039 25.9339L119.057 25.9201L118.449 25.126ZM118.337 25.2041L118.875 26.0472L118.892 26.0364L118.908 26.025L118.337 25.2041ZM117.664 25.3594L117.73 26.3572L117.73 26.3572L117.664 25.3594ZM116.342 25.3096L116.239 26.3043L116.239 26.3043L116.342 25.3096ZM112.506 24.6729L112.316 25.6547L112.506 24.6729ZM103.335 23.4014L103.335 22.4014H103.335V23.4014ZM101.87 23.7959L101.311 22.9671L101.31 22.9672L101.87 23.7959ZM101.038 24.9121L100.098 24.5718L100.098 24.572L101.038 24.9121ZM100.901 28.252L99.9078 28.3656L99.9078 28.3656L100.901 28.252ZM101.593 32.6768L102.58 32.5168L102.58 32.5168L101.593 32.6768ZM102.158 37.6641L103.158 37.6363L103.157 37.624L102.158 37.6641ZM102.167 37.9805L103.167 37.965L103.167 37.9527L102.167 37.9805ZM102.021 39.6191L102.989 39.8698L102.989 39.8695L102.021 39.6191ZM101.587 40.4092L102.192 41.2051L102.193 41.2048L101.587 40.4092ZM100.936 40.5645L100.875 41.5626L100.875 41.5626L100.936 40.5645ZM99.8223 40.2793L99.4639 41.2129L99.464 41.2129L99.8223 40.2793ZM96.8672 38.8721L97.2968 37.9691L97.2968 37.9691L96.8672 38.8721ZM93.8574 37.9092L93.9271 36.9116L93.9146 36.9107L93.9022 36.9102L93.8574 37.9092ZM93.6611 37.9004L93.7059 36.9014L93.6931 36.9008L93.6804 36.9006L93.6611 37.9004ZM90.0361 39.292L89.2753 38.6431L89.2752 38.6432L90.0361 39.292ZM88.8682 41.6094L87.9161 41.3035L87.9129 41.3134L87.9099 41.3233L88.8682 41.6094ZM88.6143 42.46L87.656 42.1739L87.6524 42.1863L88.6143 42.46ZM90.5605 47.3867L89.9664 48.1911L89.9665 48.1912L90.5605 47.3867ZM97.457 47.8252L97.0818 46.8982L97.0716 46.9024L97.0615 46.9067L97.457 47.8252ZM97.8262 47.6758L97.4717 46.7407L97.4613 46.7447L97.451 46.7488L97.8262 47.6758ZM99.8154 47.3047L99.8902 46.3075L99.89 46.3075L99.8154 47.3047ZM101.097 47.8379L101.774 47.1019L101.773 47.1016L101.097 47.8379ZM101.545 59.5938L102.538 59.712L101.545 59.5938ZM101.146 63.1738L100.149 63.0924L100.149 63.0925L101.146 63.1738ZM101.094 64.4238L100.094 64.4492L100.094 64.4493L101.094 64.4238ZM101.261 65.3359L100.365 65.7809L100.378 65.8069L100.392 65.8321L101.261 65.3359ZM101.3 65.4043L100.432 65.9004L100.444 65.9228L100.458 65.9445L101.3 65.4043ZM101.646 65.709L101.172 66.5899L101.173 66.5901L101.646 65.709ZM102.094 65.876L101.841 66.8434L101.841 66.8434L102.094 65.876ZM103.278 66.0518L103.198 67.0485H103.198L103.278 66.0518ZM106.734 66.0996L106.76 67.0993H106.76L106.734 66.0996ZM114.477 65.6113L114.57 66.6069L114.579 66.6061L114.587 66.6052L114.477 65.6113ZM114.485 65.6104L114.596 66.6043L114.609 66.6026L114.485 65.6104ZM114.493 65.6094L114.617 66.6017L114.621 66.6012L114.493 65.6094ZM117.778 65.5537L117.937 64.5663L117.937 64.5663L117.778 65.5537ZM119.223 66.1416L119.917 65.4222L119.917 65.4219L119.223 66.1416ZM119.308 67.7354L120.17 68.2424L120.177 68.2291L120.185 68.2155L119.308 67.7354ZM119.298 67.752L118.436 67.2449L118.402 67.3024L118.376 67.3639L119.298 67.752ZM119.29 67.7705L120.202 68.18L120.207 68.1693L120.212 68.1586L119.29 67.7705ZM118.275 74.708L117.287 74.8577L117.287 74.8578L118.275 74.708ZM119.752 77.9131L119.051 78.6266L119.051 78.6267L119.752 77.9131ZM123.483 79.1504L123.529 80.1494L123.539 80.1489L123.549 80.1482L123.483 79.1504ZM123.825 79.1279L123.891 80.1258L123.9 80.1251L123.91 80.1243L123.825 79.1279ZM127.364 77.4268L128.162 78.0303L128.162 78.0302L127.364 77.4268ZM128.33 73.8984L129.33 73.8952V73.8951L128.33 73.8984ZM127.876 70.1914L128.858 70.0003L128.858 70.0003L127.876 70.1914ZM127.579 68.6572L126.594 68.8292L126.594 68.8292L127.579 68.6572ZM127.461 67.6016L126.462 67.5477L126.461 67.5664L126.461 67.5852L127.461 67.6016ZM127.476 67.3301L126.48 67.2363L126.478 67.2562L126.477 67.2762L127.476 67.3301ZM128.01 66.1816L127.379 65.4056L127.379 65.4058L128.01 66.1816ZM129.622 65.6064L129.5 64.614L129.474 64.6171L129.45 64.6214L129.622 65.6064ZM129.931 65.5684L129.852 64.5714L129.83 64.5732L129.808 64.5759L129.931 65.5684ZM133.103 65.8496L133.262 64.8624H133.262L133.103 65.8496ZM137.754 66.5977L137.634 67.5904H137.634L137.754 66.5977ZM141.874 66.4932L142.176 67.4466L142.176 67.4466L141.874 66.4932ZM143.283 65.5371L144.099 66.1159L144.099 66.1158L143.283 65.5371ZM143.717 63.9951L144.717 63.9833L144.717 63.967L144.716 63.9507L143.717 63.9951ZM143.705 63.7314L144.704 63.687L144.703 63.6697L144.702 63.6523L143.705 63.7314ZM143.912 57.8066L142.917 57.712V57.712L143.912 57.8066ZM144.358 50.4248L145.358 50.4248V50.4248H144.358ZM144.202 49.124L145.131 48.7526L145.13 48.7523L144.202 49.124ZM143.799 48.5859L144.402 47.7886L144.402 47.7882L143.799 48.5859ZM143.148 48.3154L143.333 47.3326L143.333 47.3326L143.148 48.3154ZM141.262 48.3779L141.124 47.3875H141.124L141.262 48.3779ZM138.966 48.7793L138.775 47.7977L138.772 47.7982L138.966 48.7793ZM137.981 48.9736L137.788 47.9926L137.784 47.9932L137.981 48.9736ZM133.963 48.7256L133.535 49.6294L133.535 49.6294L133.963 48.7256ZM132.072 46.8096L131.177 47.2551L131.177 47.2552L132.072 46.8096ZM131.365 43.1689L132.365 43.1696V43.1689H131.365ZM131.769 41.1191L130.835 40.7598L130.835 40.7599L131.769 41.1191ZM134.285 38.4795L133.946 37.5388L133.923 37.5469L133.901 37.5562L134.285 38.4795ZM134.548 38.3848L134.25 37.4302L134.229 37.4367L134.209 37.4441L134.548 38.3848ZM136.629 38.3096L136.791 37.3227L136.791 37.3227L136.629 38.3096ZM139.292 39.083L139.637 38.1445L139.637 38.1445L139.292 39.083ZM141.843 39.9775L141.579 40.9422L141.579 40.9422L141.843 39.9775ZM144.069 39.998L144.491 40.9048L144.513 40.8943L144.535 40.8828L144.069 39.998ZM144.16 39.9502L144.626 40.8349L144.65 40.8226L144.672 40.8091L144.16 39.9502ZM144.604 39.459L145.489 39.9258L145.489 39.9256L144.604 39.459ZM144.841 38.7275L145.824 38.911L145.824 38.9107L144.841 38.7275ZM144.922 36.7744L145.921 36.7279V36.7279L144.922 36.7744ZM144.2 31.4854L145.182 31.2948L145.182 31.2948L144.2 31.4854ZM142.983 26.2568L143.948 25.9918L143.948 25.9918L142.983 26.2568ZM142.429 24.4199L143.374 24.095L143.374 24.095L142.429 24.4199ZM142.2 23.8145L143.118 23.4175L143.118 23.4174L142.2 23.8145ZM142.027 23.4814L142.859 22.9264L142.841 22.8994L142.821 22.8737L142.027 23.4814ZM141.954 23.3857L142.748 22.778L142.726 22.7485L142.701 22.7207L141.954 23.3857ZM140.38 22.7119L140.435 21.7134L140.435 21.7134L140.38 22.7119ZM138.169 22.9932L137.94 22.0198L137.939 22.0198L138.169 22.9932ZM133.184 24.4688L133.479 25.424L133.483 25.4229L133.184 24.4688ZM130.992 25.1475L131.283 26.1041L131.288 26.1027L130.992 25.1475ZM128.415 25.3574L128.131 26.3162L128.131 26.3163L128.415 25.3574ZM127.363 24.4404L126.454 24.856L126.454 24.8563L127.363 24.4404ZM127.114 22.7793L126.115 22.7307L126.115 22.7308L127.114 22.7793ZM128.795 14.4277L129.786 14.2942L129.786 14.2941L128.795 14.4277ZM127.247 11.4844L127.871 10.7025L127.87 10.7024L127.247 11.4844ZM123.478 10.4277L123.465 9.42782L123.457 9.42792L123.448 9.42816L123.478 10.4277ZM127.369 21.2384L128.333 21.5046L127.369 21.2384ZM127.521 20.8341L128.43 21.2504L127.521 20.8341ZM102.095 49.8297L101.124 50.0674L102.095 49.8297ZM102.166 50.3905L101.166 50.4095L102.166 50.3905ZM120.912 1L120.907 1.99999C133.072 2.06041 141.871 4.5118 147.632 9.65111C153.366 14.7672 156.283 22.725 156.283 34.2646H157.283H158.283C158.283 22.4094 155.281 13.7958 148.963 8.15874C142.671 2.54491 133.284 0.0614375 120.917 1.23382e-05L120.912 1ZM157.283 34.2646H156.283V53.6387H157.283H158.283V34.2646H157.283ZM157.283 53.6387H156.283C156.283 64.8614 153.31 73.1153 147.519 78.5917C141.715 84.0788 132.912 86.9398 120.907 87L120.912 88L120.917 89C133.2 88.9384 142.582 86.0115 148.893 80.0449C155.214 74.0675 158.283 65.2016 158.283 53.6387H157.283ZM120.912 88V87C108.846 87 99.9824 84.1679 94.135 78.6805C88.2996 73.2042 85.2969 64.9215 85.2969 53.6387H84.2969H83.2969C83.2969 65.2634 86.3967 74.1613 92.7664 80.1388C99.1241 86.1052 108.568 89 120.912 89V88ZM84.2969 53.6387H85.2969V34.2646H84.2969H83.2969V53.6387H84.2969ZM84.2969 34.2646H85.2969C85.2969 22.7246 88.2145 14.7371 93.9783 9.60617C99.7677 4.4524 108.626 2.00002 120.912 2V1V0C108.422 1.51992e-05 98.9726 2.48251 92.6485 8.11234C86.2987 13.765 83.2969 22.4098 83.2969 34.2646H84.2969ZM123.142 10.4375L123.098 9.43845C121.138 9.52406 119.572 10.0296 118.424 10.9621L119.055 11.7383L119.685 12.5145C120.402 11.932 121.509 11.5098 123.185 11.4365L123.142 10.4375ZM119.055 11.7383L118.424 10.9621C117.26 11.9081 116.683 13.1648 116.476 14.4334L117.463 14.5947L118.45 14.7561C118.595 13.869 118.974 13.0923 119.685 12.5144L119.055 11.7383ZM117.463 14.5947L116.476 14.4335C116.081 16.8483 116.981 19.4872 117.828 21.1324L118.717 20.6748L119.606 20.2172C118.84 18.7297 118.156 16.5537 118.45 14.756L117.463 14.5947ZM118.717 20.6748L117.787 21.0419C117.99 21.5564 118.206 22.3799 118.208 23.1311L119.208 23.1279L120.208 23.1247C120.205 22.0589 119.914 20.9842 119.647 20.3077L118.717 20.6748ZM119.208 23.1279L118.208 23.131C118.21 23.8709 118.017 24.1972 117.841 24.3319L118.449 25.126L119.057 25.9201C119.961 25.2285 120.211 24.1249 120.208 23.1248L119.208 23.1279ZM118.449 25.126L117.878 24.3051L117.766 24.3832L118.337 25.2041L118.908 26.025L119.02 25.9469L118.449 25.126ZM118.337 25.2041L117.799 24.361C117.837 24.3371 117.863 24.3262 117.87 24.3235C117.877 24.3204 117.873 24.3226 117.855 24.3274C117.816 24.3372 117.734 24.3525 117.598 24.3616L117.664 25.3594L117.73 26.3572C118.151 26.3294 118.56 26.2479 118.875 26.0472L118.337 25.2041ZM117.664 25.3594L117.598 24.3616C117.326 24.3795 116.945 24.3666 116.445 24.3149L116.342 25.3096L116.239 26.3043C116.792 26.3614 117.298 26.3857 117.73 26.3572L117.664 25.3594ZM116.342 25.3096L116.445 24.3149C115.442 24.2113 114.167 23.9755 112.696 23.691L112.506 24.6729L112.316 25.6547C113.772 25.936 115.134 26.1901 116.239 26.3043L116.342 25.3096ZM112.506 24.6729L112.696 23.691C109.838 23.1387 106.269 22.4014 103.335 22.4014L103.335 23.4014L103.335 24.4014C106.031 24.4014 109.375 25.0862 112.316 25.6547L112.506 24.6729ZM103.335 23.4014V22.4014C102.623 22.4014 101.919 22.5564 101.311 22.9671L101.87 23.7959L102.43 24.6247C102.624 24.4933 102.908 24.4014 103.335 24.4014V23.4014ZM101.87 23.7959L101.31 22.9672C100.694 23.3832 100.317 23.9668 100.098 24.5718L101.038 24.9121L101.978 25.2525C102.087 24.9534 102.238 24.7543 102.43 24.6246L101.87 23.7959ZM101.038 24.9121L100.098 24.572C99.695 25.6853 99.7603 27.076 99.9078 28.3656L100.901 28.252L101.895 28.1383C101.748 26.8515 101.75 25.8831 101.978 25.2522L101.038 24.9121ZM100.901 28.252L99.9078 28.3656C100.061 29.6999 100.353 31.2803 100.606 32.8367L101.593 32.6768L102.58 32.5168C102.316 30.8894 102.04 29.4108 101.895 28.1383L100.901 28.252ZM101.593 32.6768L100.606 32.8367C100.864 34.4315 101.094 36.0788 101.159 37.7042L102.158 37.6641L103.157 37.624C103.087 35.8751 102.842 34.1322 102.58 32.5168L101.593 32.6768ZM102.158 37.6641L101.159 37.6918L101.167 38.0082L102.167 37.9805L103.167 37.9527L103.158 37.6363L102.158 37.6641ZM102.167 37.9805L101.167 37.9959C101.177 38.6568 101.123 39.0937 101.052 39.3687L102.021 39.6191L102.989 39.8695C103.12 39.36 103.179 38.7289 103.167 37.965L102.167 37.9805ZM102.021 39.6191L101.052 39.3685C100.972 39.6788 100.9 39.6757 100.981 39.6136L101.587 40.4092L102.193 41.2048C102.582 40.9085 102.838 40.4519 102.989 39.8698L102.021 39.6191ZM101.587 40.4092L100.981 39.6133C100.998 39.6005 101.016 39.5895 101.034 39.5809C101.052 39.5724 101.066 39.5682 101.073 39.5664C101.087 39.5631 101.067 39.5706 100.996 39.5663L100.936 40.5645L100.875 41.5626C101.338 41.5907 101.801 41.5031 102.192 41.2051L101.587 40.4092ZM100.936 40.5645L100.996 39.5663C100.839 39.5567 100.578 39.4982 100.181 39.3457L99.8223 40.2793L99.464 41.2129C99.9396 41.3954 100.421 41.5349 100.875 41.5626L100.936 40.5645ZM99.8223 40.2793L100.181 39.3457C99.3324 39.0201 98.4749 38.5296 97.2968 37.9691L96.8672 38.8721L96.4375 39.7751C97.4294 40.247 98.5287 40.8539 99.4639 41.2129L99.8223 40.2793ZM96.8672 38.8721L97.2968 37.9691C96.3175 37.5031 95.1155 36.9946 93.9271 36.9116L93.8574 37.9092L93.7877 38.9067C94.566 38.9611 95.4691 39.3143 96.4375 39.7751L96.8672 38.8721ZM93.8574 37.9092L93.9022 36.9102L93.7059 36.9014L93.6611 37.9004L93.6164 38.8994L93.8127 38.9082L93.8574 37.9092ZM93.6611 37.9004L93.6804 36.9006C91.7235 36.8629 90.2799 37.4651 89.2753 38.6431L90.0361 39.292L90.797 39.9409C91.3381 39.3064 92.1582 38.8717 93.6419 38.9002L93.6611 37.9004ZM90.0361 39.292L89.2752 38.6432C88.5908 39.4458 88.1999 40.4201 87.9161 41.3035L88.8682 41.6094L89.8202 41.9153C90.0806 41.1051 90.3741 40.4369 90.7971 39.9408L90.0361 39.292ZM88.8682 41.6094L87.9099 41.3233L87.656 42.1739L88.6143 42.46L89.5725 42.746L89.8264 41.8954L88.8682 41.6094ZM88.6143 42.46L87.6524 42.1863C87.0124 44.4356 88.0889 46.8044 89.9664 48.1911L90.5605 47.3867L91.1546 46.5823C89.7998 45.5817 89.2107 44.0178 89.5761 42.7337L88.6143 42.46ZM90.5605 47.3867L89.9665 48.1912C91.92 49.6336 94.7512 50.0791 97.8525 48.7437L97.457 47.8252L97.0615 46.9067C94.5514 47.9876 92.4835 47.5635 91.1546 46.5823L90.5605 47.3867ZM97.457 47.8252L97.8322 48.7521L98.2014 48.6027L97.8262 47.6758L97.451 46.7488L97.0818 46.8982L97.457 47.8252ZM97.8262 47.6758L98.1807 48.6108C98.9195 48.3307 99.4205 48.2779 99.7408 48.3019L99.8154 47.3047L99.89 46.3075C99.2019 46.256 98.4024 46.3879 97.4717 46.7407L97.8262 47.6758ZM99.8154 47.3047L99.7407 48.3019C100.076 48.327 100.273 48.4387 100.42 48.5742L101.097 47.8379L101.773 47.1016C101.304 46.6699 100.686 46.3671 99.8902 46.3075L99.8154 47.3047ZM101.097 47.8379L100.42 48.5739C100.744 48.872 100.962 49.4081 101.124 50.0674L102.095 49.8297L103.067 49.5919C102.893 48.8845 102.566 47.8308 101.774 47.1019L101.097 47.8379ZM102.166 50.3905L101.166 50.4095C101.225 53.5289 100.873 56.779 100.552 59.4755L101.545 59.5938L102.538 59.712C102.859 57.0156 103.228 53.643 103.166 50.3715L102.166 50.3905ZM101.545 59.5938L100.552 59.4755C100.389 60.8472 100.229 62.1115 100.149 63.0924L101.146 63.1738L102.142 63.2552C102.218 62.3226 102.371 61.1142 102.538 59.712L101.545 59.5938ZM101.146 63.1738L100.149 63.0925C100.109 63.5825 100.084 64.0486 100.094 64.4492L101.094 64.4238L102.093 64.3984C102.086 64.1048 102.104 63.7221 102.142 63.2552L101.146 63.1738ZM101.094 64.4238L100.094 64.4493C100.103 64.7841 100.135 65.3174 100.365 65.7809L101.261 65.3359L102.156 64.8909C102.156 64.8913 102.151 64.8808 102.144 64.8551C102.136 64.8297 102.128 64.7947 102.121 64.7486C102.106 64.654 102.097 64.5377 102.093 64.3983L101.094 64.4238ZM101.261 65.3359L100.392 65.8321L100.432 65.9004L101.3 65.4043L102.168 64.9082L102.129 64.8398L101.261 65.3359ZM101.3 65.4043L100.458 65.9445C100.684 66.2961 100.988 66.4909 101.172 66.5899L101.646 65.709L102.119 64.8281C102.104 64.8204 102.101 64.8169 102.104 64.8194C102.107 64.8224 102.124 64.8363 102.141 64.8641L101.3 65.4043ZM101.646 65.709L101.173 66.5901C101.402 66.7133 101.641 66.7911 101.841 66.8434L102.094 65.876L102.347 64.9086C102.23 64.8781 102.157 64.8487 102.118 64.8279L101.646 65.709ZM102.094 65.876L101.841 66.8434C102.242 66.9483 102.717 67.0095 103.198 67.0485L103.278 66.0518L103.359 65.055C102.921 65.0196 102.581 64.9698 102.347 64.9085L102.094 65.876ZM103.278 66.0518L103.198 67.0485C104.175 67.1277 105.435 67.1331 106.76 67.0993L106.734 66.0996L106.709 65.0999C105.406 65.1332 104.23 65.1256 103.359 65.055L103.278 66.0518ZM106.734 66.0996L106.76 67.0993C109.423 67.0313 112.526 66.7995 114.57 66.6069L114.477 65.6113L114.383 64.6157C112.364 64.8059 109.31 65.0335 106.709 65.0999L106.734 66.0996ZM114.477 65.6113L114.587 66.6052L114.596 66.6042L114.485 65.6104L114.375 64.6165L114.366 64.6174L114.477 65.6113ZM114.485 65.6104L114.609 66.6026L114.617 66.6017L114.493 65.6094L114.369 64.6171L114.361 64.6181L114.485 65.6104ZM114.493 65.6094L114.621 66.6012C116.017 66.4214 116.979 66.4384 117.62 66.5411L117.778 65.5537L117.937 64.5663C117.043 64.4231 115.875 64.4232 114.365 64.6176L114.493 65.6094ZM117.778 65.5537L117.62 66.5411C118.264 66.6443 118.483 66.8175 118.528 66.8613L119.223 66.1416L119.917 65.4219C119.482 65.0025 118.83 64.7096 117.937 64.5663L117.778 65.5537ZM119.223 66.1416L118.528 66.861C118.535 66.8673 118.537 66.8709 118.538 66.8716C118.538 66.872 118.538 66.8721 118.538 66.872C118.538 66.8719 118.538 66.8718 118.538 66.8718C118.538 66.8718 118.538 66.8722 118.538 66.8732C118.538 66.8741 118.539 66.8758 118.539 66.8783C118.54 66.8832 118.542 66.8921 118.542 66.9056C118.543 66.9661 118.522 67.0885 118.43 67.2552L119.308 67.7354L120.185 68.2155C120.587 67.4807 120.823 66.2969 119.917 65.4222L119.223 66.1416ZM119.308 67.7354L118.446 67.2283L118.436 67.2449L119.298 67.752L120.16 68.259L120.17 68.2424L119.308 67.7354ZM119.298 67.752L118.376 67.3639L118.368 67.3825L119.29 67.7705L120.212 68.1586L120.219 68.14L119.298 67.752ZM119.29 67.7705L118.378 67.3611C117.559 69.1852 116.887 72.216 117.287 74.8577L118.275 74.708L119.264 74.5583C118.933 72.3748 119.505 69.734 120.202 68.18L119.29 67.7705ZM118.275 74.708L117.287 74.8578C117.49 76.1963 117.992 77.5862 119.051 78.6266L119.752 77.9131L120.453 77.1996C119.809 76.5673 119.429 75.6441 119.264 74.5582L118.275 74.708ZM119.752 77.9131L119.051 78.6267C120.149 79.7042 121.667 80.2342 123.529 80.1494L123.483 79.1504L123.438 78.1514C122.025 78.2158 121.084 77.8191 120.453 77.1995L119.752 77.9131ZM123.483 79.1504L123.549 80.1482L123.891 80.1258L123.825 79.1279L123.76 78.1301L123.418 78.1525L123.483 79.1504ZM123.825 79.1279L123.91 80.1243C125.797 79.9639 127.233 79.2565 128.162 78.0303L127.364 77.4268L126.567 76.8232C126.057 77.4965 125.202 78.0072 123.74 78.1315L123.825 79.1279ZM127.364 77.4268L128.162 78.0302C129.104 76.7848 129.334 75.2461 129.33 73.8952L128.33 73.8984L127.33 73.9017C127.334 75.068 127.125 76.086 126.567 76.8233L127.364 77.4268ZM128.33 73.8984L129.33 73.8951C129.325 72.5278 129.077 71.1276 128.858 70.0003L127.876 70.1914L126.894 70.3825C127.113 71.5047 127.326 72.7413 127.33 73.9018L128.33 73.8984ZM127.876 70.1914L128.858 70.0003C128.743 69.4098 128.641 68.9245 128.564 68.4852L127.579 68.6572L126.594 68.8292C126.675 69.2931 126.787 69.8317 126.894 70.3825L127.876 70.1914ZM127.579 68.6572L128.564 68.4853C128.486 68.0364 128.458 67.7641 128.461 67.618L127.461 67.6016L126.461 67.5852C126.455 67.9349 126.513 68.3675 126.594 68.8292L127.579 68.6572ZM127.461 67.6016L128.459 67.6554L128.474 67.384L127.476 67.3301L126.477 67.2762L126.462 67.5477L127.461 67.6016ZM127.476 67.3301L128.471 67.4238C128.49 67.2226 128.53 67.1156 128.556 67.0627C128.58 67.0154 128.605 66.9863 128.641 66.9575L128.01 66.1816L127.379 65.4058C126.87 65.8192 126.557 66.4135 126.48 67.2363L127.476 67.3301ZM128.01 66.1816L128.64 66.9576C128.77 66.8523 129.067 66.7189 129.795 66.5914L129.622 65.6064L129.45 64.6214C128.688 64.7548 127.938 64.951 127.379 65.4056L128.01 66.1816ZM129.622 65.6064L129.745 66.5989L130.053 66.5608L129.931 65.5684L129.808 64.5759L129.5 64.614L129.622 65.6064ZM129.931 65.5684L130.009 66.5653C130.639 66.5157 131.627 66.6239 132.943 66.8368L133.103 65.8496L133.262 64.8624C131.968 64.6531 130.755 64.5005 129.852 64.5714L129.931 65.5684ZM133.103 65.8496L132.943 66.8368C134.342 67.0632 136.079 67.4019 137.634 67.5904L137.754 66.5977L137.874 65.6049C136.368 65.4223 134.761 65.105 133.262 64.8624L133.103 65.8496ZM137.754 66.5977L137.634 67.5904C139.157 67.7752 140.844 67.8676 142.176 67.4466L141.874 66.4932L141.573 65.5397C140.691 65.8183 139.39 65.7887 137.874 65.6049L137.754 66.5977ZM141.874 66.4932L142.176 67.4466C142.877 67.2247 143.595 66.8256 144.099 66.1159L143.283 65.5371L142.468 64.9583C142.291 65.2076 142.002 65.4039 141.572 65.5397L141.874 66.4932ZM143.283 65.5371L144.099 66.1158C144.545 65.4874 144.726 64.7506 144.717 63.9833L143.717 63.9951L142.717 64.007C142.722 64.4417 142.621 64.7417 142.468 64.9584L143.283 65.5371ZM143.717 63.9951L144.716 63.9507L144.704 63.687L143.705 63.7314L142.706 63.7758L142.718 64.0395L143.717 63.9951ZM143.705 63.7314L144.702 63.6523C144.557 61.8231 144.705 60.0374 144.908 57.9013L143.912 57.8066L142.917 57.712C142.715 59.8366 142.547 61.785 142.708 63.8106L143.705 63.7314ZM143.912 57.8066L144.908 57.9013C145.109 55.7841 145.358 53.3652 145.358 50.4248L144.358 50.4248L143.358 50.4248C143.358 53.2551 143.119 55.5807 142.917 57.712L143.912 57.8066ZM144.358 50.4248H145.358C145.358 50.0089 145.364 49.3359 145.131 48.7526L144.202 49.124L143.274 49.4954C143.339 49.6581 143.358 49.9285 143.358 50.4248H144.358ZM144.202 49.124L145.13 48.7523C144.991 48.4041 144.761 48.0599 144.402 47.7886L143.799 48.5859L143.195 49.3833C143.212 49.3958 143.224 49.4089 143.236 49.4241C143.247 49.44 143.261 49.4628 143.274 49.4958L144.202 49.124ZM143.799 48.5859L144.402 47.7882C144.058 47.5281 143.679 47.3976 143.333 47.3326L143.148 48.3154L142.964 49.2982C143.097 49.3232 143.163 49.3587 143.196 49.3836L143.799 48.5859ZM143.148 48.3154L143.333 47.3326C142.697 47.2133 141.936 47.2743 141.124 47.3875L141.262 48.3779L141.4 49.3683C142.199 49.2569 142.676 49.2443 142.964 49.2983L143.148 48.3154ZM141.262 48.3779L141.124 47.3875C140.482 47.477 139.705 47.6168 138.775 47.7977L138.966 48.7793L139.157 49.7609C140.079 49.5816 140.813 49.4502 141.4 49.3683L141.262 48.3779ZM138.966 48.7793L138.772 47.7982L137.788 47.9926L137.981 48.9736L138.175 49.9547L139.16 49.7604L138.966 48.7793ZM137.981 48.9736L137.784 47.9932C136.113 48.3291 135.058 48.1377 134.391 47.8217L133.963 48.7256L133.535 49.6294C134.689 50.1756 136.204 50.3507 138.178 49.954L137.981 48.9736ZM133.963 48.7256L134.391 47.8218C133.729 47.5086 133.281 46.9939 132.967 46.3639L132.072 46.8096L131.177 47.2552C131.642 48.1898 132.38 49.0824 133.535 49.6294L133.963 48.7256ZM132.072 46.8096L132.968 46.364C132.298 45.0179 132.365 43.4313 132.365 43.1696L131.365 43.1689L130.365 43.1683C130.365 43.1681 130.365 43.1709 130.365 43.1795C130.365 43.1877 130.365 43.1975 130.365 43.2108C130.364 43.2366 130.364 43.2709 130.363 43.3112C130.362 43.3925 130.362 43.4983 130.364 43.6241C130.369 43.8753 130.385 44.2064 130.428 44.5859C130.513 45.3359 130.71 46.3174 131.177 47.2551L132.072 46.8096ZM131.365 43.1689H132.365C132.365 43.0701 132.38 42.314 132.702 41.4784L131.769 41.1191L130.835 40.7599C130.39 41.917 130.365 42.9478 130.365 43.1689H131.365ZM131.769 41.1191L132.702 41.4785C133.013 40.6697 133.579 39.8561 134.669 39.4028L134.285 38.4795L133.901 37.5562C132.173 38.2749 131.285 39.5933 130.835 40.7598L131.769 41.1191ZM134.285 38.4795L134.624 39.4202L134.887 39.3255L134.548 38.3848L134.209 37.4441L133.946 37.5388L134.285 38.4795ZM134.548 38.3848L134.846 39.3394C135.273 39.2061 135.803 39.1876 136.467 39.2964L136.629 38.3096L136.791 37.3227C135.941 37.1836 135.073 37.1733 134.25 37.4302L134.548 38.3848ZM136.629 38.3096L136.467 39.2964C137.232 39.4218 138.058 39.6945 138.947 40.0215L139.292 39.083L139.637 38.1445C138.735 37.8127 137.757 37.4812 136.791 37.3227L136.629 38.3096ZM139.292 39.083L138.947 40.0215C139.778 40.3273 140.743 40.7137 141.579 40.9422L141.843 39.9775L142.106 39.0129C141.38 38.8145 140.558 38.4833 139.637 38.1445L139.292 39.083ZM141.843 39.9775L141.579 40.9422C142.361 41.1558 143.482 41.3737 144.491 40.9048L144.069 39.998L143.648 39.0913C143.342 39.2334 142.85 39.216 142.106 39.0129L141.843 39.9775ZM144.069 39.998L144.535 40.8828L144.626 40.8349L144.16 39.9502L143.694 39.0655L143.603 39.1133L144.069 39.998ZM144.16 39.9502L144.672 40.8091C145.08 40.5659 145.334 40.2195 145.489 39.9258L144.604 39.459L143.72 38.9921C143.7 39.0308 143.681 39.0568 143.667 39.0729C143.66 39.0807 143.655 39.0854 143.652 39.0881C143.651 39.0894 143.65 39.0902 143.649 39.0907C143.649 39.0909 143.648 39.0911 143.648 39.0912C143.648 39.0913 143.648 39.0913 143.648 39.0913C143.648 39.0913 143.648 39.0913 143.648 39.0913L144.16 39.9502ZM144.604 39.459L145.489 39.9256C145.665 39.5912 145.764 39.2323 145.824 38.911L144.841 38.7275L143.858 38.5441C143.819 38.7533 143.769 38.8991 143.72 38.9923L144.604 39.459ZM144.841 38.7275L145.824 38.9107C145.944 38.2683 145.957 37.5039 145.921 36.7279L144.922 36.7744L143.923 36.8209C143.956 37.5393 143.936 38.1253 143.858 38.5443L144.841 38.7275ZM144.922 36.7744L145.921 36.7279C145.847 35.155 145.551 33.1942 145.182 31.2948L144.2 31.4854L143.219 31.6759C143.58 33.5402 143.856 35.3909 143.923 36.821L144.922 36.7744ZM144.2 31.4854L145.182 31.2948C144.811 29.384 144.356 27.4773 143.948 25.9918L142.983 26.2568L142.019 26.5219C142.414 27.9586 142.857 29.8156 143.219 31.6759L144.2 31.4854ZM142.983 26.2568L143.948 25.9918C143.744 25.2508 143.547 24.598 143.374 24.095L142.429 24.4199L141.483 24.7448C141.637 25.1939 141.822 25.8033 142.019 26.5219L142.983 26.2568ZM142.429 24.4199L143.374 24.095C143.289 23.8474 143.203 23.6142 143.118 23.4175L142.2 23.8145L141.282 24.2114C141.338 24.3401 141.405 24.5184 141.483 24.7449L142.429 24.4199ZM142.2 23.8145L143.118 23.4174C143.067 23.2997 142.98 23.1082 142.859 22.9264L142.027 23.4814L141.196 24.0365C141.201 24.0452 141.213 24.0647 141.23 24.0982C141.247 24.1308 141.264 24.1683 141.282 24.2115L142.2 23.8145ZM142.027 23.4814L142.821 22.8737L142.748 22.778L141.954 23.3857L141.16 23.9935L141.233 24.0892L142.027 23.4814ZM141.954 23.3857L142.701 22.7207C142.07 22.0122 141.232 21.7573 140.435 21.7134L140.38 22.7119L140.325 23.7104C140.783 23.7356 141.041 23.8635 141.207 24.0508L141.954 23.3857ZM140.38 22.7119L140.435 21.7134C139.673 21.6716 138.821 21.8121 137.94 22.0198L138.169 22.9932L138.398 23.9665C139.229 23.7708 139.856 23.6846 140.325 23.7104L140.38 22.7119ZM138.169 22.9932L137.939 22.0198C136.615 22.3321 134.918 22.8767 132.884 23.5146L133.184 24.4688L133.483 25.4229C135.559 24.7717 137.164 24.2576 138.398 23.9665L138.169 22.9932ZM133.184 24.4688L132.888 23.5135L130.696 24.1922L130.992 25.1475L131.288 26.1027L133.479 25.424L133.184 24.4688ZM130.992 25.1475L130.701 24.1908C129.598 24.5267 128.99 24.4847 128.699 24.3985L128.415 25.3574L128.131 26.3163C128.942 26.5561 129.98 26.5008 131.283 26.1041L130.992 25.1475ZM128.415 25.3574L128.699 24.3986C128.475 24.3322 128.363 24.2227 128.273 24.0246L127.363 24.4404L126.454 24.8563C126.761 25.5272 127.299 26.0699 128.131 26.3162L128.415 25.3574ZM127.363 24.4404L128.273 24.0249C128.157 23.7709 128.087 23.3661 128.113 22.8278L127.114 22.7793L126.115 22.7308C126.081 23.4451 126.156 24.2041 126.454 24.856L127.363 24.4404ZM127.114 22.7793L128.113 22.8279C128.135 22.3818 128.219 21.9176 128.333 21.5046L127.369 21.2384L126.405 20.9721C126.258 21.5025 126.145 22.1138 126.115 22.7307L127.114 22.7793ZM127.521 20.8341L128.43 21.2504C129.259 19.4411 130.111 16.7061 129.786 14.2942L128.795 14.4277L127.804 14.5613C128.054 16.4165 127.383 18.7345 126.612 20.4177L127.521 20.8341ZM128.795 14.4277L129.786 14.2941C129.609 12.9851 129.067 11.6563 127.871 10.7025L127.247 11.4844L126.624 12.2662C127.307 12.8115 127.675 13.6053 127.804 14.5614L128.795 14.4277ZM127.247 11.4844L127.87 10.7024C126.759 9.81671 125.271 9.40471 123.465 9.42782L123.478 10.4277L123.49 11.4277C124.99 11.4085 125.979 11.7522 126.624 12.2663L127.247 11.4844ZM123.478 10.4277L123.448 9.42816L123.113 9.43792L123.142 10.4375L123.171 11.4371L123.507 11.4273L123.478 10.4277ZM127.369 21.2384L128.333 21.5046C128.352 21.4358 128.382 21.3551 128.43 21.2504L127.521 20.8341L126.612 20.4177C126.54 20.5755 126.463 20.7626 126.405 20.9721L127.369 21.2384ZM102.095 49.8297L101.124 50.0674C101.149 50.1708 101.164 50.285 101.166 50.4095L102.166 50.3905L103.166 50.3715C103.161 50.1181 103.131 49.8556 103.067 49.5919L102.095 49.8297Z" fill="#EDEAF6" mask="url(#path-2-outside-1_507_2034)"/>
<path d="M197.742 0.5C200.064 0.5 201.721 2.71037 201.122 4.91211L201.057 5.125L185.637 50.5391C185.086 52.1603 186.292 53.8426 188.004 53.8428H199.183C200.563 53.8428 201.683 52.7235 201.683 51.3428V4C201.683 2.06701 203.25 0.500006 205.183 0.5H223.121C225.054 0.500181 226.621 2.06711 226.621 4V51.3428C226.621 52.7235 227.74 53.8428 229.121 53.8428H233C234.933 53.8428 236.5 55.4099 236.5 57.3428V71.6641C236.5 73.5971 234.933 75.1641 233 75.1641H229.121C227.74 75.1641 226.621 76.2834 226.621 77.6641V85C226.621 86.9329 225.054 88.4998 223.121 88.5H205.183C203.25 88.5 201.683 86.933 201.683 85V77.6641C201.683 76.2834 200.563 75.1641 199.183 75.1641H154.328C151.885 75.164 150.193 72.7235 151.051 70.4355L176.413 2.77148L176.519 2.52051C177.089 1.29549 178.323 0.500041 179.69 0.5H197.742Z" fill="#C29CC8" stroke="#EDEAF6"/>
</svg>
